<mxfile host="app.diagrams.net" modified="2022-09-13T12:36:17.134Z" agent="5.0 (Windows NT 10.0; Win64; x64) AppleWebKit/537.36 (KHTML, like Gecko) Chrome/105.0.0.0 Safari/537.36" etag="XXaZK92mHaH6C9JMbSqT" version="20.1.1" type="github">
  <diagram id="1IjHUFlIv2CaE3CARwfX" name="第 1 页">
    <mxGraphModel dx="2633" dy="965" grid="1" gridSize="10" guides="1" tooltips="1" connect="1" arrows="1" fold="1" page="1" pageScale="1" pageWidth="827" pageHeight="1169" math="0" shadow="0">
      <root>
        <mxCell id="0" />
        <mxCell id="1" parent="0" />
        <mxCell id="QAr_Sbfl9N1JEadzkFcU-1" value="" style="verticalLabelPosition=bottom;verticalAlign=top;html=1;shape=mxgraph.basic.rect;fillColor2=none;strokeWidth=5;size=20;indent=5;shadow=0;sketch=0;fillStyle=auto;fontFamily=Times New Roman;fontSize=27;fillColor=none;gradientDirection=north;dashed=1;fontColor=#333333;strokeColor=#808080;" vertex="1" parent="1">
          <mxGeometry x="-59.99999999999999" y="53" width="1887.79" height="880" as="geometry" />
        </mxCell>
        <mxCell id="QAr_Sbfl9N1JEadzkFcU-2" value="" style="rounded=0;whiteSpace=wrap;html=1;fontSize=30;strokeWidth=2;fillColor=none;" vertex="1" parent="1">
          <mxGeometry x="232" y="420" width="1284" height="370" as="geometry" />
        </mxCell>
        <mxCell id="QAr_Sbfl9N1JEadzkFcU-3" value="" style="verticalLabelPosition=bottom;verticalAlign=top;html=1;shape=mxgraph.basic.patternFillRect;fillStyle=auto;step=5;fillStrokeWidth=0.2;fillStrokeColor=#dddddd;gradientDirection=north;shadow=0;sketch=0;strokeWidth=3;fillColor=#f5f5f5;fontColor=#333333;strokeColor=#000000;" vertex="1" parent="1">
          <mxGeometry x="587.38" y="126.5" width="51" height="47" as="geometry" />
        </mxCell>
        <mxCell id="QAr_Sbfl9N1JEadzkFcU-4" value="" style="verticalLabelPosition=bottom;verticalAlign=top;html=1;shape=mxgraph.basic.patternFillRect;fillStyle=auto;step=5;fillStrokeWidth=0.2;fillStrokeColor=#dddddd;gradientDirection=north;shadow=0;sketch=0;strokeWidth=3;fillColor=#f5f5f5;fontColor=#333333;strokeColor=#000000;" vertex="1" parent="1">
          <mxGeometry x="638.38" y="126.5" width="51" height="47" as="geometry" />
        </mxCell>
        <mxCell id="QAr_Sbfl9N1JEadzkFcU-5" value="" style="verticalLabelPosition=bottom;verticalAlign=top;html=1;shape=mxgraph.basic.patternFillRect;fillStyle=auto;step=5;fillStrokeWidth=0.2;fillStrokeColor=#dddddd;gradientDirection=north;shadow=0;sketch=0;strokeWidth=3;fillColor=#f5f5f5;fontColor=#333333;strokeColor=#000000;" vertex="1" parent="1">
          <mxGeometry x="689.38" y="126.5" width="51" height="47" as="geometry" />
        </mxCell>
        <mxCell id="QAr_Sbfl9N1JEadzkFcU-6" value="" style="verticalLabelPosition=bottom;verticalAlign=top;html=1;shape=mxgraph.basic.patternFillRect;fillStyle=auto;step=5;fillStrokeWidth=0.2;fillStrokeColor=#dddddd;gradientDirection=north;shadow=0;sketch=0;strokeWidth=3;fillColor=#f5f5f5;fontColor=#333333;strokeColor=#000000;" vertex="1" parent="1">
          <mxGeometry x="740.38" y="126.5" width="51" height="47" as="geometry" />
        </mxCell>
        <mxCell id="QAr_Sbfl9N1JEadzkFcU-7" value="" style="verticalLabelPosition=bottom;verticalAlign=top;html=1;shape=mxgraph.basic.patternFillRect;fillStyle=auto;step=5;fillStrokeWidth=0.2;fillStrokeColor=#dddddd;gradientDirection=north;shadow=0;sketch=0;strokeWidth=3;fillColor=#f5f5f5;fontColor=#333333;strokeColor=#000000;" vertex="1" parent="1">
          <mxGeometry x="791.38" y="126.5" width="51" height="47" as="geometry" />
        </mxCell>
        <mxCell id="QAr_Sbfl9N1JEadzkFcU-8" value="" style="verticalLabelPosition=bottom;verticalAlign=top;html=1;shape=mxgraph.basic.patternFillRect;fillStyle=auto;step=5;fillStrokeWidth=0.2;fillStrokeColor=#dddddd;gradientDirection=north;shadow=0;sketch=0;strokeWidth=3;fillColor=#f5f5f5;fontColor=#333333;strokeColor=#000000;" vertex="1" parent="1">
          <mxGeometry x="842.38" y="126.5" width="51" height="47" as="geometry" />
        </mxCell>
        <mxCell id="QAr_Sbfl9N1JEadzkFcU-9" value="" style="verticalLabelPosition=bottom;verticalAlign=top;html=1;shape=mxgraph.basic.patternFillRect;fillStyle=auto;step=5;fillStrokeWidth=0.2;fillStrokeColor=#dddddd;gradientDirection=north;shadow=0;sketch=0;strokeWidth=3;fillColor=#f5f5f5;fontColor=#333333;strokeColor=#000000;" vertex="1" parent="1">
          <mxGeometry x="893.38" y="126.5" width="51" height="47" as="geometry" />
        </mxCell>
        <mxCell id="QAr_Sbfl9N1JEadzkFcU-10" value="" style="verticalLabelPosition=bottom;verticalAlign=top;html=1;shape=mxgraph.basic.patternFillRect;fillStyle=auto;step=5;fillStrokeWidth=0.2;fillStrokeColor=#dddddd;gradientDirection=north;shadow=0;sketch=0;strokeWidth=3;fillColor=#f5f5f5;fontColor=#333333;strokeColor=#000000;" vertex="1" parent="1">
          <mxGeometry x="944.38" y="126.5" width="51" height="47" as="geometry" />
        </mxCell>
        <mxCell id="QAr_Sbfl9N1JEadzkFcU-11" value="" style="verticalLabelPosition=bottom;verticalAlign=top;html=1;shape=mxgraph.basic.patternFillRect;fillStyle=auto;step=5;fillStrokeWidth=0.2;fillStrokeColor=#dddddd;gradientDirection=north;shadow=0;sketch=0;strokeWidth=3;fillColor=#f5f5f5;fontColor=#333333;strokeColor=#000000;" vertex="1" parent="1">
          <mxGeometry x="995.38" y="126.5" width="51" height="47" as="geometry" />
        </mxCell>
        <mxCell id="QAr_Sbfl9N1JEadzkFcU-12" value="" style="verticalLabelPosition=bottom;verticalAlign=top;html=1;shape=mxgraph.basic.patternFillRect;fillStyle=auto;step=5;fillStrokeWidth=0.2;fillStrokeColor=#dddddd;gradientDirection=north;shadow=0;sketch=0;strokeWidth=3;fillColor=#f5f5f5;fontColor=#333333;strokeColor=#000000;" vertex="1" parent="1">
          <mxGeometry x="1046.38" y="126.5" width="51" height="47" as="geometry" />
        </mxCell>
        <mxCell id="QAr_Sbfl9N1JEadzkFcU-13" value="" style="verticalLabelPosition=bottom;verticalAlign=top;html=1;shape=mxgraph.basic.patternFillRect;fillStyle=auto;step=5;fillStrokeWidth=0.2;fillStrokeColor=#dddddd;gradientDirection=north;shadow=0;sketch=0;strokeWidth=3;fillColor=#f5f5f5;fontColor=#333333;strokeColor=#000000;" vertex="1" parent="1">
          <mxGeometry x="1097.38" y="126.5" width="51" height="47" as="geometry" />
        </mxCell>
        <mxCell id="QAr_Sbfl9N1JEadzkFcU-14" value="&lt;font style=&quot;font-size: 20px;&quot;&gt;CLS&lt;/font&gt;" style="text;html=1;resizable=0;autosize=1;align=center;verticalAlign=middle;points=[];fillColor=none;strokeColor=none;rounded=0;dashed=1;fontFamily=Times New Roman;fontSize=11;strokeWidth=3;" vertex="1" parent="1">
          <mxGeometry x="587.38" y="140" width="50" height="20" as="geometry" />
        </mxCell>
        <mxCell id="QAr_Sbfl9N1JEadzkFcU-15" value="&lt;font style=&quot;font-size: 25px;&quot;&gt;体&lt;/font&gt;" style="text;html=1;resizable=0;autosize=1;align=center;verticalAlign=middle;points=[];fillColor=none;strokeColor=none;rounded=0;dashed=1;fontFamily=Times New Roman;fontSize=11;strokeWidth=3;" vertex="1" parent="1">
          <mxGeometry x="639.4600000000002" y="130" width="50" height="40" as="geometry" />
        </mxCell>
        <mxCell id="QAr_Sbfl9N1JEadzkFcU-16" value="&lt;font style=&quot;font-size: 25px;&quot;&gt;温&lt;/font&gt;" style="text;html=1;resizable=0;autosize=1;align=center;verticalAlign=middle;points=[];fillColor=none;strokeColor=none;rounded=0;dashed=1;fontFamily=Times New Roman;fontSize=11;strokeWidth=3;" vertex="1" parent="1">
          <mxGeometry x="690.46" y="130" width="50" height="40" as="geometry" />
        </mxCell>
        <mxCell id="QAr_Sbfl9N1JEadzkFcU-17" value="&lt;font style=&quot;font-size: 25px;&quot;&gt;高&lt;/font&gt;" style="text;html=1;resizable=0;autosize=1;align=center;verticalAlign=middle;points=[];fillColor=none;strokeColor=none;rounded=0;dashed=1;fontFamily=Times New Roman;fontSize=11;strokeWidth=3;" vertex="1" parent="1">
          <mxGeometry x="740.8800000000001" y="130" width="50" height="40" as="geometry" />
        </mxCell>
        <mxCell id="QAr_Sbfl9N1JEadzkFcU-18" value="&lt;font style=&quot;font-size: 25px;&quot;&gt;达&lt;/font&gt;" style="text;html=1;resizable=0;autosize=1;align=center;verticalAlign=middle;points=[];fillColor=none;strokeColor=none;rounded=0;dashed=1;fontFamily=Times New Roman;fontSize=11;strokeWidth=3;" vertex="1" parent="1">
          <mxGeometry x="792.46" y="130" width="50" height="40" as="geometry" />
        </mxCell>
        <mxCell id="QAr_Sbfl9N1JEadzkFcU-19" value="&lt;font style=&quot;font-size: 25px;&quot;&gt;3&lt;/font&gt;" style="text;html=1;resizable=0;autosize=1;align=center;verticalAlign=middle;points=[];fillColor=none;strokeColor=none;rounded=0;dashed=1;fontFamily=Times New Roman;fontSize=11;strokeWidth=3;" vertex="1" parent="1">
          <mxGeometry x="848.46" y="130" width="40" height="40" as="geometry" />
        </mxCell>
        <mxCell id="QAr_Sbfl9N1JEadzkFcU-20" value="&lt;font style=&quot;font-size: 25px;&quot;&gt;9&lt;/font&gt;" style="text;html=1;resizable=0;autosize=1;align=center;verticalAlign=middle;points=[];fillColor=none;strokeColor=none;rounded=0;dashed=1;fontFamily=Times New Roman;fontSize=11;strokeWidth=3;" vertex="1" parent="1">
          <mxGeometry x="899.4600000000002" y="130" width="40" height="40" as="geometry" />
        </mxCell>
        <mxCell id="QAr_Sbfl9N1JEadzkFcU-21" value="&lt;font style=&quot;font-size: 25px;&quot;&gt;摄&lt;/font&gt;" style="text;html=1;resizable=0;autosize=1;align=center;verticalAlign=middle;points=[];fillColor=none;strokeColor=none;rounded=0;dashed=1;fontFamily=Times New Roman;fontSize=11;strokeWidth=3;" vertex="1" parent="1">
          <mxGeometry x="944.88" y="130" width="50" height="40" as="geometry" />
        </mxCell>
        <mxCell id="QAr_Sbfl9N1JEadzkFcU-22" value="&lt;font style=&quot;font-size: 25px;&quot;&gt;氏&lt;/font&gt;" style="text;html=1;resizable=0;autosize=1;align=center;verticalAlign=middle;points=[];fillColor=none;strokeColor=none;rounded=0;dashed=1;fontFamily=Times New Roman;fontSize=11;strokeWidth=3;" vertex="1" parent="1">
          <mxGeometry x="995.88" y="130" width="50" height="40" as="geometry" />
        </mxCell>
        <mxCell id="QAr_Sbfl9N1JEadzkFcU-23" value="&lt;font style=&quot;font-size: 25px;&quot;&gt;度&lt;/font&gt;" style="text;html=1;resizable=0;autosize=1;align=center;verticalAlign=middle;points=[];fillColor=none;strokeColor=none;rounded=0;dashed=1;fontFamily=Times New Roman;fontSize=11;strokeWidth=3;" vertex="1" parent="1">
          <mxGeometry x="1047.46" y="130" width="50" height="40" as="geometry" />
        </mxCell>
        <mxCell id="QAr_Sbfl9N1JEadzkFcU-24" value="&lt;font style=&quot;font-size: 25px;&quot;&gt;&amp;nbsp; &amp;nbsp;。&lt;/font&gt;" style="text;html=1;resizable=0;autosize=1;align=center;verticalAlign=middle;points=[];fillColor=none;strokeColor=none;rounded=0;dashed=1;fontFamily=Times New Roman;fontSize=11;strokeWidth=3;" vertex="1" parent="1">
          <mxGeometry x="1086.0000000000002" y="128" width="70" height="40" as="geometry" />
        </mxCell>
        <mxCell id="QAr_Sbfl9N1JEadzkFcU-25" value="" style="verticalLabelPosition=bottom;verticalAlign=top;html=1;shape=mxgraph.basic.patternFillRect;fillStyle=auto;step=5;fillStrokeWidth=0.2;fillStrokeColor=#dddddd;gradientDirection=north;shadow=0;sketch=0;strokeWidth=3;" vertex="1" parent="1">
          <mxGeometry x="-31" y="128.5" width="51" height="47" as="geometry" />
        </mxCell>
        <mxCell id="QAr_Sbfl9N1JEadzkFcU-26" value="&lt;font style=&quot;font-size: 20px;&quot;&gt;0&lt;/font&gt;" style="text;html=1;resizable=0;autosize=1;align=center;verticalAlign=middle;points=[];rounded=0;dashed=1;fontFamily=Times New Roman;fontSize=11;strokeWidth=3;" vertex="1" parent="1">
          <mxGeometry x="-20.499999999999943" y="132.5" width="30" height="40" as="geometry" />
        </mxCell>
        <mxCell id="QAr_Sbfl9N1JEadzkFcU-27" value="" style="verticalLabelPosition=bottom;verticalAlign=top;html=1;shape=mxgraph.basic.patternFillRect;fillStyle=auto;step=5;fillStrokeWidth=0.2;fillStrokeColor=#dddddd;gradientDirection=north;shadow=0;sketch=0;strokeWidth=3;" vertex="1" parent="1">
          <mxGeometry x="20" y="128.5" width="51" height="47" as="geometry" />
        </mxCell>
        <mxCell id="QAr_Sbfl9N1JEadzkFcU-28" value="&lt;font style=&quot;font-size: 20px;&quot;&gt;ti3&lt;/font&gt;" style="text;html=1;resizable=0;autosize=1;align=center;verticalAlign=middle;points=[];rounded=0;dashed=1;fontFamily=Times New Roman;fontSize=11;strokeWidth=3;" vertex="1" parent="1">
          <mxGeometry x="25.500000000000057" y="132.5" width="40" height="40" as="geometry" />
        </mxCell>
        <mxCell id="QAr_Sbfl9N1JEadzkFcU-29" value="" style="verticalLabelPosition=bottom;verticalAlign=top;html=1;shape=mxgraph.basic.patternFillRect;fillStyle=auto;step=5;fillStrokeWidth=0.2;fillStrokeColor=#dddddd;gradientDirection=north;shadow=0;sketch=0;strokeWidth=3;" vertex="1" parent="1">
          <mxGeometry x="71" y="128.5" width="51" height="47" as="geometry" />
        </mxCell>
        <mxCell id="QAr_Sbfl9N1JEadzkFcU-30" value="&lt;span style=&quot;font-size: 20px;&quot;&gt;wen1&lt;/span&gt;" style="text;html=1;resizable=0;autosize=1;align=center;verticalAlign=middle;points=[];rounded=0;dashed=1;fontFamily=Times New Roman;fontSize=11;strokeWidth=3;" vertex="1" parent="1">
          <mxGeometry x="61.50000000000006" y="132.5" width="70" height="40" as="geometry" />
        </mxCell>
        <mxCell id="QAr_Sbfl9N1JEadzkFcU-31" value="" style="verticalLabelPosition=bottom;verticalAlign=top;html=1;shape=mxgraph.basic.patternFillRect;fillStyle=auto;step=5;fillStrokeWidth=0.2;fillStrokeColor=#dddddd;gradientDirection=north;shadow=0;sketch=0;strokeWidth=3;" vertex="1" parent="1">
          <mxGeometry x="122" y="128.5" width="51" height="47" as="geometry" />
        </mxCell>
        <mxCell id="QAr_Sbfl9N1JEadzkFcU-32" value="&lt;span style=&quot;font-size: 20px;&quot;&gt;gao1&lt;br&gt;&lt;/span&gt;" style="text;html=1;resizable=0;autosize=1;align=center;verticalAlign=middle;points=[];rounded=0;dashed=1;fontFamily=Times New Roman;fontSize=11;strokeWidth=3;" vertex="1" parent="1">
          <mxGeometry x="118.50000000000006" y="132.5" width="60" height="40" as="geometry" />
        </mxCell>
        <mxCell id="QAr_Sbfl9N1JEadzkFcU-33" value="" style="verticalLabelPosition=bottom;verticalAlign=top;html=1;shape=mxgraph.basic.patternFillRect;fillStyle=auto;step=5;fillStrokeWidth=0.2;fillStrokeColor=#dddddd;gradientDirection=north;shadow=0;sketch=0;strokeWidth=3;" vertex="1" parent="1">
          <mxGeometry x="173" y="128.5" width="51" height="47" as="geometry" />
        </mxCell>
        <mxCell id="QAr_Sbfl9N1JEadzkFcU-34" value="&lt;span style=&quot;font-size: 20px;&quot;&gt;da2&lt;/span&gt;" style="text;html=1;resizable=0;autosize=1;align=center;verticalAlign=middle;points=[];rounded=0;dashed=1;fontFamily=Times New Roman;fontSize=11;strokeWidth=3;" vertex="1" parent="1">
          <mxGeometry x="173.50000000000006" y="132.5" width="50" height="40" as="geometry" />
        </mxCell>
        <mxCell id="QAr_Sbfl9N1JEadzkFcU-35" value="" style="verticalLabelPosition=bottom;verticalAlign=top;html=1;shape=mxgraph.basic.patternFillRect;fillStyle=auto;step=5;fillStrokeWidth=0.2;fillStrokeColor=#dddddd;gradientDirection=north;shadow=0;sketch=0;strokeWidth=3;" vertex="1" parent="1">
          <mxGeometry x="224" y="128.5" width="51" height="47" as="geometry" />
        </mxCell>
        <mxCell id="QAr_Sbfl9N1JEadzkFcU-36" value="&lt;font style=&quot;font-size: 20px;&quot;&gt;0&lt;/font&gt;" style="text;html=1;resizable=0;autosize=1;align=center;verticalAlign=middle;points=[];rounded=0;dashed=1;fontFamily=Times New Roman;fontSize=11;strokeWidth=3;" vertex="1" parent="1">
          <mxGeometry x="234.50000000000006" y="132.5" width="30" height="40" as="geometry" />
        </mxCell>
        <mxCell id="QAr_Sbfl9N1JEadzkFcU-37" value="" style="verticalLabelPosition=bottom;verticalAlign=top;html=1;shape=mxgraph.basic.patternFillRect;fillStyle=auto;step=5;fillStrokeWidth=0.2;fillStrokeColor=#dddddd;gradientDirection=north;shadow=0;sketch=0;strokeWidth=3;" vertex="1" parent="1">
          <mxGeometry x="275" y="128.5" width="51" height="47" as="geometry" />
        </mxCell>
        <mxCell id="QAr_Sbfl9N1JEadzkFcU-38" value="&lt;span style=&quot;font-size: 20px;&quot;&gt;0&lt;/span&gt;" style="text;html=1;resizable=0;autosize=1;align=center;verticalAlign=middle;points=[];rounded=0;dashed=1;fontFamily=Times New Roman;fontSize=11;strokeWidth=3;" vertex="1" parent="1">
          <mxGeometry x="285.50000000000006" y="132.5" width="30" height="40" as="geometry" />
        </mxCell>
        <mxCell id="QAr_Sbfl9N1JEadzkFcU-39" value="" style="verticalLabelPosition=bottom;verticalAlign=top;html=1;shape=mxgraph.basic.patternFillRect;fillStyle=auto;step=5;fillStrokeWidth=0.2;fillStrokeColor=#dddddd;gradientDirection=north;shadow=0;sketch=0;strokeWidth=3;" vertex="1" parent="1">
          <mxGeometry x="326" y="128.5" width="51" height="47" as="geometry" />
        </mxCell>
        <mxCell id="QAr_Sbfl9N1JEadzkFcU-40" value="&lt;span style=&quot;font-size: 20px;&quot;&gt;she4&lt;br&gt;&lt;/span&gt;" style="text;html=1;resizable=0;autosize=1;align=center;verticalAlign=middle;points=[];rounded=0;dashed=1;fontFamily=Times New Roman;fontSize=11;strokeWidth=3;" vertex="1" parent="1">
          <mxGeometry x="321.5" y="132.5" width="60" height="40" as="geometry" />
        </mxCell>
        <mxCell id="QAr_Sbfl9N1JEadzkFcU-41" value="" style="verticalLabelPosition=bottom;verticalAlign=top;html=1;shape=mxgraph.basic.patternFillRect;fillStyle=auto;step=5;fillStrokeWidth=0.2;fillStrokeColor=#dddddd;gradientDirection=north;shadow=0;sketch=0;strokeWidth=3;" vertex="1" parent="1">
          <mxGeometry x="377" y="128.5" width="51" height="47" as="geometry" />
        </mxCell>
        <mxCell id="QAr_Sbfl9N1JEadzkFcU-42" value="&lt;font style=&quot;font-size: 20px;&quot;&gt;shi4&lt;/font&gt;" style="text;html=1;resizable=0;autosize=1;align=center;verticalAlign=middle;points=[];rounded=0;dashed=1;fontFamily=Times New Roman;fontSize=11;strokeWidth=3;" vertex="1" parent="1">
          <mxGeometry x="372.5" y="132.5" width="60" height="40" as="geometry" />
        </mxCell>
        <mxCell id="QAr_Sbfl9N1JEadzkFcU-43" value="" style="verticalLabelPosition=bottom;verticalAlign=top;html=1;shape=mxgraph.basic.patternFillRect;fillStyle=auto;step=5;fillStrokeWidth=0.2;fillStrokeColor=#dddddd;gradientDirection=north;shadow=0;sketch=0;strokeWidth=3;" vertex="1" parent="1">
          <mxGeometry x="428" y="128.5" width="51" height="47" as="geometry" />
        </mxCell>
        <mxCell id="QAr_Sbfl9N1JEadzkFcU-44" value="&lt;span style=&quot;font-size: 20px;&quot;&gt;du4&lt;/span&gt;" style="text;html=1;resizable=0;autosize=1;align=center;verticalAlign=middle;points=[];rounded=0;dashed=1;fontFamily=Times New Roman;fontSize=11;strokeWidth=3;" vertex="1" parent="1">
          <mxGeometry x="428.5" y="132.5" width="50" height="40" as="geometry" />
        </mxCell>
        <mxCell id="QAr_Sbfl9N1JEadzkFcU-45" value="" style="verticalLabelPosition=bottom;verticalAlign=top;html=1;shape=mxgraph.basic.patternFillRect;fillStyle=auto;step=5;fillStrokeWidth=0.2;fillStrokeColor=#dddddd;gradientDirection=north;shadow=0;sketch=0;strokeWidth=3;" vertex="1" parent="1">
          <mxGeometry x="479" y="128.5" width="51" height="47" as="geometry" />
        </mxCell>
        <mxCell id="QAr_Sbfl9N1JEadzkFcU-46" value="&lt;span style=&quot;font-size: 20px;&quot;&gt;0&lt;br&gt;&lt;/span&gt;" style="text;html=1;resizable=0;autosize=1;align=center;verticalAlign=middle;points=[];rounded=0;dashed=1;fontFamily=Times New Roman;fontSize=11;strokeWidth=3;" vertex="1" parent="1">
          <mxGeometry x="489.5" y="132.5" width="30" height="40" as="geometry" />
        </mxCell>
        <mxCell id="QAr_Sbfl9N1JEadzkFcU-47" value="&lt;font style=&quot;font-size: 30px;&quot;&gt;pre-trained pinyin embedding lookup table&lt;/font&gt;" style="rounded=0;whiteSpace=wrap;html=1;fontFamily=Times New Roman;fontSize=30;strokeWidth=3;" vertex="1" parent="1">
          <mxGeometry x="-31" y="212.5" width="560" height="60" as="geometry" />
        </mxCell>
        <mxCell id="QAr_Sbfl9N1JEadzkFcU-48" value="" style="verticalLabelPosition=bottom;verticalAlign=top;html=1;shape=mxgraph.basic.patternFillRect;fillStyle=auto;step=5;fillStrokeWidth=0.2;fillStrokeColor=#dddddd;gradientDirection=north;strokeColor=#6c8ebf;shadow=0;sketch=0;fillColor=#dae8fc;strokeWidth=3;" vertex="1" parent="1">
          <mxGeometry x="-33" y="309.5" width="51" height="47" as="geometry" />
        </mxCell>
        <mxCell id="QAr_Sbfl9N1JEadzkFcU-49" value="" style="verticalLabelPosition=bottom;verticalAlign=top;html=1;shape=mxgraph.basic.patternFillRect;fillStyle=auto;step=5;fillStrokeWidth=0.2;fillStrokeColor=#dddddd;gradientDirection=north;strokeColor=#6c8ebf;shadow=0;sketch=0;fillColor=#dae8fc;strokeWidth=3;" vertex="1" parent="1">
          <mxGeometry x="18" y="309.5" width="51" height="47" as="geometry" />
        </mxCell>
        <mxCell id="QAr_Sbfl9N1JEadzkFcU-50" value="" style="verticalLabelPosition=bottom;verticalAlign=top;html=1;shape=mxgraph.basic.patternFillRect;fillStyle=auto;step=5;fillStrokeWidth=0.2;fillStrokeColor=#dddddd;gradientDirection=north;strokeColor=#6c8ebf;shadow=0;sketch=0;fillColor=#dae8fc;strokeWidth=3;" vertex="1" parent="1">
          <mxGeometry x="69" y="309.5" width="51" height="47" as="geometry" />
        </mxCell>
        <mxCell id="QAr_Sbfl9N1JEadzkFcU-51" value="" style="verticalLabelPosition=bottom;verticalAlign=top;html=1;shape=mxgraph.basic.patternFillRect;fillStyle=auto;step=5;fillStrokeWidth=0.2;fillStrokeColor=#dddddd;gradientDirection=north;strokeColor=#6c8ebf;shadow=0;sketch=0;fillColor=#dae8fc;strokeWidth=3;" vertex="1" parent="1">
          <mxGeometry x="120" y="309.5" width="51" height="47" as="geometry" />
        </mxCell>
        <mxCell id="QAr_Sbfl9N1JEadzkFcU-52" value="" style="verticalLabelPosition=bottom;verticalAlign=top;html=1;shape=mxgraph.basic.patternFillRect;fillStyle=auto;step=5;fillStrokeWidth=0.2;fillStrokeColor=#dddddd;gradientDirection=north;strokeColor=#6c8ebf;shadow=0;sketch=0;fillColor=#dae8fc;strokeWidth=3;" vertex="1" parent="1">
          <mxGeometry x="171" y="309.5" width="51" height="47" as="geometry" />
        </mxCell>
        <mxCell id="QAr_Sbfl9N1JEadzkFcU-53" value="" style="verticalLabelPosition=bottom;verticalAlign=top;html=1;shape=mxgraph.basic.patternFillRect;fillStyle=auto;step=5;fillStrokeWidth=0.2;fillStrokeColor=#dddddd;gradientDirection=north;strokeColor=#6c8ebf;shadow=0;sketch=0;fillColor=#dae8fc;strokeWidth=3;" vertex="1" parent="1">
          <mxGeometry x="222" y="309.5" width="51" height="47" as="geometry" />
        </mxCell>
        <mxCell id="QAr_Sbfl9N1JEadzkFcU-54" value="" style="verticalLabelPosition=bottom;verticalAlign=top;html=1;shape=mxgraph.basic.patternFillRect;fillStyle=auto;step=5;fillStrokeWidth=0.2;fillStrokeColor=#dddddd;gradientDirection=north;strokeColor=#6c8ebf;shadow=0;sketch=0;fillColor=#dae8fc;strokeWidth=3;" vertex="1" parent="1">
          <mxGeometry x="273" y="309.5" width="51" height="47" as="geometry" />
        </mxCell>
        <mxCell id="QAr_Sbfl9N1JEadzkFcU-55" value="" style="verticalLabelPosition=bottom;verticalAlign=top;html=1;shape=mxgraph.basic.patternFillRect;fillStyle=auto;step=5;fillStrokeWidth=0.2;fillStrokeColor=#dddddd;gradientDirection=north;strokeColor=#6c8ebf;shadow=0;sketch=0;fillColor=#dae8fc;strokeWidth=3;" vertex="1" parent="1">
          <mxGeometry x="324" y="309.5" width="51" height="47" as="geometry" />
        </mxCell>
        <mxCell id="QAr_Sbfl9N1JEadzkFcU-56" value="" style="verticalLabelPosition=bottom;verticalAlign=top;html=1;shape=mxgraph.basic.patternFillRect;fillStyle=auto;step=5;fillStrokeWidth=0.2;fillStrokeColor=#dddddd;gradientDirection=north;strokeColor=#6c8ebf;shadow=0;sketch=0;fillColor=#dae8fc;strokeWidth=3;" vertex="1" parent="1">
          <mxGeometry x="375" y="309.5" width="51" height="47" as="geometry" />
        </mxCell>
        <mxCell id="QAr_Sbfl9N1JEadzkFcU-57" value="" style="verticalLabelPosition=bottom;verticalAlign=top;html=1;shape=mxgraph.basic.patternFillRect;fillStyle=auto;step=5;fillStrokeWidth=0.2;fillStrokeColor=#dddddd;gradientDirection=north;strokeColor=#6c8ebf;shadow=0;sketch=0;fillColor=#dae8fc;strokeWidth=3;" vertex="1" parent="1">
          <mxGeometry x="426" y="309.5" width="51" height="47" as="geometry" />
        </mxCell>
        <mxCell id="QAr_Sbfl9N1JEadzkFcU-58" value="" style="verticalLabelPosition=bottom;verticalAlign=top;html=1;shape=mxgraph.basic.patternFillRect;fillStyle=auto;step=5;fillStrokeWidth=0.2;fillStrokeColor=#dddddd;gradientDirection=north;strokeColor=#6c8ebf;shadow=0;sketch=0;fillColor=#dae8fc;strokeWidth=3;" vertex="1" parent="1">
          <mxGeometry x="477" y="309.5" width="51" height="47" as="geometry" />
        </mxCell>
        <mxCell id="QAr_Sbfl9N1JEadzkFcU-59" value="" style="verticalLabelPosition=bottom;verticalAlign=top;html=1;shape=mxgraph.basic.patternFillRect;fillStyle=auto;step=5;fillStrokeWidth=0.2;fillStrokeColor=#dddddd;gradientDirection=north;shadow=0;sketch=0;strokeWidth=3;" vertex="1" parent="1">
          <mxGeometry x="1197" y="126" width="51" height="47" as="geometry" />
        </mxCell>
        <mxCell id="QAr_Sbfl9N1JEadzkFcU-60" value="&lt;font style=&quot;font-size: 20px;&quot;&gt;0&lt;/font&gt;" style="text;html=1;resizable=0;autosize=1;align=center;verticalAlign=middle;points=[];rounded=0;dashed=1;fontFamily=Times New Roman;fontSize=11;strokeWidth=3;" vertex="1" parent="1">
          <mxGeometry x="1207.5" y="130" width="30" height="40" as="geometry" />
        </mxCell>
        <mxCell id="QAr_Sbfl9N1JEadzkFcU-61" value="" style="verticalLabelPosition=bottom;verticalAlign=top;html=1;shape=mxgraph.basic.patternFillRect;fillStyle=auto;step=5;fillStrokeWidth=0.2;fillStrokeColor=#dddddd;gradientDirection=north;shadow=0;sketch=0;strokeWidth=3;" vertex="1" parent="1">
          <mxGeometry x="1248" y="126" width="51" height="47" as="geometry" />
        </mxCell>
        <mxCell id="QAr_Sbfl9N1JEadzkFcU-62" value="" style="verticalLabelPosition=bottom;verticalAlign=top;html=1;shape=mxgraph.basic.patternFillRect;fillStyle=auto;step=5;fillStrokeWidth=0.2;fillStrokeColor=#dddddd;gradientDirection=north;shadow=0;sketch=0;strokeWidth=3;" vertex="1" parent="1">
          <mxGeometry x="1299" y="126" width="51" height="47" as="geometry" />
        </mxCell>
        <mxCell id="QAr_Sbfl9N1JEadzkFcU-63" value="" style="verticalLabelPosition=bottom;verticalAlign=top;html=1;shape=mxgraph.basic.patternFillRect;fillStyle=auto;step=5;fillStrokeWidth=0.2;fillStrokeColor=#dddddd;gradientDirection=north;shadow=0;sketch=0;strokeWidth=3;" vertex="1" parent="1">
          <mxGeometry x="1350" y="126" width="51" height="47" as="geometry" />
        </mxCell>
        <mxCell id="QAr_Sbfl9N1JEadzkFcU-64" value="&lt;span style=&quot;font-size: 20px;&quot;&gt;&lt;br&gt;&lt;/span&gt;" style="text;html=1;resizable=0;autosize=1;align=center;verticalAlign=middle;points=[];rounded=0;dashed=1;fontFamily=Times New Roman;fontSize=11;strokeWidth=3;" vertex="1" parent="1">
          <mxGeometry x="1366.5" y="130" width="20" height="40" as="geometry" />
        </mxCell>
        <mxCell id="QAr_Sbfl9N1JEadzkFcU-65" value="" style="verticalLabelPosition=bottom;verticalAlign=top;html=1;shape=mxgraph.basic.patternFillRect;fillStyle=auto;step=5;fillStrokeWidth=0.2;fillStrokeColor=#dddddd;gradientDirection=north;shadow=0;sketch=0;strokeWidth=3;" vertex="1" parent="1">
          <mxGeometry x="1401" y="126" width="51" height="47" as="geometry" />
        </mxCell>
        <mxCell id="QAr_Sbfl9N1JEadzkFcU-66" value="" style="verticalLabelPosition=bottom;verticalAlign=top;html=1;shape=mxgraph.basic.patternFillRect;fillStyle=auto;step=5;fillStrokeWidth=0.2;fillStrokeColor=#dddddd;gradientDirection=north;shadow=0;sketch=0;strokeWidth=3;" vertex="1" parent="1">
          <mxGeometry x="1452" y="126" width="51" height="47" as="geometry" />
        </mxCell>
        <mxCell id="QAr_Sbfl9N1JEadzkFcU-67" value="&lt;font style=&quot;font-size: 20px;&quot;&gt;0&lt;/font&gt;" style="text;html=1;resizable=0;autosize=1;align=center;verticalAlign=middle;points=[];rounded=0;dashed=1;fontFamily=Times New Roman;fontSize=11;strokeWidth=3;" vertex="1" parent="1">
          <mxGeometry x="1462.5" y="130" width="30" height="40" as="geometry" />
        </mxCell>
        <mxCell id="QAr_Sbfl9N1JEadzkFcU-68" value="" style="verticalLabelPosition=bottom;verticalAlign=top;html=1;shape=mxgraph.basic.patternFillRect;fillStyle=auto;step=5;fillStrokeWidth=0.2;fillStrokeColor=#dddddd;gradientDirection=north;shadow=0;sketch=0;strokeWidth=3;" vertex="1" parent="1">
          <mxGeometry x="1503" y="126" width="51" height="47" as="geometry" />
        </mxCell>
        <mxCell id="QAr_Sbfl9N1JEadzkFcU-69" value="&lt;span style=&quot;font-size: 20px;&quot;&gt;0&lt;/span&gt;" style="text;html=1;resizable=0;autosize=1;align=center;verticalAlign=middle;points=[];rounded=0;dashed=1;fontFamily=Times New Roman;fontSize=11;strokeWidth=3;" vertex="1" parent="1">
          <mxGeometry x="1513.5" y="130" width="30" height="40" as="geometry" />
        </mxCell>
        <mxCell id="QAr_Sbfl9N1JEadzkFcU-70" value="" style="verticalLabelPosition=bottom;verticalAlign=top;html=1;shape=mxgraph.basic.patternFillRect;fillStyle=auto;step=5;fillStrokeWidth=0.2;fillStrokeColor=#dddddd;gradientDirection=north;shadow=0;sketch=0;strokeWidth=3;" vertex="1" parent="1">
          <mxGeometry x="1554" y="126" width="51" height="47" as="geometry" />
        </mxCell>
        <mxCell id="QAr_Sbfl9N1JEadzkFcU-71" value="" style="verticalLabelPosition=bottom;verticalAlign=top;html=1;shape=mxgraph.basic.patternFillRect;fillStyle=auto;step=5;fillStrokeWidth=0.2;fillStrokeColor=#dddddd;gradientDirection=north;shadow=0;sketch=0;strokeWidth=3;" vertex="1" parent="1">
          <mxGeometry x="1605" y="126" width="51" height="47" as="geometry" />
        </mxCell>
        <mxCell id="QAr_Sbfl9N1JEadzkFcU-72" value="" style="verticalLabelPosition=bottom;verticalAlign=top;html=1;shape=mxgraph.basic.patternFillRect;fillStyle=auto;step=5;fillStrokeWidth=0.2;fillStrokeColor=#dddddd;gradientDirection=north;shadow=0;sketch=0;strokeWidth=3;" vertex="1" parent="1">
          <mxGeometry x="1656" y="126" width="51" height="47" as="geometry" />
        </mxCell>
        <mxCell id="QAr_Sbfl9N1JEadzkFcU-73" value="" style="verticalLabelPosition=bottom;verticalAlign=top;html=1;shape=mxgraph.basic.patternFillRect;fillStyle=auto;step=5;fillStrokeWidth=0.2;fillStrokeColor=#dddddd;gradientDirection=north;shadow=0;sketch=0;strokeWidth=3;" vertex="1" parent="1">
          <mxGeometry x="1707" y="126" width="51" height="47" as="geometry" />
        </mxCell>
        <mxCell id="QAr_Sbfl9N1JEadzkFcU-74" value="&lt;span style=&quot;font-size: 20px;&quot;&gt;0&lt;br&gt;&lt;/span&gt;" style="text;html=1;resizable=0;autosize=1;align=center;verticalAlign=middle;points=[];rounded=0;dashed=1;fontFamily=Times New Roman;fontSize=11;strokeWidth=3;" vertex="1" parent="1">
          <mxGeometry x="1717.5" y="130" width="30" height="40" as="geometry" />
        </mxCell>
        <mxCell id="QAr_Sbfl9N1JEadzkFcU-75" value="" style="shape=image;verticalLabelPosition=bottom;labelBackgroundColor=default;verticalAlign=top;aspect=fixed;imageAspect=0;image=data:image/png,iVBORw0KGgoAAAANSUhEUgAAAC8AAAAwCAYAAACBpyPiAAAAAXNSR0IArs4c6QAAAARnQU1BAACxjwv8YQUAAAAJcEhZcwAADsMAAA7DAcdvqGQAAANlSURBVGhD7ZnLaiJBFIbPzN6I8Q2MG1cuVATJPoG4Fc1aiOQVXLsRX0BcuTOLbBXEnUkgBAR9APMEiuYJnP5r6oSemr5UdfdMI/QHTVdXX+qr8pzqiz9OFnSm/JTrsySRj4tEPi4SeT+enp5oNpvJrej4L/LL5ZLu7u7o8vJSdCQqQsm3Wi3K5/O+QvV6XawPhwONx2NRjoJQ8sfjkbbbLd3f39Pt7a2s/ZtqtSpLRKVSSZbCE0p+v9/LkrdUNpulTCYjyul0WqwjAc82QbBGHM9EYrm6ujrtdju5x5mbmxtx7HQ6lTXhCTzyi8VCloh6vZ4YXR0uLi5kKTyB5QeDgVhboy4SNw4CyWN2QaKCKGaP19fX78UIGT5GcPw2m01Z4w+fA9br9Wk4HIrzrUT+zh0s5XLZN38YY/mXlxfRCBpF0noBCRwPUSS1XVJdcD10sNvtassbv0nhpoSQsYSo0+nIWqLNZkPz+Zy+vr5otVrRx8eHuCmpIEceHh5EuVarUSqVomKxKLaNEV3QBCOIU5ymRoQChwYW/PyPj49iJLnO7dygaMsjRDg+IYAFwn70+/0/5LGNDkWBtjyPKhqfTCai7JewGGE1IVGHjkdxs9KS59FDGABOWnTICz4Px3HnAcR1Et4PX3kWRQwzOvL2MLPnA4Ntk2nRCU95FkBD9kZYHiPrBkIKx3B8q/K4NrZN7hUqrvKQ5RlDxU8eYYH99plFlQdqOJriKg9xTI1OeMlD1h4ujJM8jkUHg3bAUR6NeiWTlzyHC2YkO07ygK8VpAOuI+8FN6hOd3wTc5rH3eQBdxiLSRIHkueYRicYrnMbPZbHr4pfBcLoLETtoYYFZfu13Qgkz4nGDUAIDTqJYx8kObbVhc/hX03d5xW+oeUhBzF7jKMOI2sfTfuC4yGm5gXqnI7HtXBNlUDf5/GlAE+QVqjQ29sbtdttyuVycu9v8JT5/v4unjLBaDQST6N+zannMXgCvb6+llsSyJvCIaATl4xXwgbF+DXw8/Pz+xUwbozln5+fZYmoUCjIkj94OYmawF8PgO7nDuD0VhUWY3krdsXaupmItQ7GXwU0MZbH+6Y1dVGj0ZA1MSIT95+COyiawq0/SkLFvC7IDet5hyqViqyJhuRP5LhI5OMikY+LM5Yn+gUkyL1PcW5FIgAAAABJRU5ErkJggg==;imageBorder=none;" vertex="1" parent="1">
          <mxGeometry x="1252.54" y="128" width="41.13" height="42" as="geometry" />
        </mxCell>
        <mxCell id="QAr_Sbfl9N1JEadzkFcU-76" value="" style="shape=image;verticalLabelPosition=bottom;labelBackgroundColor=default;verticalAlign=top;aspect=fixed;imageAspect=0;image=data:image/png,iVBORw0KGgoAAAANSUhEUgAAAC4AAAAoCAYAAACB4MgqAAAAAXNSR0IArs4c6QAAAARnQU1BAACxjwv8YQUAAAAJcEhZcwAADsMAAA7DAcdvqGQAAAQGSURBVFhH7Zi7SiVNEIDb/wG8ZgYiaiIKgrdEMRC8oImBoIGhIGqqCJoL+gBeUgMvYCQoaqoYeEMjEzU08ooP4M5Xp+tsn9k5Z3rO7u8i6wdN98x091RXV1fVTMFHgPmC/GfrL8e34J/Nt+CfTWLBr6+vzfHxsXl6erJ3Mrm/v7etaHjO+M3NTTM3N2daWlpMQUGBKS0tNYuLi1nn/QXcYRIWFhZwn1LGx8c/Hh8f7ZMU1dXV8qynpyddmpub02PCRftrKSkp+bi6urKzZSex4AjK5PqioaEh+yTFxsZG+hkLY6ErKysfR0dHUu7u7mzPn9BPx1CYP47EggMCuC9yYWF6n34+zM7OZszHYuPIS3BAs2gGMwijpuErOOakQod3MBt5Cw5se9TW83JXcPrs7u6KJtXuWbiiQqOI8JnJxm8Jng09wO5ZcAs7wkKAg6j3fUxE+V/8eFFRkdTDw8Mm0Hq6BJpHUebs7Mz09fVJn4ODA6lhcHDQtjxIyf9nwUSYGm8Rh54Hn74usYKre8MucWs+YNM6JhfajxJ1VnIRKzgTurbqqxnGEFywW9ydHkqdxy1JtQ1eHxJ7e3umv7/fXgVvih8i9n14eGhaW1vlurOzU2qor683hYWF5uTkxMzMzIjtV1VV2aeeILgPbkT0gf4+XsInvEeR6NONBOvm5ka0+bf5N7852QHS03whvV1dXTUTExPp1Ja2T2r7Wxonl97f3zdlZWWSZz88PJja2lq5Vljc+/u7HMS3tzdzcXFhbm9v5UBmI/BIZmdnx7S3t9s7ESB4PuDT3QRLg05UwTXiCnF7HFiuGev6bs1vtMTFgLwEV9/uJkqgL0coFoLH4F7YT6s/dxeu+Q2FueO8TV42HgQUqbu6uqRWBgYGpMZU2OaGhgbT2Ngo/tylqalJ6peXF6nDLC0tydhcJBacYLS1tSUu0bVlwL6jwJ7db1HsHKanp6WGy8tLqbFvH3ebSHBO+8jIiLSnpqakdsmlJQ5uGHfHXl9fpfaNEYkEn5yclO0NbDZriA7yk4xUlfAOeBWXwL4z5sDTQEdHh9RxeAuOf8VEYGxsTOooampqbCsFOUmY09NT093dba9SqHvU3CYOL8HZvuXlZWmjqVwmUVxcbFspysvLbesn7FpbW5u9Svl6YLd8k61YwbFr1TSMjo7aVjR4EZewIERLYCf4AUQhesLz87Pp7e2VXSOSUlBa1E8mr8jJH6f5+XlpB/41rXGNli7r6+uyO5wDoI9r8/mAp2FRLl6Co3U0cX5+npGLuwuKgq1He2i9srJS7mku7hIV2jVVUMJ9vHMVhN/e3v7lYOLX19bWxJ0RWCoqKkxdXV3uPOMP8G+mtX+Tb8E/my8quDE/AGGdYH/JgEHPAAAAAElFTkSuQmCC;" vertex="1" parent="1">
          <mxGeometry x="1303.5" y="131" width="41.4" height="36" as="geometry" />
        </mxCell>
        <mxCell id="QAr_Sbfl9N1JEadzkFcU-77" value="" style="shape=image;verticalLabelPosition=bottom;labelBackgroundColor=default;verticalAlign=top;aspect=fixed;imageAspect=0;image=data:image/png,iVBORw0KGgoAAAANSUhEUgAAACcAAAAtCAYAAAAtOHJTAAAAAXNSR0IArs4c6QAAAARnQU1BAACxjwv8YQUAAAAJcEhZcwAADsMAAA7DAcdvqGQAAAPySURBVFhH7Zg7L21BFMfXudF6dyIiHhUJ8UyERuNVCxrRCVGToFXwATw6HQUloSYKQUiIBhFE5e0DuPu/7sw+s8+ZmWPP3teVG79ksmfPHnuWmbX+a+2T+PCgb8ovcf2W/Bjnyo9xrvz/xp2cnFAikeDW2NhIu7u74klEoHNxsLKyAr302/HxsXjiTmzH2t/fT56B4o7o/f1d9NyJPUNcXV3R/v4+G5sKjh9Gn52d0evrK1VXV1NzczMVFhaKGUFiNe7x8ZHOz8/p7u6Obm5u6Pr62jf2+flZzApSXl5O6+vrVFNTI0aSWI3b3Nyk29tbqqqqEiNEb29vdHp6yn25OIw6ODjgMR0woKKiQtylMz09Ta2treIuidW41dVVGhgYEHd6Ojo6+FpfX0+5ublUUlJCxcXFPKZbMAwZjxU7s7a2xn0sjl3Mzs7WHkPswLi/wcbGxkdfX9+Ht7Pcd8EpIHQiu7e3xxF4eHhI29vbYjTJ5OQkzczMiLvP4WQcsoAaAPA76XMtLS08hsDp6enhPnAxzulYof74U7SHhwcxmo6cMzIyIkbC4exz8CcsvLOzI0aCyH+goaFBjITHOX0NDg6KXhJENvxxbm6OJiYmeAwa54qTz0kKCgr8xVUf9HbLT0nt7e00Pj7O/bBEMm50dJSenp5obGyM76OKbhowzhUEgy0gVC4vL9k/Z2dn2Q+xNBqCBc90RNo5CXzt/v4+kHePjo7o5eWFLi4uyFucx0zk5+fT/Px8WiVjNA4T8dLe3l7WLogskMkepIqtTPB5eXlUV1fHYyiLcnJyuK+C98mgkXgRHkiLRuNQkagiCuTiZWVlVFpa6if5oqIiHguLKuYIoq2trWBtB+NMeNvNfmHSMhvQOZMvSZB38X403VyrzjU1NYleZqBvKLGmpqZ4d2tra3mnOzs7fTdIBTIDsGu6nbcaB99JBQKLrywYgIWhdbgfGhqi5eVlrni97CFm//FLSI4NU5luPVaEPaaoxwrpkMdtkwE8l81UMsn3e0WBGAkSOn3hv/SM4j4kIFMgLC4uUnd3t7jTg2pGh9U4yIaOrq4uvqJ204FvCoBSanh4mPsuWI0zOTLSFHYNAisTPQIBPohWWVnJ8/DVZXoHQHFqI0tctcgd0AGRXlhYoLa2NjZURjYiUEYhBNh0ZMC08z7C97TgMZpO5/DzA3QqClLnEBg6jMdqOw6AnYOiRwHHbuNT0YpPwShAnJEOVTfBmOlXAB+xg1rktkcFWijLJFzVkgkNLqLDurL89owDiDdEWzVKNqOQi+uXoSZ7NFN2AF9unPpZmemTMZZKOCxLS0usf7rf8FT+iXGfJXTi/zqIfgN2W/UMVgcu6AAAAABJRU5ErkJggg==;" vertex="1" parent="1">
          <mxGeometry x="1358" y="128.5" width="34.65" height="40" as="geometry" />
        </mxCell>
        <mxCell id="QAr_Sbfl9N1JEadzkFcU-78" value="" style="shape=image;verticalLabelPosition=bottom;labelBackgroundColor=default;verticalAlign=top;aspect=fixed;imageAspect=0;image=data:image/png,iVBORw0KGgoAAAANSUhEUgAAACsAAAAtCAYAAAA3BJLdAAAAAXNSR0IArs4c6QAAAARnQU1BAACxjwv8YQUAAAAJcEhZcwAADsMAAA7DAcdvqGQAAANUSURBVFhH7ZjBSnJBFMeP3wMUkktpUSsRaaMuok2L7BGC3sAXCPENhPbmTgTRwG1BBW6CFlGhuE2fQImeoO/+zzdHhovXe+69Dh9CPxjGmTs1/3vmnDMzN/XjQVvCH1NvBb9iXfEr1hW/Yl3hVOxsNqPFYmFayXEqdjAYUCaToVKpRK1Wy/QmADuYK+bzOXbHZXl+fjZP4qESO51OeeI4FItFFppOp01PfFRucH19vVzOfr9venXs7e1xXS6XuU6EEb0WWBaWwXCUarVqnoRzfn7Of1Ov101PfFSWPTg4oFqtZlpEzWaTxuOxaenY3d01v+KjzgZXV1fkWdS09Ly+vnK9v7/PdSKMhdXABQ4PD00rHEyBkjQTAOeH71QqxfXd3R3t7OzQy8sLfXx80OPjI319ffEzz6+p2+0ugzEQluyA0Wj0c3Nzs7RsUEHgIggRxGEktiy21KenJ/r+/uby/v7OfipWs/FyLqe/o6MjyufzlMvlwq1pw5ITAAtKepIi1pINASXupmITSSyWCuJWgX4Ekb2cvV6PhUYJyHWoxUKIbAyY3AsY8yQYbAQYf3FxYXqSsVYslg6i/MssgsMQN2g0GqYnGWvFwjKwJiwjVkJBX5gPwh1kPFwEguEWSXxX7QaYUCbHpGFAHMbKCsCN0MaLxrW0WqwECybTAJH+F7NXBy4SFKxBqMWKpeC/YciLQZAfO53hxaMIVotFoGnEwichAmNXCbGfi2DN7gXUYoEsbVCQoF+TAWz/R9GejyOJleXFnu/HFqqZXP6XFA2RxAJY15/kbaFRbgS2YA2RxUKoLRb+BqF4iThnVsnlGiKLRYCJG8D3INxOTy5RiYX1IAi+CCug3sTJPyorz7P45IMz6mQy4RP929ubeULkLTfX3gtw7VmWTk9P6ezsjC+WTmHJPuydBgU+CcvaKQu/kXvF2hgHv0XbP3ZTBN4UcNV+eHig4+NjOjk5Mb3B3N/fU6fTodvbW9Pz72ZQqVSoUChQNptV/Z91bPzCKC7Ubrf5Zf14qxD6debz85PdDGPxvQKfARiIdQUCE5lDdr4oBe7kdyWnYm2Q5hALYcKRGoMON86/G6xC4mE4HLLb4IaLTHJ5ebnWr/+L2Lg4/fK9abZILNFfHBct3T94Rm4AAAAASUVORK5CYII=;" vertex="1" parent="1">
          <mxGeometry x="1407.34" y="128.5" width="38.2" height="40" as="geometry" />
        </mxCell>
        <mxCell id="QAr_Sbfl9N1JEadzkFcU-79" value="" style="shape=image;verticalLabelPosition=bottom;labelBackgroundColor=default;verticalAlign=top;aspect=fixed;imageAspect=0;image=data:image/png,iVBORw0KGgoAAAANSUhEUgAAACYAAAAuCAYAAABEbmvDAAAAAXNSR0IArs4c6QAAAARnQU1BAACxjwv8YQUAAAAJcEhZcwAADsMAAA7DAcdvqGQAAAQwSURBVFhH7Zm/Lm1BFMbXvbktgk4hgoKQEBEVjQKJVoJOoeEFiDeg0YoXoNCSqOn8CQmJAoWIikI8wLn7N9nfMWef2f/IFTfxJSt7n5k1a75Za82a2fyqRLBviN/x89vhh1hZ/BAri/+X2O7url1eXsa/vg65xB4eHmxwcNCmpqa+lGBugb2/v7euri73Pjw8bCcnJ+79o8Dezc2NXV1dud8zMzPW2dnp3msAsTw0NzdDvjI7Oxu3FMPd3V1lf3+/sr6+XpmcnKza8YU29JL4E3XmYmRkxA4PD21oaChueQfhfXt7s+vra3t9fbXz83OLJrLT09NYoxYREZuYmHC2+vv7raen5+MeY7WoHh0dxS3vWFpaqvNCFHrXjqfw2MXFhdNVf8hDSRQitra25gyGiAEmpg8S6EEqBC1wa2srbklHoTrW1NTkng0NDe6ZxMDAgI2OjrqwABJcOD4+rtvNfX198Vs6ShVYCGRBuXJ7e2vLy8vW0tJiY2Njtri46NqFtra2+C0d/6zyd3R02OrqqkVhrisxwWRPIg5pJkhiqZK4Ozs7Lp9CQI9cCkE5VgSlPNbd3e2K7fz8vE1PT7v8CeHl5cUODg6q4WQcbaUQE6wDu4zdGFV7t0oJv/Fg2pb3dVU2tJvLeKxGCyIaHJJC9SfSKxtKyo1qnVCj9fz8XD1CEFZKm59jeUgjhh15Xw5IHlG0oQcKzZYkllZoAXoQyDsjfUEHgbCiUujzbWNjw1ZWVtwZSEIvLCxYY2Nj9YbAGXl2dubqFzo+uJG0trba+Pi4bW9vu7Nyc3PTFeRMOHo5kMdYuY4bSgZtvuAp+jlyQl6VZ4ogl5ifGxD0gdshkBVaH5BKO0eTyAwlZxzHia4wGaqFQN3jvEX29vasvb3d5ubm4t4EIBYCyUvoEOpRhmoN0rynHY/HsCXBi9qJPupmQ4mbKoMgRX1hcBYxyBBmhZynahNjsSN72JZ9BKK5xEhoGcG4tm6IGFtbugg68ixCP1Ae+gUUz6HD+BAp4GZjoG8UUv6ANI8xzg8dZNDTtwFPEfQhjyU3kw83G6vxPZVchYilrQ7Qhw3fC3gLe/5OpA1biCISQtUNkGMFoclFzPcOerQzqcaiQzr4YHLIossYJb9PNoT6+AQQIgaYCI/Qh5AOISgi6CoyWd4CnyIG/NAg6IYmZax0lINZ+DQxhUY6CF5JkpOeJO9LKUiMEMkw7zKWJIZx2pUv9Gt3+7oiRSiViwiew34IqcQwwiTKieRkOsSTScxY6hRPRKUBeyLhew/7Ie+lhlLkZACRYZHKqkN+sQ7VsmRocQL2FKnMHENJxpWwGCSfQvkGIMQkCltoIwjyZlIYm3tR1CUxImK9vb32+PiY+uHLF/jT05PT43JYBNxg+IMN4Iufr3TG5+5KwkfOfDV+/jNSFj/EysHsL1Hc58Odtf99AAAAAElFTkSuQmCC;" vertex="1" parent="1">
          <mxGeometry x="1562.5" y="128.5" width="33.02" height="40" as="geometry" />
        </mxCell>
        <mxCell id="QAr_Sbfl9N1JEadzkFcU-80" value="" style="shape=image;verticalLabelPosition=bottom;labelBackgroundColor=default;verticalAlign=top;aspect=fixed;imageAspect=0;image=data:image/png,iVBORw0KGgoAAAANSUhEUgAAACkAAAAvCAYAAAB+OePrAAAAAXNSR0IArs4c6QAAAARnQU1BAACxjwv8YQUAAAAJcEhZcwAADsMAAA7DAcdvqGQAAALySURBVFhH7Zk7ruowEIZ97g4QPQXQUUCBxAp4iIoO6JCoYAnQ0rABREMNLICCGkpAsABYAXvg5Ped4fpGcZzEPkcU+aSRnTiPPzOesRFfLw/x4fyh9qNJRboiFemKVKQrfkzkeDwWx+ORjixBMXfNZDLBAiEN/efzSSPJcC5yNBq9BbJVq1UaTYYzkdfrVYrxC+x2u6/lcklXJcNaJEI5n8//E9ZsNl/r9do6zIyVSAgpFApvcfDk/X6nUXcYs7vX64npdCputxudEWKz2YhisSj6/b7whNFZITyB1HMMidWC0OEyGOYXPAdD1rLXcJ6vQehdYxS52+3eAiAOCeJHveYnRBrDXavVqCdkiMvlMh39o91ui0wmQ0fuMYrMZrPUC6fRaMj2crnI1iWRlkVvXlJPT6fTke3pdJKtHySemnxxcLZ21+t12SLDH4+H7EMUKgOmSaVSkdZqteRYLGhuhsIZjowOg1cctN4cfScTG86jtsYllkhd5iK7g9ZsGIRhWbQp8olE4oXwiFof/YZrbYSpxJ6TmG+eOLnabLdb4dVOmVieKOF5VB6DXC4n8vm87FtDYkNhT0bZzfBeEmF2RSxPlkol6ukZDoeyRSlytTN3VoIYhBjhB7PZTLa2OBcJBoOBbPf7vRtvUthDwcYClx4OBzpjhu/BfLYlkki8DBZnp40SxfehjtpgFAlh/LIgMK6rh7wCYfWx+SlhFIkQB4nES1GwEU6dAPVeFH4TeE5QmTOKxE2qSBYH74QJZNTf4KZ1G+/iVU3FKJITAMZFHWbabDD4CPUZQTt7RrcBCRWpTn7VTB7xA2G8K0IbJBTzGuNBFUQrUn0wm+4FUVA/GM/xZzzCjLHIIvmrVEMokgpkWAgbtnd4JqYEOySySNyoPgwCTQkSFd2+ky1WuPnLMOldCWTUiuG3WNnNZcY2xDrgMTXr2eBpP1qRvwEipNZRWNBa/xH/iGG3v1qtxPl8llu9xWJBI39J/7ZzRSrSDUJ8A3OillWqUgEuAAAAAElFTkSuQmCC;" vertex="1" parent="1">
          <mxGeometry x="1613.54" y="128.5" width="34.91" height="40" as="geometry" />
        </mxCell>
        <mxCell id="QAr_Sbfl9N1JEadzkFcU-81" value="" style="shape=image;verticalLabelPosition=bottom;labelBackgroundColor=default;verticalAlign=top;aspect=fixed;imageAspect=0;image=data:image/png,iVBORw0KGgoAAAANSUhEUgAAACYAAAArCAYAAAAUo/pwAAAAAXNSR0IArs4c6QAAAARnQU1BAACxjwv8YQUAAAAJcEhZcwAADsMAAA7DAcdvqGQAAAOsSURBVFhH7ZjNLixBFMfP3AcgYlYiFtiRWCA2LEiEWLHiDcQ8grUND+DrBXgAJFgSGyIkEjZErInwAm7/zq0zKaO/qqfdWPgllequqqn+96lzTlVP5SNCfiB/XP3j+BUWyq+wUEoRVqvVZHp6Wra2tuTl5cW1NgnpollWV1dJOVra2to+rq6uXE9xShEGS0tLdXEIbZbSfGx9fV0ice6ueUrP/NfX19LZ2Snt7e3y8PAgx8fH2sb13NycLC4uupEZqN1KAt/a2dnRZe3p6akvrRXa7u/v3eh0cllsYWFBZmdnZXJyUm5vb7Xt/f1dbm5u5PHxUa1xeHio7T6REOnt7ZWJiQnp7++XmZkZ15NNLmFMHr2pu/vM1NSU1oODg9La2qoCWlpapKOjQ+9Z0kIgLIvo4boUIdFmUUr9/PzsWvPzbZl/YGBA642NDXl7e9PrEIKEsUwGy1upVNT/4ujr69Oape7u7tbr09NT3R3wyUyc5VKxpTw5OXEtHxp9tCVNsb+/r338dn5+XncEG0+hP41czj88PCwXFxcSCZPR0VHXGkVOZDGg/ezsTC4vLzVIGBuHWY9lJsLNknHkEmYCeOjd3V09TeA/Pn562N7e1vGRZWRkZCQ8OhGWBgmRYRTMb0vCEg0NDen15ubml8ijn7FFyRSGX5mQRsj09MWlEUThW0XJjEp8B+L8AV+JBOg1kXZwcCBra2t6Nnt9fZWjoyPtK4QTmAhvzTCWKw4/4qixLBYkaps5l2UKs83YTxU+PBwh+GKZpArDoRGVw7CfsCChFD00pj7RkmSWE/MCWHR5eTn2uEP0hpLq/Ht7e1qPj49rbezu7tY/QMhb1WpVxsbGNG+trKxowo1exo3+l6BDSU2wdtyh+FHJlxAn06enJ73v6urSTO4nUYSTgCNryfn5uWsNQO0Wg+WvpGUk6vCfpKCwSE3qzyJRmJ2nEBAH/mf+1JhKbIOPS8p5iRVm2xAPTgOn9w+E1paVYvIQKyzLWo2Yhfhdo9CifBFmvhUa4ibOSuOmHsoXYXZiCN1OzFJWmKe0pcSJmTRpX4wDy+DkJgiBFpF2X2S7qgvDQkyY1zcQRLowETi8WYg+s7wvMMSCKswmyiOKt2fr8QXFBQlzMp8vzsbze9INY5JQYQxMi0CsyfKaFRBF4mXyLLBqozi/4Ab2fN+vBdVpPkAfkyOMpQgNCuB3ltvSCi9uBsr1MVIWnHD5kPFhn+XfIf/rC/6rsBC+7S+C5hD5C7m28rHBhdGHAAAAAElFTkSuQmCC;" vertex="1" parent="1">
          <mxGeometry x="1665.82" y="128" width="34.48" height="39" as="geometry" />
        </mxCell>
        <mxCell id="QAr_Sbfl9N1JEadzkFcU-82" value="" style="whiteSpace=wrap;html=1;aspect=fixed;fillColor=none;" vertex="1" parent="1">
          <mxGeometry x="1256.42" y="132" width="34.5" height="34.5" as="geometry" />
        </mxCell>
        <mxCell id="QAr_Sbfl9N1JEadzkFcU-83" value="" style="whiteSpace=wrap;html=1;aspect=fixed;fillColor=none;" vertex="1" parent="1">
          <mxGeometry x="1308.42" y="132" width="34.5" height="34.5" as="geometry" />
        </mxCell>
        <mxCell id="QAr_Sbfl9N1JEadzkFcU-84" value="" style="whiteSpace=wrap;html=1;aspect=fixed;fillColor=none;" vertex="1" parent="1">
          <mxGeometry x="1358.42" y="132" width="34.5" height="34.5" as="geometry" />
        </mxCell>
        <mxCell id="QAr_Sbfl9N1JEadzkFcU-85" value="" style="whiteSpace=wrap;html=1;aspect=fixed;fillColor=none;" vertex="1" parent="1">
          <mxGeometry x="1409.42" y="132" width="34.5" height="34.5" as="geometry" />
        </mxCell>
        <mxCell id="QAr_Sbfl9N1JEadzkFcU-86" value="" style="whiteSpace=wrap;html=1;aspect=fixed;fillColor=none;" vertex="1" parent="1">
          <mxGeometry x="1562.42" y="132" width="34.5" height="34.5" as="geometry" />
        </mxCell>
        <mxCell id="QAr_Sbfl9N1JEadzkFcU-87" value="" style="whiteSpace=wrap;html=1;aspect=fixed;fillColor=none;" vertex="1" parent="1">
          <mxGeometry x="1613.42" y="132" width="34.5" height="34.5" as="geometry" />
        </mxCell>
        <mxCell id="QAr_Sbfl9N1JEadzkFcU-88" value="" style="whiteSpace=wrap;html=1;aspect=fixed;fillColor=none;" vertex="1" parent="1">
          <mxGeometry x="1664.42" y="132" width="34.5" height="34.5" as="geometry" />
        </mxCell>
        <mxCell id="QAr_Sbfl9N1JEadzkFcU-89" value="&lt;font style=&quot;font-size: 30px;&quot;&gt;pre-trained glyph embedding lookup table&lt;/font&gt;" style="rounded=0;whiteSpace=wrap;html=1;fontFamily=Times New Roman;fontSize=30;strokeWidth=3;" vertex="1" parent="1">
          <mxGeometry x="1202" y="210.5" width="556.54" height="60" as="geometry" />
        </mxCell>
        <mxCell id="QAr_Sbfl9N1JEadzkFcU-90" value="" style="verticalLabelPosition=bottom;verticalAlign=top;html=1;shape=mxgraph.basic.patternFillRect;fillStyle=auto;step=5;fillStrokeWidth=0.2;fillStrokeColor=#dddddd;gradientDirection=north;strokeColor=#b85450;shadow=0;sketch=0;fillColor=#f8cecc;strokeWidth=3;" vertex="1" parent="1">
          <mxGeometry x="1200.54" y="308.5" width="51" height="47" as="geometry" />
        </mxCell>
        <mxCell id="QAr_Sbfl9N1JEadzkFcU-91" value="" style="verticalLabelPosition=bottom;verticalAlign=top;html=1;shape=mxgraph.basic.patternFillRect;fillStyle=auto;step=5;fillStrokeWidth=0.2;fillStrokeColor=#dddddd;gradientDirection=north;strokeColor=#b85450;shadow=0;sketch=0;fillColor=#f8cecc;strokeWidth=3;" vertex="1" parent="1">
          <mxGeometry x="1251.54" y="308.5" width="51" height="47" as="geometry" />
        </mxCell>
        <mxCell id="QAr_Sbfl9N1JEadzkFcU-92" value="" style="verticalLabelPosition=bottom;verticalAlign=top;html=1;shape=mxgraph.basic.patternFillRect;fillStyle=auto;step=5;fillStrokeWidth=0.2;fillStrokeColor=#dddddd;gradientDirection=north;strokeColor=#b85450;shadow=0;sketch=0;fillColor=#f8cecc;strokeWidth=3;" vertex="1" parent="1">
          <mxGeometry x="1302.54" y="308.5" width="51" height="47" as="geometry" />
        </mxCell>
        <mxCell id="QAr_Sbfl9N1JEadzkFcU-93" value="" style="verticalLabelPosition=bottom;verticalAlign=top;html=1;shape=mxgraph.basic.patternFillRect;fillStyle=auto;step=5;fillStrokeWidth=0.2;fillStrokeColor=#dddddd;gradientDirection=north;strokeColor=#b85450;shadow=0;sketch=0;fillColor=#f8cecc;strokeWidth=3;" vertex="1" parent="1">
          <mxGeometry x="1353.54" y="308.5" width="51" height="47" as="geometry" />
        </mxCell>
        <mxCell id="QAr_Sbfl9N1JEadzkFcU-94" value="" style="verticalLabelPosition=bottom;verticalAlign=top;html=1;shape=mxgraph.basic.patternFillRect;fillStyle=auto;step=5;fillStrokeWidth=0.2;fillStrokeColor=#dddddd;gradientDirection=north;strokeColor=#b85450;shadow=0;sketch=0;fillColor=#f8cecc;strokeWidth=3;" vertex="1" parent="1">
          <mxGeometry x="1404.54" y="308.5" width="51" height="47" as="geometry" />
        </mxCell>
        <mxCell id="QAr_Sbfl9N1JEadzkFcU-95" value="" style="verticalLabelPosition=bottom;verticalAlign=top;html=1;shape=mxgraph.basic.patternFillRect;fillStyle=auto;step=5;fillStrokeWidth=0.2;fillStrokeColor=#dddddd;gradientDirection=north;strokeColor=#b85450;shadow=0;sketch=0;fillColor=#f8cecc;strokeWidth=3;" vertex="1" parent="1">
          <mxGeometry x="1455.54" y="308.5" width="51" height="47" as="geometry" />
        </mxCell>
        <mxCell id="QAr_Sbfl9N1JEadzkFcU-96" value="" style="verticalLabelPosition=bottom;verticalAlign=top;html=1;shape=mxgraph.basic.patternFillRect;fillStyle=auto;step=5;fillStrokeWidth=0.2;fillStrokeColor=#dddddd;gradientDirection=north;strokeColor=#b85450;shadow=0;sketch=0;fillColor=#f8cecc;strokeWidth=3;" vertex="1" parent="1">
          <mxGeometry x="1506.54" y="308.5" width="51" height="47" as="geometry" />
        </mxCell>
        <mxCell id="QAr_Sbfl9N1JEadzkFcU-97" value="" style="verticalLabelPosition=bottom;verticalAlign=top;html=1;shape=mxgraph.basic.patternFillRect;fillStyle=auto;step=5;fillStrokeWidth=0.2;fillStrokeColor=#dddddd;gradientDirection=north;strokeColor=#b85450;shadow=0;sketch=0;fillColor=#f8cecc;strokeWidth=3;" vertex="1" parent="1">
          <mxGeometry x="1557.54" y="308.5" width="51" height="47" as="geometry" />
        </mxCell>
        <mxCell id="QAr_Sbfl9N1JEadzkFcU-98" value="" style="verticalLabelPosition=bottom;verticalAlign=top;html=1;shape=mxgraph.basic.patternFillRect;fillStyle=auto;step=5;fillStrokeWidth=0.2;fillStrokeColor=#dddddd;gradientDirection=north;strokeColor=#b85450;shadow=0;sketch=0;fillColor=#f8cecc;strokeWidth=3;" vertex="1" parent="1">
          <mxGeometry x="1608.54" y="308.5" width="51" height="47" as="geometry" />
        </mxCell>
        <mxCell id="QAr_Sbfl9N1JEadzkFcU-99" value="" style="verticalLabelPosition=bottom;verticalAlign=top;html=1;shape=mxgraph.basic.patternFillRect;fillStyle=auto;step=5;fillStrokeWidth=0.2;fillStrokeColor=#dddddd;gradientDirection=north;strokeColor=#b85450;shadow=0;sketch=0;fillColor=#f8cecc;strokeWidth=3;" vertex="1" parent="1">
          <mxGeometry x="1659.54" y="308.5" width="51" height="47" as="geometry" />
        </mxCell>
        <mxCell id="QAr_Sbfl9N1JEadzkFcU-100" value="" style="verticalLabelPosition=bottom;verticalAlign=top;html=1;shape=mxgraph.basic.patternFillRect;fillStyle=auto;step=5;fillStrokeWidth=0.2;fillStrokeColor=#dddddd;gradientDirection=north;strokeColor=#b85450;shadow=0;sketch=0;fillColor=#f8cecc;strokeWidth=3;" vertex="1" parent="1">
          <mxGeometry x="1710.54" y="308.5" width="51" height="47" as="geometry" />
        </mxCell>
        <mxCell id="QAr_Sbfl9N1JEadzkFcU-101" value="" style="verticalLabelPosition=bottom;verticalAlign=top;html=1;shape=mxgraph.basic.patternFillRect;fillStyle=auto;step=5;fillStrokeWidth=0.2;fillStrokeColor=#dddddd;gradientDirection=north;strokeColor=#82b366;shadow=0;sketch=0;fillColor=#d5e8d4;strokeWidth=3;" vertex="1" parent="1">
          <mxGeometry x="587.96" y="311" width="51" height="47" as="geometry" />
        </mxCell>
        <mxCell id="QAr_Sbfl9N1JEadzkFcU-102" value="" style="verticalLabelPosition=bottom;verticalAlign=top;html=1;shape=mxgraph.basic.patternFillRect;fillStyle=auto;step=5;fillStrokeWidth=0.2;fillStrokeColor=#dddddd;gradientDirection=north;strokeColor=#82b366;shadow=0;sketch=0;fillColor=#d5e8d4;strokeWidth=3;" vertex="1" parent="1">
          <mxGeometry x="638.96" y="311" width="51" height="47" as="geometry" />
        </mxCell>
        <mxCell id="QAr_Sbfl9N1JEadzkFcU-103" value="" style="verticalLabelPosition=bottom;verticalAlign=top;html=1;shape=mxgraph.basic.patternFillRect;fillStyle=auto;step=5;fillStrokeWidth=0.2;fillStrokeColor=#dddddd;gradientDirection=north;strokeColor=#82b366;shadow=0;sketch=0;fillColor=#d5e8d4;strokeWidth=3;" vertex="1" parent="1">
          <mxGeometry x="689.96" y="311" width="51" height="47" as="geometry" />
        </mxCell>
        <mxCell id="QAr_Sbfl9N1JEadzkFcU-104" value="" style="verticalLabelPosition=bottom;verticalAlign=top;html=1;shape=mxgraph.basic.patternFillRect;fillStyle=auto;step=5;fillStrokeWidth=0.2;fillStrokeColor=#dddddd;gradientDirection=north;strokeColor=#82b366;shadow=0;sketch=0;fillColor=#d5e8d4;strokeWidth=3;" vertex="1" parent="1">
          <mxGeometry x="740.96" y="311" width="51" height="47" as="geometry" />
        </mxCell>
        <mxCell id="QAr_Sbfl9N1JEadzkFcU-105" value="" style="verticalLabelPosition=bottom;verticalAlign=top;html=1;shape=mxgraph.basic.patternFillRect;fillStyle=auto;step=5;fillStrokeWidth=0.2;fillStrokeColor=#dddddd;gradientDirection=north;strokeColor=#82b366;shadow=0;sketch=0;fillColor=#d5e8d4;strokeWidth=3;" vertex="1" parent="1">
          <mxGeometry x="791.96" y="311" width="51" height="47" as="geometry" />
        </mxCell>
        <mxCell id="QAr_Sbfl9N1JEadzkFcU-106" value="" style="verticalLabelPosition=bottom;verticalAlign=top;html=1;shape=mxgraph.basic.patternFillRect;fillStyle=auto;step=5;fillStrokeWidth=0.2;fillStrokeColor=#dddddd;gradientDirection=north;strokeColor=#82b366;shadow=0;sketch=0;fillColor=#d5e8d4;strokeWidth=3;" vertex="1" parent="1">
          <mxGeometry x="842.96" y="311" width="51" height="47" as="geometry" />
        </mxCell>
        <mxCell id="QAr_Sbfl9N1JEadzkFcU-107" value="" style="verticalLabelPosition=bottom;verticalAlign=top;html=1;shape=mxgraph.basic.patternFillRect;fillStyle=auto;step=5;fillStrokeWidth=0.2;fillStrokeColor=#dddddd;gradientDirection=north;strokeColor=#82b366;shadow=0;sketch=0;fillColor=#d5e8d4;strokeWidth=3;" vertex="1" parent="1">
          <mxGeometry x="893.96" y="311" width="51" height="47" as="geometry" />
        </mxCell>
        <mxCell id="QAr_Sbfl9N1JEadzkFcU-108" value="" style="verticalLabelPosition=bottom;verticalAlign=top;html=1;shape=mxgraph.basic.patternFillRect;fillStyle=auto;step=5;fillStrokeWidth=0.2;fillStrokeColor=#dddddd;gradientDirection=north;strokeColor=#82b366;shadow=0;sketch=0;fillColor=#d5e8d4;strokeWidth=3;" vertex="1" parent="1">
          <mxGeometry x="944.96" y="311" width="51" height="47" as="geometry" />
        </mxCell>
        <mxCell id="QAr_Sbfl9N1JEadzkFcU-109" value="" style="verticalLabelPosition=bottom;verticalAlign=top;html=1;shape=mxgraph.basic.patternFillRect;fillStyle=auto;step=5;fillStrokeWidth=0.2;fillStrokeColor=#dddddd;gradientDirection=north;strokeColor=#82b366;shadow=0;sketch=0;fillColor=#d5e8d4;strokeWidth=3;" vertex="1" parent="1">
          <mxGeometry x="995.96" y="311" width="51" height="47" as="geometry" />
        </mxCell>
        <mxCell id="QAr_Sbfl9N1JEadzkFcU-110" value="" style="verticalLabelPosition=bottom;verticalAlign=top;html=1;shape=mxgraph.basic.patternFillRect;fillStyle=auto;step=5;fillStrokeWidth=0.2;fillStrokeColor=#dddddd;gradientDirection=north;strokeColor=#82b366;shadow=0;sketch=0;fillColor=#d5e8d4;strokeWidth=3;" vertex="1" parent="1">
          <mxGeometry x="1046.96" y="311" width="51" height="47" as="geometry" />
        </mxCell>
        <mxCell id="QAr_Sbfl9N1JEadzkFcU-111" value="" style="verticalLabelPosition=bottom;verticalAlign=top;html=1;shape=mxgraph.basic.patternFillRect;fillStyle=auto;step=5;fillStrokeWidth=0.2;fillStrokeColor=#dddddd;gradientDirection=north;strokeColor=#82b366;shadow=0;sketch=0;fillColor=#d5e8d4;strokeWidth=3;" vertex="1" parent="1">
          <mxGeometry x="1097.96" y="311" width="51" height="47" as="geometry" />
        </mxCell>
        <mxCell id="QAr_Sbfl9N1JEadzkFcU-112" style="rounded=0;orthogonalLoop=1;jettySize=auto;html=1;fontSize=30;endArrow=none;endFill=0;exitX=0.5;exitY=1;exitDx=0;exitDy=0;entryX=0.5;entryY=0;entryDx=0;entryDy=0;fillColor=#dae8fc;strokeColor=#6c8ebf;" edge="1" parent="1" source="QAr_Sbfl9N1JEadzkFcU-123" target="QAr_Sbfl9N1JEadzkFcU-306">
          <mxGeometry relative="1" as="geometry" />
        </mxCell>
        <mxCell id="QAr_Sbfl9N1JEadzkFcU-113" style="edgeStyle=none;rounded=0;orthogonalLoop=1;jettySize=auto;html=1;exitX=0.5;exitY=1;exitDx=0;exitDy=0;entryX=0.5;entryY=0;entryDx=0;entryDy=0;fontSize=30;endArrow=none;endFill=0;fillColor=#dae8fc;strokeColor=#6c8ebf;" edge="1" parent="1" source="QAr_Sbfl9N1JEadzkFcU-123" target="QAr_Sbfl9N1JEadzkFcU-307">
          <mxGeometry relative="1" as="geometry" />
        </mxCell>
        <mxCell id="QAr_Sbfl9N1JEadzkFcU-114" style="edgeStyle=none;rounded=0;orthogonalLoop=1;jettySize=auto;html=1;exitX=0.5;exitY=1;exitDx=0;exitDy=0;entryX=0.5;entryY=0;entryDx=0;entryDy=0;fontSize=30;endArrow=none;endFill=0;fillColor=#dae8fc;strokeColor=#6c8ebf;" edge="1" parent="1" source="QAr_Sbfl9N1JEadzkFcU-123" target="QAr_Sbfl9N1JEadzkFcU-308">
          <mxGeometry relative="1" as="geometry" />
        </mxCell>
        <mxCell id="QAr_Sbfl9N1JEadzkFcU-115" style="edgeStyle=none;rounded=0;orthogonalLoop=1;jettySize=auto;html=1;exitX=0.5;exitY=1;exitDx=0;exitDy=0;entryX=0.5;entryY=0;entryDx=0;entryDy=0;fontSize=30;endArrow=none;endFill=0;fillColor=#dae8fc;strokeColor=#6c8ebf;" edge="1" parent="1" source="QAr_Sbfl9N1JEadzkFcU-123" target="QAr_Sbfl9N1JEadzkFcU-309">
          <mxGeometry relative="1" as="geometry" />
        </mxCell>
        <mxCell id="QAr_Sbfl9N1JEadzkFcU-116" style="edgeStyle=none;rounded=0;orthogonalLoop=1;jettySize=auto;html=1;exitX=0.5;exitY=1;exitDx=0;exitDy=0;entryX=0.5;entryY=0;entryDx=0;entryDy=0;fontSize=30;endArrow=none;endFill=0;fillColor=#dae8fc;strokeColor=#6c8ebf;" edge="1" parent="1" source="QAr_Sbfl9N1JEadzkFcU-123" target="QAr_Sbfl9N1JEadzkFcU-310">
          <mxGeometry relative="1" as="geometry" />
        </mxCell>
        <mxCell id="QAr_Sbfl9N1JEadzkFcU-117" style="edgeStyle=none;rounded=0;orthogonalLoop=1;jettySize=auto;html=1;exitX=0.5;exitY=1;exitDx=0;exitDy=0;entryX=0.5;entryY=0;entryDx=0;entryDy=0;fontSize=30;endArrow=none;endFill=0;fillColor=#dae8fc;strokeColor=#6c8ebf;" edge="1" parent="1" source="QAr_Sbfl9N1JEadzkFcU-123" target="QAr_Sbfl9N1JEadzkFcU-311">
          <mxGeometry relative="1" as="geometry" />
        </mxCell>
        <mxCell id="QAr_Sbfl9N1JEadzkFcU-118" style="edgeStyle=none;rounded=0;orthogonalLoop=1;jettySize=auto;html=1;exitX=0.5;exitY=1;exitDx=0;exitDy=0;entryX=0.5;entryY=0;entryDx=0;entryDy=0;fontSize=30;endArrow=none;endFill=0;fillColor=#dae8fc;strokeColor=#6c8ebf;" edge="1" parent="1" source="QAr_Sbfl9N1JEadzkFcU-123" target="QAr_Sbfl9N1JEadzkFcU-312">
          <mxGeometry relative="1" as="geometry" />
        </mxCell>
        <mxCell id="QAr_Sbfl9N1JEadzkFcU-119" style="edgeStyle=none;rounded=0;orthogonalLoop=1;jettySize=auto;html=1;exitX=0.5;exitY=1;exitDx=0;exitDy=0;entryX=0.5;entryY=0;entryDx=0;entryDy=0;fontSize=30;endArrow=none;endFill=0;fillColor=#dae8fc;strokeColor=#6c8ebf;" edge="1" parent="1" source="QAr_Sbfl9N1JEadzkFcU-123" target="QAr_Sbfl9N1JEadzkFcU-313">
          <mxGeometry relative="1" as="geometry" />
        </mxCell>
        <mxCell id="QAr_Sbfl9N1JEadzkFcU-120" style="edgeStyle=none;rounded=0;orthogonalLoop=1;jettySize=auto;html=1;exitX=0.5;exitY=1;exitDx=0;exitDy=0;entryX=0.5;entryY=0;entryDx=0;entryDy=0;fontSize=30;endArrow=none;endFill=0;fillColor=#dae8fc;strokeColor=#6c8ebf;" edge="1" parent="1" source="QAr_Sbfl9N1JEadzkFcU-123" target="QAr_Sbfl9N1JEadzkFcU-314">
          <mxGeometry relative="1" as="geometry" />
        </mxCell>
        <mxCell id="QAr_Sbfl9N1JEadzkFcU-121" style="edgeStyle=none;rounded=0;orthogonalLoop=1;jettySize=auto;html=1;exitX=0.5;exitY=1;exitDx=0;exitDy=0;entryX=0.5;entryY=0;entryDx=0;entryDy=0;fontSize=30;endArrow=none;endFill=0;fillColor=#dae8fc;strokeColor=#6c8ebf;" edge="1" parent="1" source="QAr_Sbfl9N1JEadzkFcU-123" target="QAr_Sbfl9N1JEadzkFcU-315">
          <mxGeometry relative="1" as="geometry" />
        </mxCell>
        <mxCell id="QAr_Sbfl9N1JEadzkFcU-122" style="edgeStyle=none;rounded=0;orthogonalLoop=1;jettySize=auto;html=1;exitX=0.5;exitY=1;exitDx=0;exitDy=0;entryX=0.5;entryY=0;entryDx=0;entryDy=0;fontSize=30;endArrow=none;endFill=0;fillColor=#dae8fc;strokeColor=#6c8ebf;" edge="1" parent="1" source="QAr_Sbfl9N1JEadzkFcU-123" target="QAr_Sbfl9N1JEadzkFcU-316">
          <mxGeometry relative="1" as="geometry" />
        </mxCell>
        <mxCell id="QAr_Sbfl9N1JEadzkFcU-123" value="" style="ellipse;whiteSpace=wrap;html=1;aspect=fixed;fillColor=#dae8fc;strokeWidth=2;strokeColor=#6c8ebf;" vertex="1" parent="1">
          <mxGeometry x="322.88" y="480" width="40" height="40" as="geometry" />
        </mxCell>
        <mxCell id="QAr_Sbfl9N1JEadzkFcU-124" style="edgeStyle=none;rounded=0;orthogonalLoop=1;jettySize=auto;html=1;exitX=0.5;exitY=1;exitDx=0;exitDy=0;entryX=0.5;entryY=0;entryDx=0;entryDy=0;fontSize=30;endArrow=none;endFill=0;fillColor=#dae8fc;strokeColor=#6c8ebf;" edge="1" parent="1" source="QAr_Sbfl9N1JEadzkFcU-135" target="QAr_Sbfl9N1JEadzkFcU-306">
          <mxGeometry relative="1" as="geometry" />
        </mxCell>
        <mxCell id="QAr_Sbfl9N1JEadzkFcU-125" style="edgeStyle=none;rounded=0;orthogonalLoop=1;jettySize=auto;html=1;exitX=0.5;exitY=1;exitDx=0;exitDy=0;entryX=0.5;entryY=0;entryDx=0;entryDy=0;fontSize=30;endArrow=none;endFill=0;fillColor=#dae8fc;strokeColor=#6c8ebf;" edge="1" parent="1" source="QAr_Sbfl9N1JEadzkFcU-135" target="QAr_Sbfl9N1JEadzkFcU-307">
          <mxGeometry relative="1" as="geometry" />
        </mxCell>
        <mxCell id="QAr_Sbfl9N1JEadzkFcU-126" style="edgeStyle=none;rounded=0;orthogonalLoop=1;jettySize=auto;html=1;exitX=0.5;exitY=1;exitDx=0;exitDy=0;fontSize=30;endArrow=none;endFill=0;entryX=0.5;entryY=0;entryDx=0;entryDy=0;fillColor=#dae8fc;strokeColor=#6c8ebf;" edge="1" parent="1" source="QAr_Sbfl9N1JEadzkFcU-135" target="QAr_Sbfl9N1JEadzkFcU-308">
          <mxGeometry relative="1" as="geometry">
            <mxPoint x="685" y="730" as="targetPoint" />
          </mxGeometry>
        </mxCell>
        <mxCell id="QAr_Sbfl9N1JEadzkFcU-127" style="edgeStyle=none;rounded=0;orthogonalLoop=1;jettySize=auto;html=1;exitX=0.5;exitY=1;exitDx=0;exitDy=0;entryX=0.5;entryY=0;entryDx=0;entryDy=0;fontSize=30;endArrow=none;endFill=0;fillColor=#dae8fc;strokeColor=#6c8ebf;" edge="1" parent="1" source="QAr_Sbfl9N1JEadzkFcU-135" target="QAr_Sbfl9N1JEadzkFcU-309">
          <mxGeometry relative="1" as="geometry" />
        </mxCell>
        <mxCell id="QAr_Sbfl9N1JEadzkFcU-128" style="edgeStyle=none;rounded=0;orthogonalLoop=1;jettySize=auto;html=1;exitX=0.5;exitY=1;exitDx=0;exitDy=0;fontSize=30;endArrow=none;endFill=0;entryX=0.5;entryY=0;entryDx=0;entryDy=0;fillColor=#dae8fc;strokeColor=#6c8ebf;" edge="1" parent="1" source="QAr_Sbfl9N1JEadzkFcU-135" target="QAr_Sbfl9N1JEadzkFcU-310">
          <mxGeometry relative="1" as="geometry">
            <mxPoint x="831.9999999999995" y="710" as="targetPoint" />
          </mxGeometry>
        </mxCell>
        <mxCell id="QAr_Sbfl9N1JEadzkFcU-129" style="edgeStyle=none;rounded=0;orthogonalLoop=1;jettySize=auto;html=1;exitX=0.5;exitY=1;exitDx=0;exitDy=0;entryX=0.5;entryY=0;entryDx=0;entryDy=0;fontSize=30;endArrow=none;endFill=0;fillColor=#dae8fc;strokeColor=#6c8ebf;" edge="1" parent="1" source="QAr_Sbfl9N1JEadzkFcU-135" target="QAr_Sbfl9N1JEadzkFcU-311">
          <mxGeometry relative="1" as="geometry" />
        </mxCell>
        <mxCell id="QAr_Sbfl9N1JEadzkFcU-130" style="edgeStyle=none;rounded=0;orthogonalLoop=1;jettySize=auto;html=1;exitX=0.5;exitY=1;exitDx=0;exitDy=0;entryX=0.5;entryY=0;entryDx=0;entryDy=0;fontSize=30;endArrow=none;endFill=0;fillColor=#dae8fc;strokeColor=#6c8ebf;" edge="1" parent="1" source="QAr_Sbfl9N1JEadzkFcU-135" target="QAr_Sbfl9N1JEadzkFcU-312">
          <mxGeometry relative="1" as="geometry" />
        </mxCell>
        <mxCell id="QAr_Sbfl9N1JEadzkFcU-131" style="edgeStyle=none;rounded=0;orthogonalLoop=1;jettySize=auto;html=1;exitX=0.5;exitY=1;exitDx=0;exitDy=0;entryX=0.5;entryY=0;entryDx=0;entryDy=0;fontSize=30;endArrow=none;endFill=0;fillColor=#dae8fc;strokeColor=#6c8ebf;" edge="1" parent="1" source="QAr_Sbfl9N1JEadzkFcU-135" target="QAr_Sbfl9N1JEadzkFcU-313">
          <mxGeometry relative="1" as="geometry" />
        </mxCell>
        <mxCell id="QAr_Sbfl9N1JEadzkFcU-132" style="edgeStyle=none;rounded=0;orthogonalLoop=1;jettySize=auto;html=1;exitX=0.5;exitY=1;exitDx=0;exitDy=0;entryX=0.5;entryY=0;entryDx=0;entryDy=0;fontSize=30;endArrow=none;endFill=0;fillColor=#dae8fc;strokeColor=#6c8ebf;" edge="1" parent="1" source="QAr_Sbfl9N1JEadzkFcU-135" target="QAr_Sbfl9N1JEadzkFcU-314">
          <mxGeometry relative="1" as="geometry" />
        </mxCell>
        <mxCell id="QAr_Sbfl9N1JEadzkFcU-133" style="edgeStyle=none;rounded=0;orthogonalLoop=1;jettySize=auto;html=1;exitX=0.5;exitY=1;exitDx=0;exitDy=0;entryX=0.5;entryY=0;entryDx=0;entryDy=0;fontSize=30;endArrow=none;endFill=0;fillColor=#dae8fc;strokeColor=#6c8ebf;" edge="1" parent="1" source="QAr_Sbfl9N1JEadzkFcU-135" target="QAr_Sbfl9N1JEadzkFcU-315">
          <mxGeometry relative="1" as="geometry" />
        </mxCell>
        <mxCell id="QAr_Sbfl9N1JEadzkFcU-134" style="edgeStyle=none;rounded=0;orthogonalLoop=1;jettySize=auto;html=1;exitX=0.5;exitY=1;exitDx=0;exitDy=0;entryX=0.5;entryY=0;entryDx=0;entryDy=0;fontSize=30;endArrow=none;endFill=0;fillColor=#dae8fc;strokeColor=#6c8ebf;" edge="1" parent="1" source="QAr_Sbfl9N1JEadzkFcU-135" target="QAr_Sbfl9N1JEadzkFcU-316">
          <mxGeometry relative="1" as="geometry" />
        </mxCell>
        <mxCell id="QAr_Sbfl9N1JEadzkFcU-135" value="" style="ellipse;whiteSpace=wrap;html=1;aspect=fixed;fillColor=#dae8fc;strokeWidth=2;strokeColor=#6c8ebf;" vertex="1" parent="1">
          <mxGeometry x="396.38" y="480" width="40" height="40" as="geometry" />
        </mxCell>
        <mxCell id="QAr_Sbfl9N1JEadzkFcU-136" style="edgeStyle=none;rounded=0;orthogonalLoop=1;jettySize=auto;html=1;exitX=0.5;exitY=1;exitDx=0;exitDy=0;fontSize=30;endArrow=none;endFill=0;entryX=0.5;entryY=0;entryDx=0;entryDy=0;fillColor=#dae8fc;strokeColor=#6c8ebf;" edge="1" parent="1" source="QAr_Sbfl9N1JEadzkFcU-147" target="QAr_Sbfl9N1JEadzkFcU-306">
          <mxGeometry relative="1" as="geometry">
            <mxPoint x="555" y="670" as="targetPoint" />
          </mxGeometry>
        </mxCell>
        <mxCell id="QAr_Sbfl9N1JEadzkFcU-137" style="edgeStyle=none;rounded=0;orthogonalLoop=1;jettySize=auto;html=1;exitX=0.5;exitY=1;exitDx=0;exitDy=0;fontSize=30;endArrow=none;endFill=0;entryX=0.5;entryY=0;entryDx=0;entryDy=0;fillColor=#dae8fc;strokeColor=#6c8ebf;" edge="1" parent="1" source="QAr_Sbfl9N1JEadzkFcU-147" target="QAr_Sbfl9N1JEadzkFcU-307">
          <mxGeometry relative="1" as="geometry">
            <mxPoint x="615" y="670" as="targetPoint" />
          </mxGeometry>
        </mxCell>
        <mxCell id="QAr_Sbfl9N1JEadzkFcU-138" style="edgeStyle=none;rounded=0;orthogonalLoop=1;jettySize=auto;html=1;exitX=0.5;exitY=1;exitDx=0;exitDy=0;entryX=0.5;entryY=0;entryDx=0;entryDy=0;fontSize=30;endArrow=none;endFill=0;fillColor=#dae8fc;strokeColor=#6c8ebf;" edge="1" parent="1" source="QAr_Sbfl9N1JEadzkFcU-147" target="QAr_Sbfl9N1JEadzkFcU-308">
          <mxGeometry relative="1" as="geometry" />
        </mxCell>
        <mxCell id="QAr_Sbfl9N1JEadzkFcU-139" style="edgeStyle=none;rounded=0;orthogonalLoop=1;jettySize=auto;html=1;exitX=0.5;exitY=1;exitDx=0;exitDy=0;entryX=0.5;entryY=0;entryDx=0;entryDy=0;fontSize=30;endArrow=none;endFill=0;fillColor=#dae8fc;strokeColor=#6c8ebf;" edge="1" parent="1" source="QAr_Sbfl9N1JEadzkFcU-147" target="QAr_Sbfl9N1JEadzkFcU-309">
          <mxGeometry relative="1" as="geometry" />
        </mxCell>
        <mxCell id="QAr_Sbfl9N1JEadzkFcU-140" style="edgeStyle=none;rounded=0;orthogonalLoop=1;jettySize=auto;html=1;exitX=0.5;exitY=1;exitDx=0;exitDy=0;entryX=0.5;entryY=0;entryDx=0;entryDy=0;fontSize=30;endArrow=none;endFill=0;fillColor=#dae8fc;strokeColor=#6c8ebf;" edge="1" parent="1" source="QAr_Sbfl9N1JEadzkFcU-147" target="QAr_Sbfl9N1JEadzkFcU-310">
          <mxGeometry relative="1" as="geometry" />
        </mxCell>
        <mxCell id="QAr_Sbfl9N1JEadzkFcU-141" style="edgeStyle=none;rounded=0;orthogonalLoop=1;jettySize=auto;html=1;exitX=0.5;exitY=1;exitDx=0;exitDy=0;entryX=0.5;entryY=0;entryDx=0;entryDy=0;fontSize=30;endArrow=none;endFill=0;fillColor=#dae8fc;strokeColor=#6c8ebf;" edge="1" parent="1" source="QAr_Sbfl9N1JEadzkFcU-147" target="QAr_Sbfl9N1JEadzkFcU-311">
          <mxGeometry relative="1" as="geometry" />
        </mxCell>
        <mxCell id="QAr_Sbfl9N1JEadzkFcU-142" style="edgeStyle=none;rounded=0;orthogonalLoop=1;jettySize=auto;html=1;exitX=0.5;exitY=1;exitDx=0;exitDy=0;entryX=0.5;entryY=0;entryDx=0;entryDy=0;fontSize=30;endArrow=none;endFill=0;fillColor=#dae8fc;strokeColor=#6c8ebf;" edge="1" parent="1" source="QAr_Sbfl9N1JEadzkFcU-147" target="QAr_Sbfl9N1JEadzkFcU-312">
          <mxGeometry relative="1" as="geometry" />
        </mxCell>
        <mxCell id="QAr_Sbfl9N1JEadzkFcU-143" style="edgeStyle=none;rounded=0;orthogonalLoop=1;jettySize=auto;html=1;exitX=0.5;exitY=1;exitDx=0;exitDy=0;entryX=0.5;entryY=0;entryDx=0;entryDy=0;fontSize=30;endArrow=none;endFill=0;fillColor=#dae8fc;strokeColor=#6c8ebf;" edge="1" parent="1" source="QAr_Sbfl9N1JEadzkFcU-147" target="QAr_Sbfl9N1JEadzkFcU-313">
          <mxGeometry relative="1" as="geometry" />
        </mxCell>
        <mxCell id="QAr_Sbfl9N1JEadzkFcU-144" style="edgeStyle=none;rounded=0;orthogonalLoop=1;jettySize=auto;html=1;exitX=0.5;exitY=1;exitDx=0;exitDy=0;entryX=0.5;entryY=0;entryDx=0;entryDy=0;fontSize=30;endArrow=none;endFill=0;fillColor=#dae8fc;strokeColor=#6c8ebf;" edge="1" parent="1" source="QAr_Sbfl9N1JEadzkFcU-147" target="QAr_Sbfl9N1JEadzkFcU-314">
          <mxGeometry relative="1" as="geometry" />
        </mxCell>
        <mxCell id="QAr_Sbfl9N1JEadzkFcU-145" style="edgeStyle=none;rounded=0;orthogonalLoop=1;jettySize=auto;html=1;exitX=0.5;exitY=1;exitDx=0;exitDy=0;entryX=0.5;entryY=0;entryDx=0;entryDy=0;fontSize=30;endArrow=none;endFill=0;fillColor=#dae8fc;strokeColor=#6c8ebf;" edge="1" parent="1" source="QAr_Sbfl9N1JEadzkFcU-147" target="QAr_Sbfl9N1JEadzkFcU-315">
          <mxGeometry relative="1" as="geometry" />
        </mxCell>
        <mxCell id="QAr_Sbfl9N1JEadzkFcU-146" style="edgeStyle=none;rounded=0;orthogonalLoop=1;jettySize=auto;html=1;exitX=0.5;exitY=1;exitDx=0;exitDy=0;entryX=0.5;entryY=0;entryDx=0;entryDy=0;fontSize=30;endArrow=none;endFill=0;fillColor=#dae8fc;strokeColor=#6c8ebf;" edge="1" parent="1" source="QAr_Sbfl9N1JEadzkFcU-147" target="QAr_Sbfl9N1JEadzkFcU-316">
          <mxGeometry relative="1" as="geometry" />
        </mxCell>
        <mxCell id="QAr_Sbfl9N1JEadzkFcU-147" value="" style="ellipse;whiteSpace=wrap;html=1;aspect=fixed;fillColor=#dae8fc;strokeWidth=2;strokeColor=#6c8ebf;" vertex="1" parent="1">
          <mxGeometry x="466.13" y="480" width="40" height="40" as="geometry" />
        </mxCell>
        <mxCell id="QAr_Sbfl9N1JEadzkFcU-148" style="edgeStyle=none;rounded=0;orthogonalLoop=1;jettySize=auto;html=1;exitX=0.5;exitY=1;exitDx=0;exitDy=0;entryX=0.5;entryY=0;entryDx=0;entryDy=0;fontSize=30;endArrow=none;endFill=0;fillColor=#dae8fc;strokeColor=#6c8ebf;" edge="1" parent="1" source="QAr_Sbfl9N1JEadzkFcU-159" target="QAr_Sbfl9N1JEadzkFcU-306">
          <mxGeometry relative="1" as="geometry" />
        </mxCell>
        <mxCell id="QAr_Sbfl9N1JEadzkFcU-149" style="edgeStyle=none;rounded=0;orthogonalLoop=1;jettySize=auto;html=1;exitX=0.5;exitY=1;exitDx=0;exitDy=0;entryX=0.5;entryY=0;entryDx=0;entryDy=0;fontSize=30;endArrow=none;endFill=0;fillColor=#dae8fc;strokeColor=#6c8ebf;" edge="1" parent="1" source="QAr_Sbfl9N1JEadzkFcU-159" target="QAr_Sbfl9N1JEadzkFcU-307">
          <mxGeometry relative="1" as="geometry" />
        </mxCell>
        <mxCell id="QAr_Sbfl9N1JEadzkFcU-150" style="edgeStyle=none;rounded=0;orthogonalLoop=1;jettySize=auto;html=1;exitX=0.5;exitY=1;exitDx=0;exitDy=0;entryX=0.5;entryY=0;entryDx=0;entryDy=0;fontSize=30;endArrow=none;endFill=0;fillColor=#dae8fc;strokeColor=#6c8ebf;" edge="1" parent="1" source="QAr_Sbfl9N1JEadzkFcU-159" target="QAr_Sbfl9N1JEadzkFcU-308">
          <mxGeometry relative="1" as="geometry" />
        </mxCell>
        <mxCell id="QAr_Sbfl9N1JEadzkFcU-151" style="edgeStyle=none;rounded=0;orthogonalLoop=1;jettySize=auto;html=1;exitX=0.5;exitY=1;exitDx=0;exitDy=0;entryX=0.5;entryY=0;entryDx=0;entryDy=0;fontSize=30;endArrow=none;endFill=0;fillColor=#dae8fc;strokeColor=#6c8ebf;" edge="1" parent="1" source="QAr_Sbfl9N1JEadzkFcU-159" target="QAr_Sbfl9N1JEadzkFcU-309">
          <mxGeometry relative="1" as="geometry" />
        </mxCell>
        <mxCell id="QAr_Sbfl9N1JEadzkFcU-152" style="edgeStyle=none;rounded=0;orthogonalLoop=1;jettySize=auto;html=1;exitX=0.5;exitY=1;exitDx=0;exitDy=0;entryX=0.5;entryY=0;entryDx=0;entryDy=0;fontSize=30;endArrow=none;endFill=0;fillColor=#dae8fc;strokeColor=#6c8ebf;" edge="1" parent="1" source="QAr_Sbfl9N1JEadzkFcU-159" target="QAr_Sbfl9N1JEadzkFcU-310">
          <mxGeometry relative="1" as="geometry" />
        </mxCell>
        <mxCell id="QAr_Sbfl9N1JEadzkFcU-153" style="edgeStyle=none;rounded=0;orthogonalLoop=1;jettySize=auto;html=1;exitX=0.5;exitY=1;exitDx=0;exitDy=0;entryX=0.5;entryY=0;entryDx=0;entryDy=0;fontSize=30;endArrow=none;endFill=0;fillColor=#dae8fc;strokeColor=#6c8ebf;" edge="1" parent="1" source="QAr_Sbfl9N1JEadzkFcU-159" target="QAr_Sbfl9N1JEadzkFcU-311">
          <mxGeometry relative="1" as="geometry" />
        </mxCell>
        <mxCell id="QAr_Sbfl9N1JEadzkFcU-154" style="edgeStyle=none;rounded=0;orthogonalLoop=1;jettySize=auto;html=1;exitX=0.5;exitY=1;exitDx=0;exitDy=0;entryX=0.5;entryY=0;entryDx=0;entryDy=0;fontSize=30;endArrow=none;endFill=0;fillColor=#dae8fc;strokeColor=#6c8ebf;" edge="1" parent="1" source="QAr_Sbfl9N1JEadzkFcU-159" target="QAr_Sbfl9N1JEadzkFcU-312">
          <mxGeometry relative="1" as="geometry" />
        </mxCell>
        <mxCell id="QAr_Sbfl9N1JEadzkFcU-155" style="edgeStyle=none;rounded=0;orthogonalLoop=1;jettySize=auto;html=1;exitX=0.5;exitY=1;exitDx=0;exitDy=0;entryX=0.5;entryY=0;entryDx=0;entryDy=0;fontSize=30;endArrow=none;endFill=0;fillColor=#dae8fc;strokeColor=#6c8ebf;" edge="1" parent="1" source="QAr_Sbfl9N1JEadzkFcU-159" target="QAr_Sbfl9N1JEadzkFcU-313">
          <mxGeometry relative="1" as="geometry" />
        </mxCell>
        <mxCell id="QAr_Sbfl9N1JEadzkFcU-156" style="edgeStyle=none;rounded=0;orthogonalLoop=1;jettySize=auto;html=1;exitX=0.5;exitY=1;exitDx=0;exitDy=0;entryX=0.5;entryY=0;entryDx=0;entryDy=0;fontSize=30;endArrow=none;endFill=0;fillColor=#dae8fc;strokeColor=#6c8ebf;" edge="1" parent="1" source="QAr_Sbfl9N1JEadzkFcU-159" target="QAr_Sbfl9N1JEadzkFcU-314">
          <mxGeometry relative="1" as="geometry" />
        </mxCell>
        <mxCell id="QAr_Sbfl9N1JEadzkFcU-157" style="edgeStyle=none;rounded=0;orthogonalLoop=1;jettySize=auto;html=1;exitX=0.5;exitY=1;exitDx=0;exitDy=0;entryX=0.5;entryY=0;entryDx=0;entryDy=0;fontSize=30;endArrow=none;endFill=0;fillColor=#dae8fc;strokeColor=#6c8ebf;" edge="1" parent="1" source="QAr_Sbfl9N1JEadzkFcU-159" target="QAr_Sbfl9N1JEadzkFcU-315">
          <mxGeometry relative="1" as="geometry" />
        </mxCell>
        <mxCell id="QAr_Sbfl9N1JEadzkFcU-158" style="edgeStyle=none;rounded=0;orthogonalLoop=1;jettySize=auto;html=1;exitX=0.5;exitY=1;exitDx=0;exitDy=0;entryX=0.5;entryY=0;entryDx=0;entryDy=0;fontSize=30;endArrow=none;endFill=0;fillColor=#dae8fc;strokeColor=#6c8ebf;" edge="1" parent="1" source="QAr_Sbfl9N1JEadzkFcU-159" target="QAr_Sbfl9N1JEadzkFcU-316">
          <mxGeometry relative="1" as="geometry" />
        </mxCell>
        <mxCell id="QAr_Sbfl9N1JEadzkFcU-159" value="" style="ellipse;whiteSpace=wrap;html=1;aspect=fixed;fillColor=#dae8fc;strokeWidth=2;strokeColor=#6c8ebf;" vertex="1" parent="1">
          <mxGeometry x="534.63" y="480" width="40" height="40" as="geometry" />
        </mxCell>
        <mxCell id="QAr_Sbfl9N1JEadzkFcU-160" style="edgeStyle=none;rounded=0;orthogonalLoop=1;jettySize=auto;html=1;exitX=0.5;exitY=1;exitDx=0;exitDy=0;entryX=0.5;entryY=0;entryDx=0;entryDy=0;fontSize=30;endArrow=none;endFill=0;fillColor=#dae8fc;strokeColor=#6c8ebf;" edge="1" parent="1" source="QAr_Sbfl9N1JEadzkFcU-172" target="QAr_Sbfl9N1JEadzkFcU-306">
          <mxGeometry relative="1" as="geometry" />
        </mxCell>
        <mxCell id="QAr_Sbfl9N1JEadzkFcU-161" style="edgeStyle=none;rounded=0;orthogonalLoop=1;jettySize=auto;html=1;exitX=0.5;exitY=1;exitDx=0;exitDy=0;entryX=0.5;entryY=0;entryDx=0;entryDy=0;fontSize=30;endArrow=none;endFill=0;fillColor=#dae8fc;strokeColor=#6c8ebf;" edge="1" parent="1" source="QAr_Sbfl9N1JEadzkFcU-172" target="QAr_Sbfl9N1JEadzkFcU-307">
          <mxGeometry relative="1" as="geometry" />
        </mxCell>
        <mxCell id="QAr_Sbfl9N1JEadzkFcU-162" style="edgeStyle=none;rounded=0;orthogonalLoop=1;jettySize=auto;html=1;exitX=0.5;exitY=1;exitDx=0;exitDy=0;entryX=0.5;entryY=0;entryDx=0;entryDy=0;fontSize=30;endArrow=none;endFill=0;fillColor=#dae8fc;strokeColor=#6c8ebf;" edge="1" parent="1" source="QAr_Sbfl9N1JEadzkFcU-172" target="QAr_Sbfl9N1JEadzkFcU-308">
          <mxGeometry relative="1" as="geometry" />
        </mxCell>
        <mxCell id="QAr_Sbfl9N1JEadzkFcU-163" style="edgeStyle=none;rounded=0;orthogonalLoop=1;jettySize=auto;html=1;exitX=0.5;exitY=1;exitDx=0;exitDy=0;entryX=0.5;entryY=0;entryDx=0;entryDy=0;fontSize=30;endArrow=none;endFill=0;fillColor=#dae8fc;strokeColor=#6c8ebf;" edge="1" parent="1" source="QAr_Sbfl9N1JEadzkFcU-172" target="QAr_Sbfl9N1JEadzkFcU-309">
          <mxGeometry relative="1" as="geometry" />
        </mxCell>
        <mxCell id="QAr_Sbfl9N1JEadzkFcU-164" style="edgeStyle=none;rounded=0;orthogonalLoop=1;jettySize=auto;html=1;exitX=0.5;exitY=1;exitDx=0;exitDy=0;entryX=0.5;entryY=0;entryDx=0;entryDy=0;fontSize=30;endArrow=none;endFill=0;fillColor=#dae8fc;strokeColor=#6c8ebf;" edge="1" parent="1" source="QAr_Sbfl9N1JEadzkFcU-172" target="QAr_Sbfl9N1JEadzkFcU-310">
          <mxGeometry relative="1" as="geometry" />
        </mxCell>
        <mxCell id="QAr_Sbfl9N1JEadzkFcU-165" style="edgeStyle=none;rounded=0;orthogonalLoop=1;jettySize=auto;html=1;exitX=0.5;exitY=1;exitDx=0;exitDy=0;entryX=0.5;entryY=0;entryDx=0;entryDy=0;fontSize=30;endArrow=none;endFill=0;fillColor=#dae8fc;strokeColor=#6c8ebf;" edge="1" parent="1" source="QAr_Sbfl9N1JEadzkFcU-172" target="QAr_Sbfl9N1JEadzkFcU-311">
          <mxGeometry relative="1" as="geometry" />
        </mxCell>
        <mxCell id="QAr_Sbfl9N1JEadzkFcU-166" style="edgeStyle=none;rounded=0;orthogonalLoop=1;jettySize=auto;html=1;exitX=0.5;exitY=1;exitDx=0;exitDy=0;entryX=0.5;entryY=0;entryDx=0;entryDy=0;fontSize=30;endArrow=none;endFill=0;fillColor=#dae8fc;strokeColor=#6c8ebf;" edge="1" parent="1" source="QAr_Sbfl9N1JEadzkFcU-172" target="QAr_Sbfl9N1JEadzkFcU-312">
          <mxGeometry relative="1" as="geometry" />
        </mxCell>
        <mxCell id="QAr_Sbfl9N1JEadzkFcU-167" style="edgeStyle=none;rounded=0;orthogonalLoop=1;jettySize=auto;html=1;exitX=0.5;exitY=1;exitDx=0;exitDy=0;entryX=0.5;entryY=0;entryDx=0;entryDy=0;fontSize=30;endArrow=none;endFill=0;fillColor=#dae8fc;strokeColor=#6c8ebf;" edge="1" parent="1" source="QAr_Sbfl9N1JEadzkFcU-172" target="QAr_Sbfl9N1JEadzkFcU-313">
          <mxGeometry relative="1" as="geometry" />
        </mxCell>
        <mxCell id="QAr_Sbfl9N1JEadzkFcU-168" style="edgeStyle=none;rounded=0;orthogonalLoop=1;jettySize=auto;html=1;exitX=0.5;exitY=1;exitDx=0;exitDy=0;entryX=0.5;entryY=0;entryDx=0;entryDy=0;fontSize=30;endArrow=none;endFill=0;fillColor=#dae8fc;strokeColor=#6c8ebf;" edge="1" parent="1" source="QAr_Sbfl9N1JEadzkFcU-172" target="QAr_Sbfl9N1JEadzkFcU-314">
          <mxGeometry relative="1" as="geometry" />
        </mxCell>
        <mxCell id="QAr_Sbfl9N1JEadzkFcU-169" style="edgeStyle=none;rounded=0;orthogonalLoop=1;jettySize=auto;html=1;exitX=0.5;exitY=1;exitDx=0;exitDy=0;entryX=0.5;entryY=0;entryDx=0;entryDy=0;fontSize=30;endArrow=none;endFill=0;" edge="1" parent="1" source="QAr_Sbfl9N1JEadzkFcU-172" target="QAr_Sbfl9N1JEadzkFcU-315">
          <mxGeometry relative="1" as="geometry" />
        </mxCell>
        <mxCell id="QAr_Sbfl9N1JEadzkFcU-170" style="edgeStyle=none;rounded=0;orthogonalLoop=1;jettySize=auto;html=1;exitX=0.5;exitY=1;exitDx=0;exitDy=0;entryX=0.5;entryY=0;entryDx=0;entryDy=0;fontSize=30;endArrow=none;endFill=0;fillColor=#dae8fc;strokeColor=#6c8ebf;" edge="1" parent="1" source="QAr_Sbfl9N1JEadzkFcU-172" target="QAr_Sbfl9N1JEadzkFcU-315">
          <mxGeometry relative="1" as="geometry" />
        </mxCell>
        <mxCell id="QAr_Sbfl9N1JEadzkFcU-171" style="edgeStyle=none;rounded=0;orthogonalLoop=1;jettySize=auto;html=1;exitX=0.5;exitY=1;exitDx=0;exitDy=0;entryX=0.5;entryY=0;entryDx=0;entryDy=0;fontSize=30;endArrow=none;endFill=0;fillColor=#dae8fc;strokeColor=#6c8ebf;" edge="1" parent="1" source="QAr_Sbfl9N1JEadzkFcU-172" target="QAr_Sbfl9N1JEadzkFcU-316">
          <mxGeometry relative="1" as="geometry" />
        </mxCell>
        <mxCell id="QAr_Sbfl9N1JEadzkFcU-172" value="" style="ellipse;whiteSpace=wrap;html=1;aspect=fixed;fillColor=#dae8fc;strokeWidth=2;strokeColor=#6c8ebf;" vertex="1" parent="1">
          <mxGeometry x="599.38" y="480" width="40" height="40" as="geometry" />
        </mxCell>
        <mxCell id="QAr_Sbfl9N1JEadzkFcU-173" style="edgeStyle=none;rounded=0;orthogonalLoop=1;jettySize=auto;html=1;exitX=0.5;exitY=1;exitDx=0;exitDy=0;entryX=0.5;entryY=0;entryDx=0;entryDy=0;fontSize=30;endArrow=none;endFill=0;fillColor=#dae8fc;strokeColor=#6c8ebf;" edge="1" parent="1" source="QAr_Sbfl9N1JEadzkFcU-184" target="QAr_Sbfl9N1JEadzkFcU-306">
          <mxGeometry relative="1" as="geometry" />
        </mxCell>
        <mxCell id="QAr_Sbfl9N1JEadzkFcU-174" style="edgeStyle=none;rounded=0;orthogonalLoop=1;jettySize=auto;html=1;exitX=0.5;exitY=1;exitDx=0;exitDy=0;entryX=0.5;entryY=0;entryDx=0;entryDy=0;fontSize=30;endArrow=none;endFill=0;fillColor=#dae8fc;strokeColor=#6c8ebf;" edge="1" parent="1" source="QAr_Sbfl9N1JEadzkFcU-184" target="QAr_Sbfl9N1JEadzkFcU-307">
          <mxGeometry relative="1" as="geometry" />
        </mxCell>
        <mxCell id="QAr_Sbfl9N1JEadzkFcU-175" style="edgeStyle=none;rounded=0;orthogonalLoop=1;jettySize=auto;html=1;exitX=0.5;exitY=1;exitDx=0;exitDy=0;entryX=0.5;entryY=0;entryDx=0;entryDy=0;fontSize=30;endArrow=none;endFill=0;fillColor=#dae8fc;strokeColor=#6c8ebf;" edge="1" parent="1" source="QAr_Sbfl9N1JEadzkFcU-184" target="QAr_Sbfl9N1JEadzkFcU-308">
          <mxGeometry relative="1" as="geometry" />
        </mxCell>
        <mxCell id="QAr_Sbfl9N1JEadzkFcU-176" style="edgeStyle=none;rounded=0;orthogonalLoop=1;jettySize=auto;html=1;exitX=0.5;exitY=1;exitDx=0;exitDy=0;entryX=0.5;entryY=0;entryDx=0;entryDy=0;fontSize=30;endArrow=none;endFill=0;fillColor=#dae8fc;strokeColor=#6c8ebf;" edge="1" parent="1" source="QAr_Sbfl9N1JEadzkFcU-184" target="QAr_Sbfl9N1JEadzkFcU-309">
          <mxGeometry relative="1" as="geometry" />
        </mxCell>
        <mxCell id="QAr_Sbfl9N1JEadzkFcU-177" style="edgeStyle=none;rounded=0;orthogonalLoop=1;jettySize=auto;html=1;exitX=0.5;exitY=1;exitDx=0;exitDy=0;entryX=0.5;entryY=0;entryDx=0;entryDy=0;fontSize=30;endArrow=none;endFill=0;fillColor=#dae8fc;strokeColor=#6c8ebf;" edge="1" parent="1" source="QAr_Sbfl9N1JEadzkFcU-184" target="QAr_Sbfl9N1JEadzkFcU-310">
          <mxGeometry relative="1" as="geometry" />
        </mxCell>
        <mxCell id="QAr_Sbfl9N1JEadzkFcU-178" style="edgeStyle=none;rounded=0;orthogonalLoop=1;jettySize=auto;html=1;exitX=0.5;exitY=1;exitDx=0;exitDy=0;entryX=0.5;entryY=0;entryDx=0;entryDy=0;fontSize=30;endArrow=none;endFill=0;fillColor=#dae8fc;strokeColor=#6c8ebf;" edge="1" parent="1" source="QAr_Sbfl9N1JEadzkFcU-184" target="QAr_Sbfl9N1JEadzkFcU-311">
          <mxGeometry relative="1" as="geometry" />
        </mxCell>
        <mxCell id="QAr_Sbfl9N1JEadzkFcU-179" style="edgeStyle=none;rounded=0;orthogonalLoop=1;jettySize=auto;html=1;exitX=0.5;exitY=1;exitDx=0;exitDy=0;entryX=0.5;entryY=0;entryDx=0;entryDy=0;fontSize=30;endArrow=none;endFill=0;fillColor=#dae8fc;strokeColor=#6c8ebf;" edge="1" parent="1" source="QAr_Sbfl9N1JEadzkFcU-184" target="QAr_Sbfl9N1JEadzkFcU-312">
          <mxGeometry relative="1" as="geometry" />
        </mxCell>
        <mxCell id="QAr_Sbfl9N1JEadzkFcU-180" style="edgeStyle=none;rounded=0;orthogonalLoop=1;jettySize=auto;html=1;exitX=0.5;exitY=1;exitDx=0;exitDy=0;entryX=0.5;entryY=0;entryDx=0;entryDy=0;fontSize=30;endArrow=none;endFill=0;fillColor=#dae8fc;strokeColor=#6c8ebf;" edge="1" parent="1" source="QAr_Sbfl9N1JEadzkFcU-184" target="QAr_Sbfl9N1JEadzkFcU-313">
          <mxGeometry relative="1" as="geometry" />
        </mxCell>
        <mxCell id="QAr_Sbfl9N1JEadzkFcU-181" style="edgeStyle=none;rounded=0;orthogonalLoop=1;jettySize=auto;html=1;exitX=0.5;exitY=1;exitDx=0;exitDy=0;entryX=0.5;entryY=0;entryDx=0;entryDy=0;fontSize=30;endArrow=none;endFill=0;fillColor=#dae8fc;strokeColor=#6c8ebf;" edge="1" parent="1" source="QAr_Sbfl9N1JEadzkFcU-184" target="QAr_Sbfl9N1JEadzkFcU-314">
          <mxGeometry relative="1" as="geometry" />
        </mxCell>
        <mxCell id="QAr_Sbfl9N1JEadzkFcU-182" style="edgeStyle=none;rounded=0;orthogonalLoop=1;jettySize=auto;html=1;exitX=0.5;exitY=1;exitDx=0;exitDy=0;entryX=0.5;entryY=0;entryDx=0;entryDy=0;fontSize=30;endArrow=none;endFill=0;fillColor=#dae8fc;strokeColor=#6c8ebf;" edge="1" parent="1" source="QAr_Sbfl9N1JEadzkFcU-184" target="QAr_Sbfl9N1JEadzkFcU-315">
          <mxGeometry relative="1" as="geometry" />
        </mxCell>
        <mxCell id="QAr_Sbfl9N1JEadzkFcU-183" style="edgeStyle=none;rounded=0;orthogonalLoop=1;jettySize=auto;html=1;exitX=0.5;exitY=1;exitDx=0;exitDy=0;entryX=0.5;entryY=0;entryDx=0;entryDy=0;fontSize=30;endArrow=none;endFill=0;fillColor=#dae8fc;strokeColor=#6c8ebf;" edge="1" parent="1" source="QAr_Sbfl9N1JEadzkFcU-184" target="QAr_Sbfl9N1JEadzkFcU-316">
          <mxGeometry relative="1" as="geometry" />
        </mxCell>
        <mxCell id="QAr_Sbfl9N1JEadzkFcU-184" value="" style="ellipse;whiteSpace=wrap;html=1;aspect=fixed;fillColor=#dae8fc;strokeWidth=2;strokeColor=#6c8ebf;" vertex="1" parent="1">
          <mxGeometry x="666.88" y="480" width="40" height="40" as="geometry" />
        </mxCell>
        <mxCell id="QAr_Sbfl9N1JEadzkFcU-185" style="edgeStyle=none;rounded=0;orthogonalLoop=1;jettySize=auto;html=1;exitX=0.5;exitY=1;exitDx=0;exitDy=0;entryX=0.5;entryY=0;entryDx=0;entryDy=0;fontSize=30;endArrow=none;endFill=0;fillColor=#d5e8d4;strokeColor=#82b366;" edge="1" parent="1" source="QAr_Sbfl9N1JEadzkFcU-196" target="QAr_Sbfl9N1JEadzkFcU-306">
          <mxGeometry relative="1" as="geometry" />
        </mxCell>
        <mxCell id="QAr_Sbfl9N1JEadzkFcU-186" style="edgeStyle=none;rounded=0;orthogonalLoop=1;jettySize=auto;html=1;exitX=0.5;exitY=1;exitDx=0;exitDy=0;fontSize=30;endArrow=none;endFill=0;entryX=0.5;entryY=0;entryDx=0;entryDy=0;fillColor=#d5e8d4;strokeColor=#82b366;" edge="1" parent="1" source="QAr_Sbfl9N1JEadzkFcU-196" target="QAr_Sbfl9N1JEadzkFcU-307">
          <mxGeometry relative="1" as="geometry">
            <mxPoint x="615" y="670" as="targetPoint" />
          </mxGeometry>
        </mxCell>
        <mxCell id="QAr_Sbfl9N1JEadzkFcU-187" style="edgeStyle=none;rounded=0;orthogonalLoop=1;jettySize=auto;html=1;exitX=0.5;exitY=1;exitDx=0;exitDy=0;entryX=0.5;entryY=0;entryDx=0;entryDy=0;fontSize=30;endArrow=none;endFill=0;fillColor=#d5e8d4;strokeColor=#82b366;" edge="1" parent="1" source="QAr_Sbfl9N1JEadzkFcU-196" target="QAr_Sbfl9N1JEadzkFcU-308">
          <mxGeometry relative="1" as="geometry" />
        </mxCell>
        <mxCell id="QAr_Sbfl9N1JEadzkFcU-188" style="edgeStyle=none;rounded=0;orthogonalLoop=1;jettySize=auto;html=1;exitX=0.5;exitY=1;exitDx=0;exitDy=0;entryX=0.5;entryY=0;entryDx=0;entryDy=0;fontSize=30;endArrow=none;endFill=0;fillColor=#d5e8d4;strokeColor=#82b366;" edge="1" parent="1" source="QAr_Sbfl9N1JEadzkFcU-196" target="QAr_Sbfl9N1JEadzkFcU-309">
          <mxGeometry relative="1" as="geometry" />
        </mxCell>
        <mxCell id="QAr_Sbfl9N1JEadzkFcU-189" style="edgeStyle=none;rounded=0;orthogonalLoop=1;jettySize=auto;html=1;exitX=0.5;exitY=1;exitDx=0;exitDy=0;entryX=0.5;entryY=0;entryDx=0;entryDy=0;fontSize=30;endArrow=none;endFill=0;fillColor=#d5e8d4;strokeColor=#82b366;" edge="1" parent="1" source="QAr_Sbfl9N1JEadzkFcU-196" target="QAr_Sbfl9N1JEadzkFcU-310">
          <mxGeometry relative="1" as="geometry" />
        </mxCell>
        <mxCell id="QAr_Sbfl9N1JEadzkFcU-190" style="edgeStyle=none;rounded=0;orthogonalLoop=1;jettySize=auto;html=1;exitX=0.5;exitY=1;exitDx=0;exitDy=0;entryX=0.5;entryY=0;entryDx=0;entryDy=0;fontSize=30;endArrow=none;endFill=0;fillColor=#d5e8d4;strokeColor=#82b366;" edge="1" parent="1" source="QAr_Sbfl9N1JEadzkFcU-196" target="QAr_Sbfl9N1JEadzkFcU-311">
          <mxGeometry relative="1" as="geometry" />
        </mxCell>
        <mxCell id="QAr_Sbfl9N1JEadzkFcU-191" style="edgeStyle=none;rounded=0;orthogonalLoop=1;jettySize=auto;html=1;exitX=0.5;exitY=1;exitDx=0;exitDy=0;entryX=0.5;entryY=0;entryDx=0;entryDy=0;fontSize=30;endArrow=none;endFill=0;fillColor=#d5e8d4;strokeColor=#82b366;" edge="1" parent="1" source="QAr_Sbfl9N1JEadzkFcU-196" target="QAr_Sbfl9N1JEadzkFcU-312">
          <mxGeometry relative="1" as="geometry" />
        </mxCell>
        <mxCell id="QAr_Sbfl9N1JEadzkFcU-192" style="edgeStyle=none;rounded=0;orthogonalLoop=1;jettySize=auto;html=1;exitX=0.5;exitY=1;exitDx=0;exitDy=0;entryX=0.5;entryY=0;entryDx=0;entryDy=0;fontSize=30;endArrow=none;endFill=0;fillColor=#d5e8d4;strokeColor=#82b366;" edge="1" parent="1" source="QAr_Sbfl9N1JEadzkFcU-196" target="QAr_Sbfl9N1JEadzkFcU-313">
          <mxGeometry relative="1" as="geometry" />
        </mxCell>
        <mxCell id="QAr_Sbfl9N1JEadzkFcU-193" style="edgeStyle=none;rounded=0;orthogonalLoop=1;jettySize=auto;html=1;exitX=0.5;exitY=1;exitDx=0;exitDy=0;entryX=0.5;entryY=0;entryDx=0;entryDy=0;fontSize=30;endArrow=none;endFill=0;fillColor=#d5e8d4;strokeColor=#82b366;" edge="1" parent="1" source="QAr_Sbfl9N1JEadzkFcU-196" target="QAr_Sbfl9N1JEadzkFcU-314">
          <mxGeometry relative="1" as="geometry" />
        </mxCell>
        <mxCell id="QAr_Sbfl9N1JEadzkFcU-194" style="edgeStyle=none;rounded=0;orthogonalLoop=1;jettySize=auto;html=1;exitX=0.5;exitY=1;exitDx=0;exitDy=0;entryX=0.5;entryY=0;entryDx=0;entryDy=0;fontSize=30;endArrow=none;endFill=0;fillColor=#d5e8d4;strokeColor=#82b366;" edge="1" parent="1" source="QAr_Sbfl9N1JEadzkFcU-196" target="QAr_Sbfl9N1JEadzkFcU-315">
          <mxGeometry relative="1" as="geometry" />
        </mxCell>
        <mxCell id="QAr_Sbfl9N1JEadzkFcU-195" style="edgeStyle=none;rounded=0;orthogonalLoop=1;jettySize=auto;html=1;exitX=0.5;exitY=1;exitDx=0;exitDy=0;entryX=0.5;entryY=0;entryDx=0;entryDy=0;fontSize=30;endArrow=none;endFill=0;fillColor=#d5e8d4;strokeColor=#82b366;" edge="1" parent="1" source="QAr_Sbfl9N1JEadzkFcU-196" target="QAr_Sbfl9N1JEadzkFcU-316">
          <mxGeometry relative="1" as="geometry" />
        </mxCell>
        <mxCell id="QAr_Sbfl9N1JEadzkFcU-196" value="" style="ellipse;whiteSpace=wrap;html=1;aspect=fixed;fillColor=#d5e8d4;strokeWidth=2;strokeColor=#82b366;" vertex="1" parent="1">
          <mxGeometry x="731.63" y="480" width="40" height="40" as="geometry" />
        </mxCell>
        <mxCell id="QAr_Sbfl9N1JEadzkFcU-197" style="edgeStyle=none;rounded=0;orthogonalLoop=1;jettySize=auto;html=1;exitX=0.5;exitY=1;exitDx=0;exitDy=0;entryX=0.5;entryY=0;entryDx=0;entryDy=0;fontSize=30;endArrow=none;endFill=0;fillColor=#d5e8d4;strokeColor=#82b366;" edge="1" parent="1" source="QAr_Sbfl9N1JEadzkFcU-208" target="QAr_Sbfl9N1JEadzkFcU-306">
          <mxGeometry relative="1" as="geometry" />
        </mxCell>
        <mxCell id="QAr_Sbfl9N1JEadzkFcU-198" style="edgeStyle=none;rounded=0;orthogonalLoop=1;jettySize=auto;html=1;exitX=0.5;exitY=1;exitDx=0;exitDy=0;fontSize=30;endArrow=none;endFill=0;entryX=0.5;entryY=0;entryDx=0;entryDy=0;fillColor=#d5e8d4;strokeColor=#82b366;" edge="1" parent="1" source="QAr_Sbfl9N1JEadzkFcU-208" target="QAr_Sbfl9N1JEadzkFcU-307">
          <mxGeometry relative="1" as="geometry">
            <mxPoint x="615" y="670" as="targetPoint" />
          </mxGeometry>
        </mxCell>
        <mxCell id="QAr_Sbfl9N1JEadzkFcU-199" style="edgeStyle=none;rounded=0;orthogonalLoop=1;jettySize=auto;html=1;exitX=0.5;exitY=1;exitDx=0;exitDy=0;entryX=0.5;entryY=0;entryDx=0;entryDy=0;fontSize=30;endArrow=none;endFill=0;fillColor=#d5e8d4;strokeColor=#82b366;" edge="1" parent="1" source="QAr_Sbfl9N1JEadzkFcU-208" target="QAr_Sbfl9N1JEadzkFcU-308">
          <mxGeometry relative="1" as="geometry" />
        </mxCell>
        <mxCell id="QAr_Sbfl9N1JEadzkFcU-200" style="edgeStyle=none;rounded=0;orthogonalLoop=1;jettySize=auto;html=1;exitX=0.5;exitY=1;exitDx=0;exitDy=0;entryX=0.5;entryY=0;entryDx=0;entryDy=0;fontSize=30;endArrow=none;endFill=0;fillColor=#d5e8d4;strokeColor=#82b366;" edge="1" parent="1" source="QAr_Sbfl9N1JEadzkFcU-208" target="QAr_Sbfl9N1JEadzkFcU-309">
          <mxGeometry relative="1" as="geometry" />
        </mxCell>
        <mxCell id="QAr_Sbfl9N1JEadzkFcU-201" style="edgeStyle=none;rounded=0;orthogonalLoop=1;jettySize=auto;html=1;exitX=0.5;exitY=1;exitDx=0;exitDy=0;entryX=0.5;entryY=0;entryDx=0;entryDy=0;fontSize=30;endArrow=none;endFill=0;fillColor=#d5e8d4;strokeColor=#82b366;" edge="1" parent="1" source="QAr_Sbfl9N1JEadzkFcU-208" target="QAr_Sbfl9N1JEadzkFcU-310">
          <mxGeometry relative="1" as="geometry" />
        </mxCell>
        <mxCell id="QAr_Sbfl9N1JEadzkFcU-202" style="edgeStyle=none;rounded=0;orthogonalLoop=1;jettySize=auto;html=1;exitX=0.5;exitY=1;exitDx=0;exitDy=0;entryX=0.5;entryY=0;entryDx=0;entryDy=0;fontSize=30;endArrow=none;endFill=0;fillColor=#d5e8d4;strokeColor=#82b366;" edge="1" parent="1" source="QAr_Sbfl9N1JEadzkFcU-208" target="QAr_Sbfl9N1JEadzkFcU-311">
          <mxGeometry relative="1" as="geometry" />
        </mxCell>
        <mxCell id="QAr_Sbfl9N1JEadzkFcU-203" style="edgeStyle=none;rounded=0;orthogonalLoop=1;jettySize=auto;html=1;exitX=0.5;exitY=1;exitDx=0;exitDy=0;entryX=0.5;entryY=0;entryDx=0;entryDy=0;fontSize=30;endArrow=none;endFill=0;fillColor=#d5e8d4;strokeColor=#82b366;" edge="1" parent="1" source="QAr_Sbfl9N1JEadzkFcU-208" target="QAr_Sbfl9N1JEadzkFcU-312">
          <mxGeometry relative="1" as="geometry" />
        </mxCell>
        <mxCell id="QAr_Sbfl9N1JEadzkFcU-204" style="edgeStyle=none;rounded=0;orthogonalLoop=1;jettySize=auto;html=1;exitX=0.5;exitY=1;exitDx=0;exitDy=0;entryX=0.5;entryY=0;entryDx=0;entryDy=0;fontSize=30;endArrow=none;endFill=0;fillColor=#d5e8d4;strokeColor=#82b366;" edge="1" parent="1" source="QAr_Sbfl9N1JEadzkFcU-208" target="QAr_Sbfl9N1JEadzkFcU-313">
          <mxGeometry relative="1" as="geometry" />
        </mxCell>
        <mxCell id="QAr_Sbfl9N1JEadzkFcU-205" style="edgeStyle=none;rounded=0;orthogonalLoop=1;jettySize=auto;html=1;exitX=0.5;exitY=1;exitDx=0;exitDy=0;entryX=0.5;entryY=0;entryDx=0;entryDy=0;fontSize=30;endArrow=none;endFill=0;fillColor=#d5e8d4;strokeColor=#82b366;" edge="1" parent="1" source="QAr_Sbfl9N1JEadzkFcU-208" target="QAr_Sbfl9N1JEadzkFcU-314">
          <mxGeometry relative="1" as="geometry" />
        </mxCell>
        <mxCell id="QAr_Sbfl9N1JEadzkFcU-206" style="edgeStyle=none;rounded=0;orthogonalLoop=1;jettySize=auto;html=1;exitX=0.5;exitY=1;exitDx=0;exitDy=0;entryX=0.5;entryY=0;entryDx=0;entryDy=0;fontSize=30;endArrow=none;endFill=0;fillColor=#d5e8d4;strokeColor=#82b366;" edge="1" parent="1" source="QAr_Sbfl9N1JEadzkFcU-208" target="QAr_Sbfl9N1JEadzkFcU-315">
          <mxGeometry relative="1" as="geometry" />
        </mxCell>
        <mxCell id="QAr_Sbfl9N1JEadzkFcU-207" style="edgeStyle=none;rounded=0;orthogonalLoop=1;jettySize=auto;html=1;exitX=0.5;exitY=1;exitDx=0;exitDy=0;entryX=0.5;entryY=0;entryDx=0;entryDy=0;fontSize=30;endArrow=none;endFill=0;fillColor=#d5e8d4;strokeColor=#82b366;" edge="1" parent="1" source="QAr_Sbfl9N1JEadzkFcU-208" target="QAr_Sbfl9N1JEadzkFcU-316">
          <mxGeometry relative="1" as="geometry" />
        </mxCell>
        <mxCell id="QAr_Sbfl9N1JEadzkFcU-208" value="" style="ellipse;whiteSpace=wrap;html=1;aspect=fixed;fillColor=#d5e8d4;strokeWidth=2;strokeColor=#82b366;" vertex="1" parent="1">
          <mxGeometry x="795.13" y="480" width="40" height="40" as="geometry" />
        </mxCell>
        <mxCell id="QAr_Sbfl9N1JEadzkFcU-209" value="&lt;font style=&quot;font-size: 30px;&quot;&gt;bert character embedding&lt;/font&gt;" style="rounded=0;whiteSpace=wrap;html=1;fontFamily=Times New Roman;fontSize=30;strokeWidth=3;" vertex="1" parent="1">
          <mxGeometry x="590.19" y="211.5" width="556.54" height="60" as="geometry" />
        </mxCell>
        <mxCell id="QAr_Sbfl9N1JEadzkFcU-210" style="edgeStyle=none;rounded=0;orthogonalLoop=1;jettySize=auto;html=1;exitX=0.5;exitY=1;exitDx=0;exitDy=0;entryX=0.5;entryY=0;entryDx=0;entryDy=0;fontSize=30;endArrow=none;endFill=0;fillColor=#d5e8d4;strokeColor=#82b366;" edge="1" parent="1" source="QAr_Sbfl9N1JEadzkFcU-221" target="QAr_Sbfl9N1JEadzkFcU-306">
          <mxGeometry relative="1" as="geometry" />
        </mxCell>
        <mxCell id="QAr_Sbfl9N1JEadzkFcU-211" style="edgeStyle=none;rounded=0;orthogonalLoop=1;jettySize=auto;html=1;exitX=0.5;exitY=1;exitDx=0;exitDy=0;entryX=0.5;entryY=0;entryDx=0;entryDy=0;fontSize=30;endArrow=none;endFill=0;fillColor=#d5e8d4;strokeColor=#82b366;" edge="1" parent="1" source="QAr_Sbfl9N1JEadzkFcU-221" target="QAr_Sbfl9N1JEadzkFcU-307">
          <mxGeometry relative="1" as="geometry" />
        </mxCell>
        <mxCell id="QAr_Sbfl9N1JEadzkFcU-212" style="edgeStyle=none;rounded=0;orthogonalLoop=1;jettySize=auto;html=1;exitX=0.5;exitY=1;exitDx=0;exitDy=0;entryX=0.5;entryY=0;entryDx=0;entryDy=0;fontSize=30;endArrow=none;endFill=0;fillColor=#d5e8d4;strokeColor=#82b366;" edge="1" parent="1" source="QAr_Sbfl9N1JEadzkFcU-221" target="QAr_Sbfl9N1JEadzkFcU-308">
          <mxGeometry relative="1" as="geometry" />
        </mxCell>
        <mxCell id="QAr_Sbfl9N1JEadzkFcU-213" style="edgeStyle=none;rounded=0;orthogonalLoop=1;jettySize=auto;html=1;exitX=0.5;exitY=1;exitDx=0;exitDy=0;entryX=0.5;entryY=0;entryDx=0;entryDy=0;fontSize=30;endArrow=none;endFill=0;fillColor=#d5e8d4;strokeColor=#82b366;" edge="1" parent="1" source="QAr_Sbfl9N1JEadzkFcU-221" target="QAr_Sbfl9N1JEadzkFcU-309">
          <mxGeometry relative="1" as="geometry" />
        </mxCell>
        <mxCell id="QAr_Sbfl9N1JEadzkFcU-214" style="edgeStyle=none;rounded=0;orthogonalLoop=1;jettySize=auto;html=1;exitX=0.5;exitY=1;exitDx=0;exitDy=0;entryX=0.5;entryY=0;entryDx=0;entryDy=0;fontSize=30;endArrow=none;endFill=0;fillColor=#d5e8d4;strokeColor=#82b366;" edge="1" parent="1" source="QAr_Sbfl9N1JEadzkFcU-221" target="QAr_Sbfl9N1JEadzkFcU-310">
          <mxGeometry relative="1" as="geometry" />
        </mxCell>
        <mxCell id="QAr_Sbfl9N1JEadzkFcU-215" style="edgeStyle=none;rounded=0;orthogonalLoop=1;jettySize=auto;html=1;exitX=0.5;exitY=1;exitDx=0;exitDy=0;entryX=0.5;entryY=0;entryDx=0;entryDy=0;fontSize=30;endArrow=none;endFill=0;fillColor=#d5e8d4;strokeColor=#82b366;" edge="1" parent="1" source="QAr_Sbfl9N1JEadzkFcU-221" target="QAr_Sbfl9N1JEadzkFcU-311">
          <mxGeometry relative="1" as="geometry" />
        </mxCell>
        <mxCell id="QAr_Sbfl9N1JEadzkFcU-216" style="edgeStyle=none;rounded=0;orthogonalLoop=1;jettySize=auto;html=1;exitX=0.5;exitY=1;exitDx=0;exitDy=0;entryX=0.5;entryY=0;entryDx=0;entryDy=0;fontSize=30;endArrow=none;endFill=0;fillColor=#d5e8d4;strokeColor=#82b366;" edge="1" parent="1" source="QAr_Sbfl9N1JEadzkFcU-221" target="QAr_Sbfl9N1JEadzkFcU-312">
          <mxGeometry relative="1" as="geometry" />
        </mxCell>
        <mxCell id="QAr_Sbfl9N1JEadzkFcU-217" style="edgeStyle=none;rounded=0;orthogonalLoop=1;jettySize=auto;html=1;exitX=0.5;exitY=1;exitDx=0;exitDy=0;entryX=0.5;entryY=0;entryDx=0;entryDy=0;fontSize=30;endArrow=none;endFill=0;fillColor=#d5e8d4;strokeColor=#82b366;" edge="1" parent="1" source="QAr_Sbfl9N1JEadzkFcU-221" target="QAr_Sbfl9N1JEadzkFcU-313">
          <mxGeometry relative="1" as="geometry" />
        </mxCell>
        <mxCell id="QAr_Sbfl9N1JEadzkFcU-218" style="edgeStyle=none;rounded=0;orthogonalLoop=1;jettySize=auto;html=1;exitX=0.5;exitY=1;exitDx=0;exitDy=0;entryX=0.5;entryY=0;entryDx=0;entryDy=0;fontSize=30;endArrow=none;endFill=0;fillColor=#d5e8d4;strokeColor=#82b366;" edge="1" parent="1" source="QAr_Sbfl9N1JEadzkFcU-221" target="QAr_Sbfl9N1JEadzkFcU-314">
          <mxGeometry relative="1" as="geometry" />
        </mxCell>
        <mxCell id="QAr_Sbfl9N1JEadzkFcU-219" style="edgeStyle=none;rounded=0;orthogonalLoop=1;jettySize=auto;html=1;exitX=0.5;exitY=1;exitDx=0;exitDy=0;entryX=0.5;entryY=0;entryDx=0;entryDy=0;fontSize=30;endArrow=none;endFill=0;fillColor=#d5e8d4;strokeColor=#82b366;" edge="1" parent="1" source="QAr_Sbfl9N1JEadzkFcU-221" target="QAr_Sbfl9N1JEadzkFcU-315">
          <mxGeometry relative="1" as="geometry" />
        </mxCell>
        <mxCell id="QAr_Sbfl9N1JEadzkFcU-220" style="edgeStyle=none;rounded=0;orthogonalLoop=1;jettySize=auto;html=1;exitX=0.5;exitY=1;exitDx=0;exitDy=0;entryX=0.5;entryY=0;entryDx=0;entryDy=0;fontSize=30;endArrow=none;endFill=0;fillColor=#d5e8d4;strokeColor=#82b366;" edge="1" parent="1" source="QAr_Sbfl9N1JEadzkFcU-221" target="QAr_Sbfl9N1JEadzkFcU-316">
          <mxGeometry relative="1" as="geometry" />
        </mxCell>
        <mxCell id="QAr_Sbfl9N1JEadzkFcU-221" value="" style="ellipse;whiteSpace=wrap;html=1;aspect=fixed;fillColor=#d5e8d4;strokeWidth=2;strokeColor=#82b366;" vertex="1" parent="1">
          <mxGeometry x="905.42" y="480" width="40" height="40" as="geometry" />
        </mxCell>
        <mxCell id="QAr_Sbfl9N1JEadzkFcU-222" style="edgeStyle=none;rounded=0;orthogonalLoop=1;jettySize=auto;html=1;exitX=0.5;exitY=1;exitDx=0;exitDy=0;fontSize=30;endArrow=none;endFill=0;entryX=0.5;entryY=0;entryDx=0;entryDy=0;fillColor=#d5e8d4;strokeColor=#82b366;" edge="1" parent="1" source="QAr_Sbfl9N1JEadzkFcU-233" target="QAr_Sbfl9N1JEadzkFcU-306">
          <mxGeometry relative="1" as="geometry">
            <mxPoint x="565" y="670" as="targetPoint" />
          </mxGeometry>
        </mxCell>
        <mxCell id="QAr_Sbfl9N1JEadzkFcU-223" style="edgeStyle=none;rounded=0;orthogonalLoop=1;jettySize=auto;html=1;exitX=0.5;exitY=1;exitDx=0;exitDy=0;entryX=0.5;entryY=0;entryDx=0;entryDy=0;fontSize=30;endArrow=none;endFill=0;fillColor=#d5e8d4;strokeColor=#82b366;" edge="1" parent="1" source="QAr_Sbfl9N1JEadzkFcU-233" target="QAr_Sbfl9N1JEadzkFcU-307">
          <mxGeometry relative="1" as="geometry" />
        </mxCell>
        <mxCell id="QAr_Sbfl9N1JEadzkFcU-224" style="edgeStyle=none;rounded=0;orthogonalLoop=1;jettySize=auto;html=1;exitX=0.5;exitY=1;exitDx=0;exitDy=0;entryX=0.5;entryY=0;entryDx=0;entryDy=0;fontSize=30;endArrow=none;endFill=0;fillColor=#d5e8d4;strokeColor=#82b366;" edge="1" parent="1" source="QAr_Sbfl9N1JEadzkFcU-233" target="QAr_Sbfl9N1JEadzkFcU-308">
          <mxGeometry relative="1" as="geometry" />
        </mxCell>
        <mxCell id="QAr_Sbfl9N1JEadzkFcU-225" style="edgeStyle=none;rounded=0;orthogonalLoop=1;jettySize=auto;html=1;exitX=0.5;exitY=1;exitDx=0;exitDy=0;entryX=0.5;entryY=0;entryDx=0;entryDy=0;fontSize=30;endArrow=none;endFill=0;fillColor=#d5e8d4;strokeColor=#82b366;" edge="1" parent="1" source="QAr_Sbfl9N1JEadzkFcU-233" target="QAr_Sbfl9N1JEadzkFcU-309">
          <mxGeometry relative="1" as="geometry" />
        </mxCell>
        <mxCell id="QAr_Sbfl9N1JEadzkFcU-226" style="edgeStyle=none;rounded=0;orthogonalLoop=1;jettySize=auto;html=1;exitX=0.5;exitY=1;exitDx=0;exitDy=0;entryX=0.5;entryY=0;entryDx=0;entryDy=0;fontSize=30;endArrow=none;endFill=0;fillColor=#d5e8d4;strokeColor=#82b366;" edge="1" parent="1" source="QAr_Sbfl9N1JEadzkFcU-233" target="QAr_Sbfl9N1JEadzkFcU-310">
          <mxGeometry relative="1" as="geometry" />
        </mxCell>
        <mxCell id="QAr_Sbfl9N1JEadzkFcU-227" style="edgeStyle=none;rounded=0;orthogonalLoop=1;jettySize=auto;html=1;exitX=0.5;exitY=1;exitDx=0;exitDy=0;entryX=0.5;entryY=0;entryDx=0;entryDy=0;fontSize=30;endArrow=none;endFill=0;fillColor=#d5e8d4;strokeColor=#82b366;" edge="1" parent="1" source="QAr_Sbfl9N1JEadzkFcU-233" target="QAr_Sbfl9N1JEadzkFcU-311">
          <mxGeometry relative="1" as="geometry" />
        </mxCell>
        <mxCell id="QAr_Sbfl9N1JEadzkFcU-228" style="edgeStyle=none;rounded=0;orthogonalLoop=1;jettySize=auto;html=1;exitX=0.5;exitY=1;exitDx=0;exitDy=0;entryX=0.5;entryY=0;entryDx=0;entryDy=0;fontSize=30;endArrow=none;endFill=0;fillColor=#d5e8d4;strokeColor=#82b366;" edge="1" parent="1" source="QAr_Sbfl9N1JEadzkFcU-233" target="QAr_Sbfl9N1JEadzkFcU-312">
          <mxGeometry relative="1" as="geometry" />
        </mxCell>
        <mxCell id="QAr_Sbfl9N1JEadzkFcU-229" style="edgeStyle=none;rounded=0;orthogonalLoop=1;jettySize=auto;html=1;exitX=0.5;exitY=1;exitDx=0;exitDy=0;entryX=0.5;entryY=0;entryDx=0;entryDy=0;fontSize=30;endArrow=none;endFill=0;fillColor=#d5e8d4;strokeColor=#82b366;" edge="1" parent="1" source="QAr_Sbfl9N1JEadzkFcU-233" target="QAr_Sbfl9N1JEadzkFcU-313">
          <mxGeometry relative="1" as="geometry" />
        </mxCell>
        <mxCell id="QAr_Sbfl9N1JEadzkFcU-230" style="edgeStyle=none;rounded=0;orthogonalLoop=1;jettySize=auto;html=1;exitX=0.5;exitY=1;exitDx=0;exitDy=0;entryX=0.5;entryY=0;entryDx=0;entryDy=0;fontSize=30;endArrow=none;endFill=0;fillColor=#d5e8d4;strokeColor=#82b366;" edge="1" parent="1" source="QAr_Sbfl9N1JEadzkFcU-233" target="QAr_Sbfl9N1JEadzkFcU-314">
          <mxGeometry relative="1" as="geometry" />
        </mxCell>
        <mxCell id="QAr_Sbfl9N1JEadzkFcU-231" style="edgeStyle=none;rounded=0;orthogonalLoop=1;jettySize=auto;html=1;exitX=0.5;exitY=1;exitDx=0;exitDy=0;entryX=0.5;entryY=0;entryDx=0;entryDy=0;fontSize=30;endArrow=none;endFill=0;fillColor=#d5e8d4;strokeColor=#82b366;" edge="1" parent="1" source="QAr_Sbfl9N1JEadzkFcU-233" target="QAr_Sbfl9N1JEadzkFcU-315">
          <mxGeometry relative="1" as="geometry" />
        </mxCell>
        <mxCell id="QAr_Sbfl9N1JEadzkFcU-232" style="edgeStyle=none;rounded=0;orthogonalLoop=1;jettySize=auto;html=1;exitX=0.5;exitY=1;exitDx=0;exitDy=0;entryX=0.5;entryY=0;entryDx=0;entryDy=0;fontSize=30;endArrow=none;endFill=0;fillColor=#d5e8d4;strokeColor=#82b366;" edge="1" parent="1" source="QAr_Sbfl9N1JEadzkFcU-233" target="QAr_Sbfl9N1JEadzkFcU-316">
          <mxGeometry relative="1" as="geometry" />
        </mxCell>
        <mxCell id="QAr_Sbfl9N1JEadzkFcU-233" value="" style="ellipse;whiteSpace=wrap;html=1;aspect=fixed;fillColor=#d5e8d4;strokeWidth=2;strokeColor=#82b366;" vertex="1" parent="1">
          <mxGeometry x="974.92" y="480" width="40" height="40" as="geometry" />
        </mxCell>
        <mxCell id="QAr_Sbfl9N1JEadzkFcU-234" style="edgeStyle=none;rounded=0;orthogonalLoop=1;jettySize=auto;html=1;exitX=0.5;exitY=1;exitDx=0;exitDy=0;entryX=0.5;entryY=0;entryDx=0;entryDy=0;fontSize=30;endArrow=none;endFill=0;fillColor=#f8cecc;strokeColor=#b85450;" edge="1" parent="1" source="QAr_Sbfl9N1JEadzkFcU-245" target="QAr_Sbfl9N1JEadzkFcU-306">
          <mxGeometry relative="1" as="geometry" />
        </mxCell>
        <mxCell id="QAr_Sbfl9N1JEadzkFcU-235" style="edgeStyle=none;rounded=0;orthogonalLoop=1;jettySize=auto;html=1;exitX=0.5;exitY=1;exitDx=0;exitDy=0;entryX=0.5;entryY=0;entryDx=0;entryDy=0;fontSize=30;endArrow=none;endFill=0;fillColor=#f8cecc;strokeColor=#b85450;" edge="1" parent="1" source="QAr_Sbfl9N1JEadzkFcU-245" target="QAr_Sbfl9N1JEadzkFcU-307">
          <mxGeometry relative="1" as="geometry" />
        </mxCell>
        <mxCell id="QAr_Sbfl9N1JEadzkFcU-236" style="edgeStyle=none;rounded=0;orthogonalLoop=1;jettySize=auto;html=1;exitX=0.5;exitY=1;exitDx=0;exitDy=0;entryX=0.5;entryY=0;entryDx=0;entryDy=0;fontSize=30;endArrow=none;endFill=0;fillColor=#f8cecc;strokeColor=#b85450;" edge="1" parent="1" source="QAr_Sbfl9N1JEadzkFcU-245" target="QAr_Sbfl9N1JEadzkFcU-308">
          <mxGeometry relative="1" as="geometry" />
        </mxCell>
        <mxCell id="QAr_Sbfl9N1JEadzkFcU-237" style="edgeStyle=none;rounded=0;orthogonalLoop=1;jettySize=auto;html=1;exitX=0.5;exitY=1;exitDx=0;exitDy=0;entryX=0.5;entryY=0;entryDx=0;entryDy=0;fontSize=30;endArrow=none;endFill=0;fillColor=#f8cecc;strokeColor=#b85450;" edge="1" parent="1" source="QAr_Sbfl9N1JEadzkFcU-245" target="QAr_Sbfl9N1JEadzkFcU-309">
          <mxGeometry relative="1" as="geometry" />
        </mxCell>
        <mxCell id="QAr_Sbfl9N1JEadzkFcU-238" style="edgeStyle=none;rounded=0;orthogonalLoop=1;jettySize=auto;html=1;exitX=0.5;exitY=1;exitDx=0;exitDy=0;entryX=0.5;entryY=0;entryDx=0;entryDy=0;fontSize=30;endArrow=none;endFill=0;fillColor=#f8cecc;strokeColor=#b85450;" edge="1" parent="1" source="QAr_Sbfl9N1JEadzkFcU-245" target="QAr_Sbfl9N1JEadzkFcU-310">
          <mxGeometry relative="1" as="geometry" />
        </mxCell>
        <mxCell id="QAr_Sbfl9N1JEadzkFcU-239" style="edgeStyle=none;rounded=0;orthogonalLoop=1;jettySize=auto;html=1;exitX=0.5;exitY=1;exitDx=0;exitDy=0;entryX=0.5;entryY=0;entryDx=0;entryDy=0;fontSize=30;endArrow=none;endFill=0;fillColor=#f8cecc;strokeColor=#b85450;" edge="1" parent="1" source="QAr_Sbfl9N1JEadzkFcU-245" target="QAr_Sbfl9N1JEadzkFcU-311">
          <mxGeometry relative="1" as="geometry" />
        </mxCell>
        <mxCell id="QAr_Sbfl9N1JEadzkFcU-240" style="edgeStyle=none;rounded=0;orthogonalLoop=1;jettySize=auto;html=1;exitX=0.5;exitY=1;exitDx=0;exitDy=0;entryX=0.5;entryY=0;entryDx=0;entryDy=0;fontSize=30;endArrow=none;endFill=0;fillColor=#f8cecc;strokeColor=#b85450;" edge="1" parent="1" source="QAr_Sbfl9N1JEadzkFcU-245" target="QAr_Sbfl9N1JEadzkFcU-312">
          <mxGeometry relative="1" as="geometry" />
        </mxCell>
        <mxCell id="QAr_Sbfl9N1JEadzkFcU-241" style="edgeStyle=none;rounded=0;orthogonalLoop=1;jettySize=auto;html=1;exitX=0.5;exitY=1;exitDx=0;exitDy=0;entryX=0.5;entryY=0;entryDx=0;entryDy=0;fontSize=30;endArrow=none;endFill=0;fillColor=#f8cecc;strokeColor=#b85450;" edge="1" parent="1" source="QAr_Sbfl9N1JEadzkFcU-245" target="QAr_Sbfl9N1JEadzkFcU-313">
          <mxGeometry relative="1" as="geometry" />
        </mxCell>
        <mxCell id="QAr_Sbfl9N1JEadzkFcU-242" style="edgeStyle=none;rounded=0;orthogonalLoop=1;jettySize=auto;html=1;exitX=0.5;exitY=1;exitDx=0;exitDy=0;entryX=0.5;entryY=0;entryDx=0;entryDy=0;fontSize=30;endArrow=none;endFill=0;fillColor=#f8cecc;strokeColor=#b85450;" edge="1" parent="1" source="QAr_Sbfl9N1JEadzkFcU-245" target="QAr_Sbfl9N1JEadzkFcU-314">
          <mxGeometry relative="1" as="geometry" />
        </mxCell>
        <mxCell id="QAr_Sbfl9N1JEadzkFcU-243" style="edgeStyle=none;rounded=0;orthogonalLoop=1;jettySize=auto;html=1;exitX=0.5;exitY=1;exitDx=0;exitDy=0;entryX=0.5;entryY=0;entryDx=0;entryDy=0;fontSize=30;endArrow=none;endFill=0;fillColor=#f8cecc;strokeColor=#b85450;" edge="1" parent="1" source="QAr_Sbfl9N1JEadzkFcU-245" target="QAr_Sbfl9N1JEadzkFcU-315">
          <mxGeometry relative="1" as="geometry" />
        </mxCell>
        <mxCell id="QAr_Sbfl9N1JEadzkFcU-244" style="edgeStyle=none;rounded=0;orthogonalLoop=1;jettySize=auto;html=1;exitX=0.5;exitY=1;exitDx=0;exitDy=0;entryX=0.5;entryY=0;entryDx=0;entryDy=0;fontSize=30;endArrow=none;endFill=0;fillColor=#f8cecc;strokeColor=#b85450;" edge="1" parent="1" source="QAr_Sbfl9N1JEadzkFcU-245" target="QAr_Sbfl9N1JEadzkFcU-316">
          <mxGeometry relative="1" as="geometry" />
        </mxCell>
        <mxCell id="QAr_Sbfl9N1JEadzkFcU-245" value="" style="ellipse;whiteSpace=wrap;html=1;aspect=fixed;fillColor=#f8cecc;strokeWidth=2;strokeColor=#b85450;" vertex="1" parent="1">
          <mxGeometry x="1043.67" y="480" width="40" height="40" as="geometry" />
        </mxCell>
        <mxCell id="QAr_Sbfl9N1JEadzkFcU-246" style="edgeStyle=none;rounded=0;orthogonalLoop=1;jettySize=auto;html=1;exitX=0.5;exitY=1;exitDx=0;exitDy=0;entryX=0.5;entryY=0;entryDx=0;entryDy=0;fontSize=30;endArrow=none;endFill=0;fillColor=#f8cecc;strokeColor=#b85450;" edge="1" parent="1" source="QAr_Sbfl9N1JEadzkFcU-257" target="QAr_Sbfl9N1JEadzkFcU-306">
          <mxGeometry relative="1" as="geometry" />
        </mxCell>
        <mxCell id="QAr_Sbfl9N1JEadzkFcU-247" style="edgeStyle=none;rounded=0;orthogonalLoop=1;jettySize=auto;html=1;exitX=0.5;exitY=1;exitDx=0;exitDy=0;entryX=0.5;entryY=0;entryDx=0;entryDy=0;fontSize=30;endArrow=none;endFill=0;fillColor=#f8cecc;strokeColor=#b85450;" edge="1" parent="1" source="QAr_Sbfl9N1JEadzkFcU-257" target="QAr_Sbfl9N1JEadzkFcU-307">
          <mxGeometry relative="1" as="geometry" />
        </mxCell>
        <mxCell id="QAr_Sbfl9N1JEadzkFcU-248" style="edgeStyle=none;rounded=0;orthogonalLoop=1;jettySize=auto;html=1;exitX=0.5;exitY=1;exitDx=0;exitDy=0;entryX=0.5;entryY=0;entryDx=0;entryDy=0;fontSize=30;endArrow=none;endFill=0;fillColor=#f8cecc;strokeColor=#b85450;" edge="1" parent="1" source="QAr_Sbfl9N1JEadzkFcU-257" target="QAr_Sbfl9N1JEadzkFcU-308">
          <mxGeometry relative="1" as="geometry" />
        </mxCell>
        <mxCell id="QAr_Sbfl9N1JEadzkFcU-249" style="edgeStyle=none;rounded=0;orthogonalLoop=1;jettySize=auto;html=1;exitX=0.5;exitY=1;exitDx=0;exitDy=0;entryX=0.5;entryY=0;entryDx=0;entryDy=0;fontSize=30;endArrow=none;endFill=0;fillColor=#f8cecc;strokeColor=#b85450;" edge="1" parent="1" source="QAr_Sbfl9N1JEadzkFcU-257" target="QAr_Sbfl9N1JEadzkFcU-309">
          <mxGeometry relative="1" as="geometry" />
        </mxCell>
        <mxCell id="QAr_Sbfl9N1JEadzkFcU-250" style="edgeStyle=none;rounded=0;orthogonalLoop=1;jettySize=auto;html=1;exitX=0.5;exitY=1;exitDx=0;exitDy=0;entryX=0.5;entryY=0;entryDx=0;entryDy=0;fontSize=30;endArrow=none;endFill=0;fillColor=#f8cecc;strokeColor=#b85450;" edge="1" parent="1" source="QAr_Sbfl9N1JEadzkFcU-257" target="QAr_Sbfl9N1JEadzkFcU-310">
          <mxGeometry relative="1" as="geometry" />
        </mxCell>
        <mxCell id="QAr_Sbfl9N1JEadzkFcU-251" style="edgeStyle=none;rounded=0;orthogonalLoop=1;jettySize=auto;html=1;exitX=0.5;exitY=1;exitDx=0;exitDy=0;entryX=0.5;entryY=0;entryDx=0;entryDy=0;fontSize=30;endArrow=none;endFill=0;fillColor=#f8cecc;strokeColor=#b85450;" edge="1" parent="1" source="QAr_Sbfl9N1JEadzkFcU-257" target="QAr_Sbfl9N1JEadzkFcU-311">
          <mxGeometry relative="1" as="geometry" />
        </mxCell>
        <mxCell id="QAr_Sbfl9N1JEadzkFcU-252" style="edgeStyle=none;rounded=0;orthogonalLoop=1;jettySize=auto;html=1;exitX=0.5;exitY=1;exitDx=0;exitDy=0;entryX=0.5;entryY=0;entryDx=0;entryDy=0;fontSize=30;endArrow=none;endFill=0;fillColor=#f8cecc;strokeColor=#b85450;" edge="1" parent="1" source="QAr_Sbfl9N1JEadzkFcU-257" target="QAr_Sbfl9N1JEadzkFcU-312">
          <mxGeometry relative="1" as="geometry" />
        </mxCell>
        <mxCell id="QAr_Sbfl9N1JEadzkFcU-253" style="edgeStyle=none;rounded=0;orthogonalLoop=1;jettySize=auto;html=1;exitX=0.5;exitY=1;exitDx=0;exitDy=0;entryX=0.5;entryY=0;entryDx=0;entryDy=0;fontSize=30;endArrow=none;endFill=0;fillColor=#f8cecc;strokeColor=#b85450;" edge="1" parent="1" source="QAr_Sbfl9N1JEadzkFcU-257" target="QAr_Sbfl9N1JEadzkFcU-313">
          <mxGeometry relative="1" as="geometry" />
        </mxCell>
        <mxCell id="QAr_Sbfl9N1JEadzkFcU-254" style="edgeStyle=none;rounded=0;orthogonalLoop=1;jettySize=auto;html=1;exitX=0.5;exitY=1;exitDx=0;exitDy=0;entryX=0.5;entryY=0;entryDx=0;entryDy=0;fontSize=30;endArrow=none;endFill=0;fillColor=#f8cecc;strokeColor=#b85450;" edge="1" parent="1" source="QAr_Sbfl9N1JEadzkFcU-257" target="QAr_Sbfl9N1JEadzkFcU-314">
          <mxGeometry relative="1" as="geometry" />
        </mxCell>
        <mxCell id="QAr_Sbfl9N1JEadzkFcU-255" style="edgeStyle=none;rounded=0;orthogonalLoop=1;jettySize=auto;html=1;exitX=0.5;exitY=1;exitDx=0;exitDy=0;entryX=0.5;entryY=0;entryDx=0;entryDy=0;fontSize=30;endArrow=none;endFill=0;fillColor=#f8cecc;strokeColor=#b85450;" edge="1" parent="1" source="QAr_Sbfl9N1JEadzkFcU-257" target="QAr_Sbfl9N1JEadzkFcU-315">
          <mxGeometry relative="1" as="geometry" />
        </mxCell>
        <mxCell id="QAr_Sbfl9N1JEadzkFcU-256" style="edgeStyle=none;rounded=0;orthogonalLoop=1;jettySize=auto;html=1;exitX=0.5;exitY=1;exitDx=0;exitDy=0;entryX=0.5;entryY=0;entryDx=0;entryDy=0;fontSize=30;endArrow=none;endFill=0;fillColor=#f8cecc;strokeColor=#b85450;" edge="1" parent="1" source="QAr_Sbfl9N1JEadzkFcU-257" target="QAr_Sbfl9N1JEadzkFcU-316">
          <mxGeometry relative="1" as="geometry" />
        </mxCell>
        <mxCell id="QAr_Sbfl9N1JEadzkFcU-257" value="" style="ellipse;whiteSpace=wrap;html=1;aspect=fixed;fillColor=#f8cecc;strokeWidth=2;strokeColor=#b85450;" vertex="1" parent="1">
          <mxGeometry x="1114.17" y="480" width="40" height="40" as="geometry" />
        </mxCell>
        <mxCell id="QAr_Sbfl9N1JEadzkFcU-258" style="edgeStyle=none;rounded=0;orthogonalLoop=1;jettySize=auto;html=1;exitX=0.5;exitY=1;exitDx=0;exitDy=0;fontSize=30;endArrow=none;endFill=0;entryX=0.5;entryY=0;entryDx=0;entryDy=0;fillColor=#f8cecc;strokeColor=#b85450;" edge="1" parent="1" source="QAr_Sbfl9N1JEadzkFcU-269" target="QAr_Sbfl9N1JEadzkFcU-306">
          <mxGeometry relative="1" as="geometry">
            <mxPoint x="555" y="670" as="targetPoint" />
          </mxGeometry>
        </mxCell>
        <mxCell id="QAr_Sbfl9N1JEadzkFcU-259" style="edgeStyle=none;rounded=0;orthogonalLoop=1;jettySize=auto;html=1;exitX=0.5;exitY=1;exitDx=0;exitDy=0;entryX=0.5;entryY=0;entryDx=0;entryDy=0;fontSize=30;endArrow=none;endFill=0;fillColor=#f8cecc;strokeColor=#b85450;" edge="1" parent="1" source="QAr_Sbfl9N1JEadzkFcU-269" target="QAr_Sbfl9N1JEadzkFcU-307">
          <mxGeometry relative="1" as="geometry" />
        </mxCell>
        <mxCell id="QAr_Sbfl9N1JEadzkFcU-260" style="edgeStyle=none;rounded=0;orthogonalLoop=1;jettySize=auto;html=1;exitX=0.5;exitY=1;exitDx=0;exitDy=0;entryX=0.5;entryY=0;entryDx=0;entryDy=0;fontSize=30;endArrow=none;endFill=0;fillColor=#f8cecc;strokeColor=#b85450;" edge="1" parent="1" source="QAr_Sbfl9N1JEadzkFcU-269" target="QAr_Sbfl9N1JEadzkFcU-308">
          <mxGeometry relative="1" as="geometry" />
        </mxCell>
        <mxCell id="QAr_Sbfl9N1JEadzkFcU-261" style="edgeStyle=none;rounded=0;orthogonalLoop=1;jettySize=auto;html=1;exitX=0.5;exitY=1;exitDx=0;exitDy=0;entryX=0.5;entryY=0;entryDx=0;entryDy=0;fontSize=30;endArrow=none;endFill=0;fillColor=#f8cecc;strokeColor=#b85450;" edge="1" parent="1" source="QAr_Sbfl9N1JEadzkFcU-269" target="QAr_Sbfl9N1JEadzkFcU-309">
          <mxGeometry relative="1" as="geometry" />
        </mxCell>
        <mxCell id="QAr_Sbfl9N1JEadzkFcU-262" style="edgeStyle=none;rounded=0;orthogonalLoop=1;jettySize=auto;html=1;exitX=0.5;exitY=1;exitDx=0;exitDy=0;entryX=0.5;entryY=0;entryDx=0;entryDy=0;fontSize=30;endArrow=none;endFill=0;fillColor=#f8cecc;strokeColor=#b85450;" edge="1" parent="1" source="QAr_Sbfl9N1JEadzkFcU-269" target="QAr_Sbfl9N1JEadzkFcU-310">
          <mxGeometry relative="1" as="geometry" />
        </mxCell>
        <mxCell id="QAr_Sbfl9N1JEadzkFcU-263" style="edgeStyle=none;rounded=0;orthogonalLoop=1;jettySize=auto;html=1;exitX=0.5;exitY=1;exitDx=0;exitDy=0;entryX=0.5;entryY=0;entryDx=0;entryDy=0;fontSize=30;endArrow=none;endFill=0;fillColor=#f8cecc;strokeColor=#b85450;" edge="1" parent="1" source="QAr_Sbfl9N1JEadzkFcU-269" target="QAr_Sbfl9N1JEadzkFcU-311">
          <mxGeometry relative="1" as="geometry" />
        </mxCell>
        <mxCell id="QAr_Sbfl9N1JEadzkFcU-264" style="edgeStyle=none;rounded=0;orthogonalLoop=1;jettySize=auto;html=1;exitX=0.5;exitY=1;exitDx=0;exitDy=0;entryX=0.5;entryY=0;entryDx=0;entryDy=0;fontSize=30;endArrow=none;endFill=0;fillColor=#f8cecc;strokeColor=#b85450;" edge="1" parent="1" source="QAr_Sbfl9N1JEadzkFcU-269" target="QAr_Sbfl9N1JEadzkFcU-312">
          <mxGeometry relative="1" as="geometry" />
        </mxCell>
        <mxCell id="QAr_Sbfl9N1JEadzkFcU-265" style="edgeStyle=none;rounded=0;orthogonalLoop=1;jettySize=auto;html=1;exitX=0.5;exitY=1;exitDx=0;exitDy=0;entryX=0.5;entryY=0;entryDx=0;entryDy=0;fontSize=30;endArrow=none;endFill=0;fillColor=#f8cecc;strokeColor=#b85450;" edge="1" parent="1" source="QAr_Sbfl9N1JEadzkFcU-269" target="QAr_Sbfl9N1JEadzkFcU-313">
          <mxGeometry relative="1" as="geometry" />
        </mxCell>
        <mxCell id="QAr_Sbfl9N1JEadzkFcU-266" style="edgeStyle=none;rounded=0;orthogonalLoop=1;jettySize=auto;html=1;exitX=0.5;exitY=1;exitDx=0;exitDy=0;entryX=0.5;entryY=0;entryDx=0;entryDy=0;fontSize=30;endArrow=none;endFill=0;fillColor=#f8cecc;strokeColor=#b85450;" edge="1" parent="1" source="QAr_Sbfl9N1JEadzkFcU-269" target="QAr_Sbfl9N1JEadzkFcU-314">
          <mxGeometry relative="1" as="geometry" />
        </mxCell>
        <mxCell id="QAr_Sbfl9N1JEadzkFcU-267" style="edgeStyle=none;rounded=0;orthogonalLoop=1;jettySize=auto;html=1;exitX=0.5;exitY=1;exitDx=0;exitDy=0;entryX=0.5;entryY=0;entryDx=0;entryDy=0;fontSize=30;endArrow=none;endFill=0;fillColor=#f8cecc;strokeColor=#b85450;" edge="1" parent="1" source="QAr_Sbfl9N1JEadzkFcU-269" target="QAr_Sbfl9N1JEadzkFcU-315">
          <mxGeometry relative="1" as="geometry" />
        </mxCell>
        <mxCell id="QAr_Sbfl9N1JEadzkFcU-268" style="edgeStyle=none;rounded=0;orthogonalLoop=1;jettySize=auto;html=1;exitX=0.5;exitY=1;exitDx=0;exitDy=0;entryX=0.5;entryY=0;entryDx=0;entryDy=0;fontSize=30;endArrow=none;endFill=0;fillColor=#f8cecc;strokeColor=#b85450;" edge="1" parent="1" source="QAr_Sbfl9N1JEadzkFcU-269" target="QAr_Sbfl9N1JEadzkFcU-316">
          <mxGeometry relative="1" as="geometry" />
        </mxCell>
        <mxCell id="QAr_Sbfl9N1JEadzkFcU-269" value="" style="ellipse;whiteSpace=wrap;html=1;aspect=fixed;fillColor=#f8cecc;strokeWidth=2;strokeColor=#b85450;" vertex="1" parent="1">
          <mxGeometry x="1183.92" y="480" width="40" height="40" as="geometry" />
        </mxCell>
        <mxCell id="QAr_Sbfl9N1JEadzkFcU-270" style="edgeStyle=none;rounded=0;orthogonalLoop=1;jettySize=auto;html=1;exitX=0.5;exitY=1;exitDx=0;exitDy=0;entryX=0.5;entryY=0;entryDx=0;entryDy=0;fontSize=30;endArrow=none;endFill=0;fillColor=#f8cecc;strokeColor=#b85450;" edge="1" parent="1" source="QAr_Sbfl9N1JEadzkFcU-281" target="QAr_Sbfl9N1JEadzkFcU-306">
          <mxGeometry relative="1" as="geometry" />
        </mxCell>
        <mxCell id="QAr_Sbfl9N1JEadzkFcU-271" style="edgeStyle=none;rounded=0;orthogonalLoop=1;jettySize=auto;html=1;exitX=0.5;exitY=1;exitDx=0;exitDy=0;entryX=0.5;entryY=0;entryDx=0;entryDy=0;fontSize=30;endArrow=none;endFill=0;fillColor=#f8cecc;strokeColor=#b85450;" edge="1" parent="1" source="QAr_Sbfl9N1JEadzkFcU-281" target="QAr_Sbfl9N1JEadzkFcU-307">
          <mxGeometry relative="1" as="geometry" />
        </mxCell>
        <mxCell id="QAr_Sbfl9N1JEadzkFcU-272" style="edgeStyle=none;rounded=0;orthogonalLoop=1;jettySize=auto;html=1;exitX=0.5;exitY=1;exitDx=0;exitDy=0;entryX=0.5;entryY=0;entryDx=0;entryDy=0;fontSize=30;endArrow=none;endFill=0;fillColor=#f8cecc;strokeColor=#b85450;" edge="1" parent="1" source="QAr_Sbfl9N1JEadzkFcU-281" target="QAr_Sbfl9N1JEadzkFcU-308">
          <mxGeometry relative="1" as="geometry" />
        </mxCell>
        <mxCell id="QAr_Sbfl9N1JEadzkFcU-273" style="edgeStyle=none;rounded=0;orthogonalLoop=1;jettySize=auto;html=1;exitX=0.5;exitY=1;exitDx=0;exitDy=0;entryX=0.5;entryY=0;entryDx=0;entryDy=0;fontSize=30;endArrow=none;endFill=0;fillColor=#f8cecc;strokeColor=#b85450;" edge="1" parent="1" source="QAr_Sbfl9N1JEadzkFcU-281" target="QAr_Sbfl9N1JEadzkFcU-309">
          <mxGeometry relative="1" as="geometry" />
        </mxCell>
        <mxCell id="QAr_Sbfl9N1JEadzkFcU-274" style="edgeStyle=none;rounded=0;orthogonalLoop=1;jettySize=auto;html=1;exitX=0.5;exitY=1;exitDx=0;exitDy=0;entryX=0.5;entryY=0;entryDx=0;entryDy=0;fontSize=30;endArrow=none;endFill=0;fillColor=#f8cecc;strokeColor=#b85450;" edge="1" parent="1" source="QAr_Sbfl9N1JEadzkFcU-281" target="QAr_Sbfl9N1JEadzkFcU-310">
          <mxGeometry relative="1" as="geometry" />
        </mxCell>
        <mxCell id="QAr_Sbfl9N1JEadzkFcU-275" style="edgeStyle=none;rounded=0;orthogonalLoop=1;jettySize=auto;html=1;exitX=0.5;exitY=1;exitDx=0;exitDy=0;entryX=0.5;entryY=0;entryDx=0;entryDy=0;fontSize=30;endArrow=none;endFill=0;fillColor=#f8cecc;strokeColor=#b85450;" edge="1" parent="1" source="QAr_Sbfl9N1JEadzkFcU-281" target="QAr_Sbfl9N1JEadzkFcU-311">
          <mxGeometry relative="1" as="geometry" />
        </mxCell>
        <mxCell id="QAr_Sbfl9N1JEadzkFcU-276" style="edgeStyle=none;rounded=0;orthogonalLoop=1;jettySize=auto;html=1;exitX=0.5;exitY=1;exitDx=0;exitDy=0;entryX=0.5;entryY=0;entryDx=0;entryDy=0;fontSize=30;endArrow=none;endFill=0;fillColor=#f8cecc;strokeColor=#b85450;" edge="1" parent="1" source="QAr_Sbfl9N1JEadzkFcU-281" target="QAr_Sbfl9N1JEadzkFcU-312">
          <mxGeometry relative="1" as="geometry" />
        </mxCell>
        <mxCell id="QAr_Sbfl9N1JEadzkFcU-277" style="edgeStyle=none;rounded=0;orthogonalLoop=1;jettySize=auto;html=1;exitX=0.5;exitY=1;exitDx=0;exitDy=0;entryX=0.5;entryY=0;entryDx=0;entryDy=0;fontSize=30;endArrow=none;endFill=0;fillColor=#f8cecc;strokeColor=#b85450;" edge="1" parent="1" source="QAr_Sbfl9N1JEadzkFcU-281" target="QAr_Sbfl9N1JEadzkFcU-314">
          <mxGeometry relative="1" as="geometry" />
        </mxCell>
        <mxCell id="QAr_Sbfl9N1JEadzkFcU-278" style="edgeStyle=none;rounded=0;orthogonalLoop=1;jettySize=auto;html=1;exitX=0.5;exitY=1;exitDx=0;exitDy=0;entryX=0.5;entryY=0;entryDx=0;entryDy=0;fontSize=30;endArrow=none;endFill=0;fillColor=#f8cecc;strokeColor=#b85450;" edge="1" parent="1" source="QAr_Sbfl9N1JEadzkFcU-281" target="QAr_Sbfl9N1JEadzkFcU-315">
          <mxGeometry relative="1" as="geometry" />
        </mxCell>
        <mxCell id="QAr_Sbfl9N1JEadzkFcU-279" style="edgeStyle=none;rounded=0;orthogonalLoop=1;jettySize=auto;html=1;exitX=0.5;exitY=1;exitDx=0;exitDy=0;entryX=0.5;entryY=0;entryDx=0;entryDy=0;fontSize=35;endArrow=none;endFill=0;fillColor=#f8cecc;strokeColor=#b85450;" edge="1" parent="1" source="QAr_Sbfl9N1JEadzkFcU-281" target="QAr_Sbfl9N1JEadzkFcU-316">
          <mxGeometry relative="1" as="geometry" />
        </mxCell>
        <mxCell id="QAr_Sbfl9N1JEadzkFcU-280" style="edgeStyle=none;rounded=0;orthogonalLoop=1;jettySize=auto;html=1;exitX=0.5;exitY=1;exitDx=0;exitDy=0;entryX=0.5;entryY=0;entryDx=0;entryDy=0;fontSize=35;endArrow=none;endFill=0;fillColor=#f8cecc;strokeColor=#b85450;" edge="1" parent="1" source="QAr_Sbfl9N1JEadzkFcU-281" target="QAr_Sbfl9N1JEadzkFcU-313">
          <mxGeometry relative="1" as="geometry" />
        </mxCell>
        <mxCell id="QAr_Sbfl9N1JEadzkFcU-281" value="" style="ellipse;whiteSpace=wrap;html=1;aspect=fixed;fillColor=#f8cecc;strokeWidth=2;strokeColor=#b85450;" vertex="1" parent="1">
          <mxGeometry x="1249.42" y="480" width="40" height="40" as="geometry" />
        </mxCell>
        <mxCell id="QAr_Sbfl9N1JEadzkFcU-282" style="edgeStyle=none;rounded=0;orthogonalLoop=1;jettySize=auto;html=1;exitX=0.5;exitY=1;exitDx=0;exitDy=0;entryX=0.5;entryY=0;entryDx=0;entryDy=0;fontSize=30;endArrow=none;endFill=0;fillColor=#f8cecc;strokeColor=#b85450;" edge="1" parent="1" source="QAr_Sbfl9N1JEadzkFcU-293" target="QAr_Sbfl9N1JEadzkFcU-306">
          <mxGeometry relative="1" as="geometry" />
        </mxCell>
        <mxCell id="QAr_Sbfl9N1JEadzkFcU-283" style="edgeStyle=none;rounded=0;orthogonalLoop=1;jettySize=auto;html=1;exitX=0.5;exitY=1;exitDx=0;exitDy=0;entryX=0.5;entryY=0;entryDx=0;entryDy=0;fontSize=30;endArrow=none;endFill=0;fillColor=#f8cecc;strokeColor=#b85450;" edge="1" parent="1" source="QAr_Sbfl9N1JEadzkFcU-293" target="QAr_Sbfl9N1JEadzkFcU-309">
          <mxGeometry relative="1" as="geometry" />
        </mxCell>
        <mxCell id="QAr_Sbfl9N1JEadzkFcU-284" style="edgeStyle=none;rounded=0;orthogonalLoop=1;jettySize=auto;html=1;exitX=0.5;exitY=1;exitDx=0;exitDy=0;entryX=0.5;entryY=0;entryDx=0;entryDy=0;fontSize=30;endArrow=none;endFill=0;fillColor=#f8cecc;strokeColor=#b85450;" edge="1" parent="1" source="QAr_Sbfl9N1JEadzkFcU-293" target="QAr_Sbfl9N1JEadzkFcU-310">
          <mxGeometry relative="1" as="geometry" />
        </mxCell>
        <mxCell id="QAr_Sbfl9N1JEadzkFcU-285" style="edgeStyle=none;rounded=0;orthogonalLoop=1;jettySize=auto;html=1;exitX=0.5;exitY=1;exitDx=0;exitDy=0;entryX=0.5;entryY=0;entryDx=0;entryDy=0;fontSize=30;endArrow=none;endFill=0;fillColor=#f8cecc;strokeColor=#b85450;" edge="1" parent="1" source="QAr_Sbfl9N1JEadzkFcU-293" target="QAr_Sbfl9N1JEadzkFcU-311">
          <mxGeometry relative="1" as="geometry" />
        </mxCell>
        <mxCell id="QAr_Sbfl9N1JEadzkFcU-286" style="edgeStyle=none;rounded=0;orthogonalLoop=1;jettySize=auto;html=1;exitX=0.5;exitY=1;exitDx=0;exitDy=0;entryX=0.5;entryY=0;entryDx=0;entryDy=0;fontSize=30;endArrow=none;endFill=0;fillColor=#f8cecc;strokeColor=#b85450;" edge="1" parent="1" source="QAr_Sbfl9N1JEadzkFcU-293" target="QAr_Sbfl9N1JEadzkFcU-312">
          <mxGeometry relative="1" as="geometry" />
        </mxCell>
        <mxCell id="QAr_Sbfl9N1JEadzkFcU-287" style="edgeStyle=none;rounded=0;orthogonalLoop=1;jettySize=auto;html=1;exitX=0.5;exitY=1;exitDx=0;exitDy=0;entryX=0.5;entryY=0;entryDx=0;entryDy=0;fontSize=30;endArrow=none;endFill=0;fillColor=#f8cecc;strokeColor=#b85450;" edge="1" parent="1" source="QAr_Sbfl9N1JEadzkFcU-293" target="QAr_Sbfl9N1JEadzkFcU-313">
          <mxGeometry relative="1" as="geometry" />
        </mxCell>
        <mxCell id="QAr_Sbfl9N1JEadzkFcU-288" style="edgeStyle=none;rounded=0;orthogonalLoop=1;jettySize=auto;html=1;exitX=0.5;exitY=1;exitDx=0;exitDy=0;entryX=0.5;entryY=0;entryDx=0;entryDy=0;fontSize=30;endArrow=none;endFill=0;fillColor=#f8cecc;strokeColor=#b85450;" edge="1" parent="1" source="QAr_Sbfl9N1JEadzkFcU-293" target="QAr_Sbfl9N1JEadzkFcU-314">
          <mxGeometry relative="1" as="geometry" />
        </mxCell>
        <mxCell id="QAr_Sbfl9N1JEadzkFcU-289" style="edgeStyle=none;rounded=0;orthogonalLoop=1;jettySize=auto;html=1;exitX=0.5;exitY=1;exitDx=0;exitDy=0;entryX=0.5;entryY=0;entryDx=0;entryDy=0;fontSize=30;endArrow=none;endFill=0;fillColor=#f8cecc;strokeColor=#b85450;" edge="1" parent="1" source="QAr_Sbfl9N1JEadzkFcU-293" target="QAr_Sbfl9N1JEadzkFcU-315">
          <mxGeometry relative="1" as="geometry" />
        </mxCell>
        <mxCell id="QAr_Sbfl9N1JEadzkFcU-290" style="edgeStyle=none;rounded=0;orthogonalLoop=1;jettySize=auto;html=1;exitX=0.5;exitY=1;exitDx=0;exitDy=0;entryX=0.5;entryY=0;entryDx=0;entryDy=0;fontSize=30;endArrow=none;endFill=0;" edge="1" parent="1" source="QAr_Sbfl9N1JEadzkFcU-293" target="QAr_Sbfl9N1JEadzkFcU-316">
          <mxGeometry relative="1" as="geometry" />
        </mxCell>
        <mxCell id="QAr_Sbfl9N1JEadzkFcU-291" style="edgeStyle=none;rounded=0;orthogonalLoop=1;jettySize=auto;html=1;exitX=0.5;exitY=1;exitDx=0;exitDy=0;entryX=0.5;entryY=0;entryDx=0;entryDy=0;fontSize=35;endArrow=none;endFill=0;fillColor=#f8cecc;strokeColor=#b85450;" edge="1" parent="1" source="QAr_Sbfl9N1JEadzkFcU-293" target="QAr_Sbfl9N1JEadzkFcU-307">
          <mxGeometry relative="1" as="geometry" />
        </mxCell>
        <mxCell id="QAr_Sbfl9N1JEadzkFcU-292" style="edgeStyle=none;rounded=0;orthogonalLoop=1;jettySize=auto;html=1;exitX=0.5;exitY=1;exitDx=0;exitDy=0;entryX=0.5;entryY=0;entryDx=0;entryDy=0;fontSize=35;endArrow=none;endFill=0;fillColor=#f8cecc;strokeColor=#b85450;" edge="1" parent="1" source="QAr_Sbfl9N1JEadzkFcU-293" target="QAr_Sbfl9N1JEadzkFcU-308">
          <mxGeometry relative="1" as="geometry" />
        </mxCell>
        <mxCell id="QAr_Sbfl9N1JEadzkFcU-293" value="" style="ellipse;whiteSpace=wrap;html=1;aspect=fixed;fillColor=#f8cecc;strokeWidth=2;strokeColor=#b85450;" vertex="1" parent="1">
          <mxGeometry x="1315.17" y="481" width="40" height="40" as="geometry" />
        </mxCell>
        <mxCell id="QAr_Sbfl9N1JEadzkFcU-294" style="edgeStyle=none;rounded=0;orthogonalLoop=1;jettySize=auto;html=1;exitX=0.5;exitY=1;exitDx=0;exitDy=0;entryX=0.5;entryY=0;entryDx=0;entryDy=0;fontSize=30;endArrow=none;endFill=0;fillColor=#f8cecc;strokeColor=#b85450;" edge="1" parent="1" source="QAr_Sbfl9N1JEadzkFcU-305" target="QAr_Sbfl9N1JEadzkFcU-306">
          <mxGeometry relative="1" as="geometry" />
        </mxCell>
        <mxCell id="QAr_Sbfl9N1JEadzkFcU-295" style="edgeStyle=none;rounded=0;orthogonalLoop=1;jettySize=auto;html=1;exitX=0.5;exitY=1;exitDx=0;exitDy=0;fontSize=30;endArrow=none;endFill=0;entryX=0.5;entryY=0;entryDx=0;entryDy=0;fillColor=#f8cecc;strokeColor=#b85450;" edge="1" parent="1" source="QAr_Sbfl9N1JEadzkFcU-305" target="QAr_Sbfl9N1JEadzkFcU-307">
          <mxGeometry relative="1" as="geometry">
            <mxPoint x="615" y="670" as="targetPoint" />
          </mxGeometry>
        </mxCell>
        <mxCell id="QAr_Sbfl9N1JEadzkFcU-296" style="edgeStyle=none;rounded=0;orthogonalLoop=1;jettySize=auto;html=1;exitX=0.5;exitY=1;exitDx=0;exitDy=0;entryX=0.5;entryY=0;entryDx=0;entryDy=0;fontSize=30;endArrow=none;endFill=0;fillColor=#f8cecc;strokeColor=#b85450;" edge="1" parent="1" source="QAr_Sbfl9N1JEadzkFcU-305" target="QAr_Sbfl9N1JEadzkFcU-308">
          <mxGeometry relative="1" as="geometry" />
        </mxCell>
        <mxCell id="QAr_Sbfl9N1JEadzkFcU-297" style="edgeStyle=none;rounded=0;orthogonalLoop=1;jettySize=auto;html=1;exitX=0.5;exitY=1;exitDx=0;exitDy=0;entryX=0.5;entryY=0;entryDx=0;entryDy=0;fontSize=30;endArrow=none;endFill=0;fillColor=#f8cecc;strokeColor=#b85450;" edge="1" parent="1" source="QAr_Sbfl9N1JEadzkFcU-305" target="QAr_Sbfl9N1JEadzkFcU-309">
          <mxGeometry relative="1" as="geometry" />
        </mxCell>
        <mxCell id="QAr_Sbfl9N1JEadzkFcU-298" style="edgeStyle=none;rounded=0;orthogonalLoop=1;jettySize=auto;html=1;exitX=0.5;exitY=1;exitDx=0;exitDy=0;entryX=0.5;entryY=0;entryDx=0;entryDy=0;fontSize=30;endArrow=none;endFill=0;fillColor=#f8cecc;strokeColor=#b85450;" edge="1" parent="1" source="QAr_Sbfl9N1JEadzkFcU-305" target="QAr_Sbfl9N1JEadzkFcU-310">
          <mxGeometry relative="1" as="geometry" />
        </mxCell>
        <mxCell id="QAr_Sbfl9N1JEadzkFcU-299" style="edgeStyle=none;rounded=0;orthogonalLoop=1;jettySize=auto;html=1;exitX=0.5;exitY=1;exitDx=0;exitDy=0;entryX=0.5;entryY=0;entryDx=0;entryDy=0;fontSize=30;endArrow=none;endFill=0;fillColor=#f8cecc;strokeColor=#b85450;" edge="1" parent="1" source="QAr_Sbfl9N1JEadzkFcU-305" target="QAr_Sbfl9N1JEadzkFcU-311">
          <mxGeometry relative="1" as="geometry" />
        </mxCell>
        <mxCell id="QAr_Sbfl9N1JEadzkFcU-300" style="edgeStyle=none;rounded=0;orthogonalLoop=1;jettySize=auto;html=1;exitX=0.5;exitY=1;exitDx=0;exitDy=0;entryX=0.5;entryY=0;entryDx=0;entryDy=0;fontSize=30;endArrow=none;endFill=0;fillColor=#f8cecc;strokeColor=#b85450;" edge="1" parent="1" source="QAr_Sbfl9N1JEadzkFcU-305" target="QAr_Sbfl9N1JEadzkFcU-312">
          <mxGeometry relative="1" as="geometry" />
        </mxCell>
        <mxCell id="QAr_Sbfl9N1JEadzkFcU-301" style="edgeStyle=none;rounded=0;orthogonalLoop=1;jettySize=auto;html=1;exitX=0.5;exitY=1;exitDx=0;exitDy=0;entryX=0.5;entryY=0;entryDx=0;entryDy=0;fontSize=30;endArrow=none;endFill=0;fillColor=#f8cecc;strokeColor=#b85450;" edge="1" parent="1" source="QAr_Sbfl9N1JEadzkFcU-305" target="QAr_Sbfl9N1JEadzkFcU-313">
          <mxGeometry relative="1" as="geometry" />
        </mxCell>
        <mxCell id="QAr_Sbfl9N1JEadzkFcU-302" style="edgeStyle=none;rounded=0;orthogonalLoop=1;jettySize=auto;html=1;exitX=0.5;exitY=1;exitDx=0;exitDy=0;entryX=0.5;entryY=0;entryDx=0;entryDy=0;fontSize=30;endArrow=none;endFill=0;fillColor=#f8cecc;strokeColor=#b85450;" edge="1" parent="1" source="QAr_Sbfl9N1JEadzkFcU-305" target="QAr_Sbfl9N1JEadzkFcU-314">
          <mxGeometry relative="1" as="geometry" />
        </mxCell>
        <mxCell id="QAr_Sbfl9N1JEadzkFcU-303" style="edgeStyle=none;rounded=0;orthogonalLoop=1;jettySize=auto;html=1;exitX=0.5;exitY=1;exitDx=0;exitDy=0;entryX=0.5;entryY=0;entryDx=0;entryDy=0;fontSize=30;endArrow=none;endFill=0;fillColor=#f8cecc;strokeColor=#b85450;" edge="1" parent="1" source="QAr_Sbfl9N1JEadzkFcU-305" target="QAr_Sbfl9N1JEadzkFcU-315">
          <mxGeometry relative="1" as="geometry" />
        </mxCell>
        <mxCell id="QAr_Sbfl9N1JEadzkFcU-304" style="edgeStyle=none;rounded=0;orthogonalLoop=1;jettySize=auto;html=1;exitX=0.5;exitY=1;exitDx=0;exitDy=0;entryX=0.5;entryY=0;entryDx=0;entryDy=0;fontSize=30;endArrow=none;endFill=0;fillColor=#f8cecc;strokeColor=#b85450;" edge="1" parent="1" source="QAr_Sbfl9N1JEadzkFcU-305" target="QAr_Sbfl9N1JEadzkFcU-316">
          <mxGeometry relative="1" as="geometry" />
        </mxCell>
        <mxCell id="QAr_Sbfl9N1JEadzkFcU-305" value="" style="ellipse;whiteSpace=wrap;html=1;aspect=fixed;fillColor=#f8cecc;strokeWidth=2;strokeColor=#b85450;" vertex="1" parent="1">
          <mxGeometry x="1381.67" y="481" width="40" height="40" as="geometry" />
        </mxCell>
        <mxCell id="QAr_Sbfl9N1JEadzkFcU-306" value="" style="ellipse;whiteSpace=wrap;html=1;aspect=fixed;fillColor=none;strokeWidth=2;" vertex="1" parent="1">
          <mxGeometry x="554.17" y="733" width="40" height="40" as="geometry" />
        </mxCell>
        <mxCell id="QAr_Sbfl9N1JEadzkFcU-307" value="" style="ellipse;whiteSpace=wrap;html=1;aspect=fixed;fillColor=none;strokeWidth=2;" vertex="1" parent="1">
          <mxGeometry x="607.92" y="733" width="40" height="40" as="geometry" />
        </mxCell>
        <mxCell id="QAr_Sbfl9N1JEadzkFcU-308" value="" style="ellipse;whiteSpace=wrap;html=1;aspect=fixed;fillColor=none;strokeWidth=2;" vertex="1" parent="1">
          <mxGeometry x="664.42" y="733" width="40" height="40" as="geometry" />
        </mxCell>
        <mxCell id="QAr_Sbfl9N1JEadzkFcU-309" value="" style="ellipse;whiteSpace=wrap;html=1;aspect=fixed;fillColor=none;strokeWidth=2;" vertex="1" parent="1">
          <mxGeometry x="722.7099999999999" y="733" width="40" height="40" as="geometry" />
        </mxCell>
        <mxCell id="QAr_Sbfl9N1JEadzkFcU-310" value="" style="ellipse;whiteSpace=wrap;html=1;aspect=fixed;fillColor=none;strokeWidth=2;" vertex="1" parent="1">
          <mxGeometry x="779.2099999999999" y="733" width="40" height="40" as="geometry" />
        </mxCell>
        <mxCell id="QAr_Sbfl9N1JEadzkFcU-311" value="" style="ellipse;whiteSpace=wrap;html=1;aspect=fixed;fillColor=none;strokeWidth=2;" vertex="1" parent="1">
          <mxGeometry x="832.9599999999999" y="733" width="40" height="40" as="geometry" />
        </mxCell>
        <mxCell id="QAr_Sbfl9N1JEadzkFcU-312" value="" style="ellipse;whiteSpace=wrap;html=1;aspect=fixed;fillColor=none;strokeWidth=2;" vertex="1" parent="1">
          <mxGeometry x="889.46" y="733" width="40" height="40" as="geometry" />
        </mxCell>
        <mxCell id="QAr_Sbfl9N1JEadzkFcU-313" value="" style="ellipse;whiteSpace=wrap;html=1;aspect=fixed;fillColor=none;strokeWidth=2;" vertex="1" parent="1">
          <mxGeometry x="941.21" y="733" width="40" height="40" as="geometry" />
        </mxCell>
        <mxCell id="QAr_Sbfl9N1JEadzkFcU-314" value="" style="ellipse;whiteSpace=wrap;html=1;aspect=fixed;fillColor=none;strokeWidth=2;" vertex="1" parent="1">
          <mxGeometry x="997.71" y="733" width="40" height="40" as="geometry" />
        </mxCell>
        <mxCell id="QAr_Sbfl9N1JEadzkFcU-315" value="" style="ellipse;whiteSpace=wrap;html=1;aspect=fixed;fillColor=none;strokeWidth=2;" vertex="1" parent="1">
          <mxGeometry x="1051.46" y="733" width="40" height="40" as="geometry" />
        </mxCell>
        <mxCell id="QAr_Sbfl9N1JEadzkFcU-316" value="" style="ellipse;whiteSpace=wrap;html=1;aspect=fixed;fillColor=none;strokeWidth=2;" vertex="1" parent="1">
          <mxGeometry x="1107.96" y="733" width="40" height="40" as="geometry" />
        </mxCell>
        <mxCell id="QAr_Sbfl9N1JEadzkFcU-317" value="" style="verticalLabelPosition=bottom;verticalAlign=top;html=1;shape=mxgraph.basic.patternFillRect;fillStyle=auto;step=5;fillStrokeWidth=0.2;fillStrokeColor=#dddddd;gradientDirection=north;strokeColor=#d6b656;shadow=0;sketch=0;fillColor=#fff2cc;strokeWidth=3;" vertex="1" parent="1">
          <mxGeometry x="584" y="862" width="51" height="47" as="geometry" />
        </mxCell>
        <mxCell id="QAr_Sbfl9N1JEadzkFcU-318" value="" style="verticalLabelPosition=bottom;verticalAlign=top;html=1;shape=mxgraph.basic.patternFillRect;fillStyle=auto;step=5;fillStrokeWidth=0.2;fillStrokeColor=#dddddd;gradientDirection=north;strokeColor=#d6b656;shadow=0;sketch=0;fillColor=#fff2cc;strokeWidth=3;" vertex="1" parent="1">
          <mxGeometry x="635" y="862" width="51" height="47" as="geometry" />
        </mxCell>
        <mxCell id="QAr_Sbfl9N1JEadzkFcU-319" value="" style="verticalLabelPosition=bottom;verticalAlign=top;html=1;shape=mxgraph.basic.patternFillRect;fillStyle=auto;step=5;fillStrokeWidth=0.2;fillStrokeColor=#dddddd;gradientDirection=north;strokeColor=#d6b656;shadow=0;sketch=0;fillColor=#fff2cc;strokeWidth=3;" vertex="1" parent="1">
          <mxGeometry x="686" y="862" width="51" height="47" as="geometry" />
        </mxCell>
        <mxCell id="QAr_Sbfl9N1JEadzkFcU-320" value="" style="verticalLabelPosition=bottom;verticalAlign=top;html=1;shape=mxgraph.basic.patternFillRect;fillStyle=auto;step=5;fillStrokeWidth=0.2;fillStrokeColor=#dddddd;gradientDirection=north;strokeColor=#d6b656;shadow=0;sketch=0;fillColor=#fff2cc;strokeWidth=3;" vertex="1" parent="1">
          <mxGeometry x="737" y="862" width="51" height="47" as="geometry" />
        </mxCell>
        <mxCell id="QAr_Sbfl9N1JEadzkFcU-321" value="" style="verticalLabelPosition=bottom;verticalAlign=top;html=1;shape=mxgraph.basic.patternFillRect;fillStyle=auto;step=5;fillStrokeWidth=0.2;fillStrokeColor=#dddddd;gradientDirection=north;strokeColor=#d6b656;shadow=0;sketch=0;fillColor=#fff2cc;strokeWidth=3;" vertex="1" parent="1">
          <mxGeometry x="788" y="862" width="51" height="47" as="geometry" />
        </mxCell>
        <mxCell id="QAr_Sbfl9N1JEadzkFcU-322" value="" style="verticalLabelPosition=bottom;verticalAlign=top;html=1;shape=mxgraph.basic.patternFillRect;fillStyle=auto;step=5;fillStrokeWidth=0.2;fillStrokeColor=#dddddd;gradientDirection=north;strokeColor=#d6b656;shadow=0;sketch=0;fillColor=#fff2cc;strokeWidth=3;" vertex="1" parent="1">
          <mxGeometry x="839" y="862" width="51" height="47" as="geometry" />
        </mxCell>
        <mxCell id="QAr_Sbfl9N1JEadzkFcU-323" value="" style="verticalLabelPosition=bottom;verticalAlign=top;html=1;shape=mxgraph.basic.patternFillRect;fillStyle=auto;step=5;fillStrokeWidth=0.2;fillStrokeColor=#dddddd;gradientDirection=north;strokeColor=#d6b656;shadow=0;sketch=0;fillColor=#fff2cc;strokeWidth=3;" vertex="1" parent="1">
          <mxGeometry x="890" y="862" width="51" height="47" as="geometry" />
        </mxCell>
        <mxCell id="QAr_Sbfl9N1JEadzkFcU-324" value="" style="verticalLabelPosition=bottom;verticalAlign=top;html=1;shape=mxgraph.basic.patternFillRect;fillStyle=auto;step=5;fillStrokeWidth=0.2;fillStrokeColor=#dddddd;gradientDirection=north;strokeColor=#d6b656;shadow=0;sketch=0;fillColor=#fff2cc;strokeWidth=3;" vertex="1" parent="1">
          <mxGeometry x="941" y="862" width="51" height="47" as="geometry" />
        </mxCell>
        <mxCell id="QAr_Sbfl9N1JEadzkFcU-325" value="" style="verticalLabelPosition=bottom;verticalAlign=top;html=1;shape=mxgraph.basic.patternFillRect;fillStyle=auto;step=5;fillStrokeWidth=0.2;fillStrokeColor=#dddddd;gradientDirection=north;strokeColor=#d6b656;shadow=0;sketch=0;fillColor=#fff2cc;strokeWidth=3;" vertex="1" parent="1">
          <mxGeometry x="992" y="862" width="51" height="47" as="geometry" />
        </mxCell>
        <mxCell id="QAr_Sbfl9N1JEadzkFcU-326" value="" style="verticalLabelPosition=bottom;verticalAlign=top;html=1;shape=mxgraph.basic.patternFillRect;fillStyle=auto;step=5;fillStrokeWidth=0.2;fillStrokeColor=#dddddd;gradientDirection=north;strokeColor=#d6b656;shadow=0;sketch=0;fillColor=#fff2cc;strokeWidth=3;" vertex="1" parent="1">
          <mxGeometry x="1043" y="862" width="51" height="47" as="geometry" />
        </mxCell>
        <mxCell id="QAr_Sbfl9N1JEadzkFcU-327" value="" style="verticalLabelPosition=bottom;verticalAlign=top;html=1;shape=mxgraph.basic.patternFillRect;fillStyle=auto;step=5;fillStrokeWidth=0.2;fillStrokeColor=#dddddd;gradientDirection=north;strokeColor=#d6b656;shadow=0;sketch=0;fillColor=#fff2cc;strokeWidth=3;" vertex="1" parent="1">
          <mxGeometry x="1094" y="862" width="51" height="47" as="geometry" />
        </mxCell>
        <mxCell id="QAr_Sbfl9N1JEadzkFcU-328" value="......" style="text;html=1;resizable=0;autosize=1;align=center;verticalAlign=middle;points=[];fillColor=none;strokeColor=none;rounded=0;fontSize=30;strokeWidth=2;" vertex="1" parent="1">
          <mxGeometry x="834.96" y="465" width="70" height="50" as="geometry" />
        </mxCell>
        <mxCell id="QAr_Sbfl9N1JEadzkFcU-329" value="" style="verticalLabelPosition=bottom;verticalAlign=top;html=1;shape=mxgraph.flowchart.summing_function;shadow=0;sketch=0;fillStyle=auto;fontFamily=Times New Roman;fontSize=27;strokeColor=#000000;strokeWidth=2;fillColor=none;gradientColor=#ffffff;gradientDirection=north;aspect=fixed;" vertex="1" parent="1">
          <mxGeometry x="546" y="322" width="25" height="25" as="geometry" />
        </mxCell>
        <mxCell id="QAr_Sbfl9N1JEadzkFcU-330" value="" style="verticalLabelPosition=bottom;verticalAlign=top;html=1;shape=mxgraph.flowchart.summing_function;shadow=0;sketch=0;fillStyle=auto;fontFamily=Times New Roman;fontSize=27;strokeColor=#000000;strokeWidth=2;fillColor=none;gradientColor=#ffffff;gradientDirection=north;aspect=fixed;" vertex="1" parent="1">
          <mxGeometry x="1162.92" y="318.5" width="25" height="25" as="geometry" />
        </mxCell>
        <mxCell id="QAr_Sbfl9N1JEadzkFcU-331" value="" style="edgeStyle=none;rounded=0;orthogonalLoop=1;jettySize=auto;html=1;exitX=0.5;exitY=1;exitDx=0;exitDy=0;entryX=0.5;entryY=0;entryDx=0;entryDy=0;fontSize=30;endArrow=none;endFill=0;fillColor=#f8cecc;strokeColor=#b85450;" edge="1" parent="1" source="QAr_Sbfl9N1JEadzkFcU-293" target="QAr_Sbfl9N1JEadzkFcU-316">
          <mxGeometry relative="1" as="geometry">
            <mxPoint x="1335.17" y="521" as="sourcePoint" />
            <mxPoint x="684.4200000000001" y="733" as="targetPoint" />
          </mxGeometry>
        </mxCell>
        <mxCell id="QAr_Sbfl9N1JEadzkFcU-332" value="&lt;p&gt;&lt;b style=&quot;font-family: &amp;quot;Times New Roman&amp;quot;;&quot;&gt;&lt;font style=&quot;font-size: 35px;&quot;&gt;Fusion layer&lt;/font&gt;&lt;/b&gt;&lt;br&gt;&lt;/p&gt;" style="text;html=1;resizable=0;autosize=1;align=center;verticalAlign=middle;points=[];fillColor=none;strokeColor=none;rounded=0;shadow=0;dashed=1;sketch=0;fillStyle=auto;" vertex="1" parent="1">
          <mxGeometry x="239.94952380952378" y="413" width="210" height="80" as="geometry" />
        </mxCell>
        <mxCell id="QAr_Sbfl9N1JEadzkFcU-333" value="" style="rounded=0;whiteSpace=wrap;html=1;fillColor=#f5f5f5;fontColor=#333333;strokeColor=#666666;" vertex="1" parent="1">
          <mxGeometry x="1530" y="419" width="270" height="130" as="geometry" />
        </mxCell>
        <mxCell id="QAr_Sbfl9N1JEadzkFcU-334" value="&lt;p&gt;&lt;span style=&quot;font-family: &amp;quot;Times New Roman&amp;quot;; font-size: 27px;&quot;&gt;Pinyin embedding&lt;/span&gt;&lt;br&gt;&lt;/p&gt;" style="text;html=1;resizable=0;autosize=1;align=center;verticalAlign=middle;points=[];fillColor=none;strokeColor=none;rounded=0;shadow=0;dashed=1;sketch=0;fillStyle=auto;" vertex="1" parent="1">
          <mxGeometry x="1579.999523809524" y="415" width="210" height="50" as="geometry" />
        </mxCell>
        <mxCell id="QAr_Sbfl9N1JEadzkFcU-335" value="&lt;p&gt;&lt;span style=&quot;font-family: &amp;quot;Times New Roman&amp;quot;; font-size: 27px;&quot;&gt;Char embedding&lt;/span&gt;&lt;br&gt;&lt;/p&gt;" style="text;html=1;resizable=0;autosize=1;align=center;verticalAlign=middle;points=[];fillColor=none;strokeColor=none;rounded=0;shadow=0;dashed=1;sketch=0;fillStyle=auto;" vertex="1" parent="1">
          <mxGeometry x="1581.999523809524" y="456" width="190" height="50" as="geometry" />
        </mxCell>
        <mxCell id="QAr_Sbfl9N1JEadzkFcU-336" value="&lt;p&gt;&lt;span style=&quot;font-family: &amp;quot;Times New Roman&amp;quot;; font-size: 27px;&quot;&gt;Glyph embedding&lt;/span&gt;&lt;br&gt;&lt;/p&gt;" style="text;html=1;resizable=0;autosize=1;align=center;verticalAlign=middle;points=[];fillColor=none;strokeColor=none;rounded=0;shadow=0;dashed=1;sketch=0;fillStyle=auto;" vertex="1" parent="1">
          <mxGeometry x="1579.999523809524" y="497" width="210" height="50" as="geometry" />
        </mxCell>
        <mxCell id="QAr_Sbfl9N1JEadzkFcU-337" value="" style="verticalLabelPosition=bottom;verticalAlign=top;html=1;shape=mxgraph.basic.patternFillRect;fillStyle=auto;step=5;fillStrokeWidth=0.2;fillStrokeColor=#dddddd;gradientDirection=north;strokeColor=#6c8ebf;shadow=0;sketch=0;fillColor=#dae8fc;" vertex="1" parent="1">
          <mxGeometry x="1549" y="427" width="30" height="30" as="geometry" />
        </mxCell>
        <mxCell id="QAr_Sbfl9N1JEadzkFcU-338" value="" style="verticalLabelPosition=bottom;verticalAlign=top;html=1;shape=mxgraph.basic.patternFillRect;fillStyle=auto;step=5;fillStrokeWidth=0.2;fillStrokeColor=#dddddd;gradientDirection=north;strokeColor=#82b366;shadow=0;sketch=0;fillColor=#d5e8d4;" vertex="1" parent="1">
          <mxGeometry x="1549" y="466" width="30" height="30" as="geometry" />
        </mxCell>
        <mxCell id="QAr_Sbfl9N1JEadzkFcU-339" value="" style="verticalLabelPosition=bottom;verticalAlign=top;html=1;shape=mxgraph.basic.patternFillRect;fillStyle=auto;step=5;fillStrokeWidth=0.2;fillStrokeColor=#dddddd;gradientDirection=north;strokeColor=#b85450;shadow=0;sketch=0;fillColor=#f8cecc;" vertex="1" parent="1">
          <mxGeometry x="1550" y="506" width="30" height="30" as="geometry" />
        </mxCell>
        <mxCell id="QAr_Sbfl9N1JEadzkFcU-340" value="" style="endArrow=none;html=1;rounded=0;fontFamily=Times New Roman;fontSize=27;entryX=0.119;entryY=0.564;entryDx=0;entryDy=0;entryPerimeter=0;startArrow=block;startFill=1;endFill=0;" edge="1" parent="1">
          <mxGeometry width="50" height="50" relative="1" as="geometry">
            <mxPoint x="-6.039999999999964" y="211.50000000000023" as="sourcePoint" />
            <mxPoint x="-6.230000000000018" y="177.1199999999999" as="targetPoint" />
          </mxGeometry>
        </mxCell>
        <mxCell id="QAr_Sbfl9N1JEadzkFcU-341" value="" style="endArrow=none;html=1;rounded=0;fontFamily=Times New Roman;fontSize=27;entryX=0.119;entryY=0.564;entryDx=0;entryDy=0;entryPerimeter=0;startArrow=block;startFill=1;endFill=0;" edge="1" parent="1">
          <mxGeometry width="50" height="50" relative="1" as="geometry">
            <mxPoint x="45.46000000000049" y="211.50000000000023" as="sourcePoint" />
            <mxPoint x="45.27000000000044" y="177.1199999999999" as="targetPoint" />
          </mxGeometry>
        </mxCell>
        <mxCell id="QAr_Sbfl9N1JEadzkFcU-342" value="" style="endArrow=none;html=1;rounded=0;fontFamily=Times New Roman;fontSize=27;entryX=0.119;entryY=0.564;entryDx=0;entryDy=0;entryPerimeter=0;startArrow=block;startFill=1;endFill=0;" edge="1" parent="1">
          <mxGeometry width="50" height="50" relative="1" as="geometry">
            <mxPoint x="96.46000000000004" y="211.50000000000023" as="sourcePoint" />
            <mxPoint x="96.26999999999998" y="177.1199999999999" as="targetPoint" />
          </mxGeometry>
        </mxCell>
        <mxCell id="QAr_Sbfl9N1JEadzkFcU-343" value="" style="endArrow=none;html=1;rounded=0;fontFamily=Times New Roman;fontSize=27;entryX=0.119;entryY=0.564;entryDx=0;entryDy=0;entryPerimeter=0;startArrow=block;startFill=1;endFill=0;" edge="1" parent="1">
          <mxGeometry width="50" height="50" relative="1" as="geometry">
            <mxPoint x="147.46000000000004" y="211.50000000000023" as="sourcePoint" />
            <mxPoint x="147.2700000000009" y="177.1199999999999" as="targetPoint" />
          </mxGeometry>
        </mxCell>
        <mxCell id="QAr_Sbfl9N1JEadzkFcU-344" value="" style="endArrow=none;html=1;rounded=0;fontFamily=Times New Roman;fontSize=27;entryX=0.119;entryY=0.564;entryDx=0;entryDy=0;entryPerimeter=0;startArrow=block;startFill=1;endFill=0;" edge="1" parent="1">
          <mxGeometry width="50" height="50" relative="1" as="geometry">
            <mxPoint x="198.46000000000004" y="211.50000000000023" as="sourcePoint" />
            <mxPoint x="198.27000000000044" y="177.1199999999999" as="targetPoint" />
          </mxGeometry>
        </mxCell>
        <mxCell id="QAr_Sbfl9N1JEadzkFcU-345" value="" style="endArrow=none;html=1;rounded=0;fontFamily=Times New Roman;fontSize=27;entryX=0.119;entryY=0.564;entryDx=0;entryDy=0;entryPerimeter=0;startArrow=block;startFill=1;endFill=0;" edge="1" parent="1">
          <mxGeometry width="50" height="50" relative="1" as="geometry">
            <mxPoint x="249.45999999999958" y="211.50000000000023" as="sourcePoint" />
            <mxPoint x="249.27000000000044" y="177.1199999999999" as="targetPoint" />
          </mxGeometry>
        </mxCell>
        <mxCell id="QAr_Sbfl9N1JEadzkFcU-346" value="" style="endArrow=none;html=1;rounded=0;fontFamily=Times New Roman;fontSize=27;entryX=0.119;entryY=0.564;entryDx=0;entryDy=0;entryPerimeter=0;startArrow=block;startFill=1;endFill=0;" edge="1" parent="1">
          <mxGeometry width="50" height="50" relative="1" as="geometry">
            <mxPoint x="300.46000000000004" y="211.50000000000023" as="sourcePoint" />
            <mxPoint x="300.27000000000044" y="177.1199999999999" as="targetPoint" />
          </mxGeometry>
        </mxCell>
        <mxCell id="QAr_Sbfl9N1JEadzkFcU-347" value="" style="endArrow=none;html=1;rounded=0;fontFamily=Times New Roman;fontSize=27;entryX=0.119;entryY=0.564;entryDx=0;entryDy=0;entryPerimeter=0;startArrow=block;startFill=1;endFill=0;" edge="1" parent="1">
          <mxGeometry width="50" height="50" relative="1" as="geometry">
            <mxPoint x="351.46000000000095" y="211.50000000000023" as="sourcePoint" />
            <mxPoint x="351.27000000000044" y="177.1199999999999" as="targetPoint" />
          </mxGeometry>
        </mxCell>
        <mxCell id="QAr_Sbfl9N1JEadzkFcU-348" value="" style="endArrow=none;html=1;rounded=0;fontFamily=Times New Roman;fontSize=27;entryX=0.119;entryY=0.564;entryDx=0;entryDy=0;entryPerimeter=0;startArrow=block;startFill=1;endFill=0;" edge="1" parent="1">
          <mxGeometry width="50" height="50" relative="1" as="geometry">
            <mxPoint x="402.46000000000004" y="211.50000000000023" as="sourcePoint" />
            <mxPoint x="402.27000000000044" y="177.1199999999999" as="targetPoint" />
          </mxGeometry>
        </mxCell>
        <mxCell id="QAr_Sbfl9N1JEadzkFcU-349" value="" style="endArrow=none;html=1;rounded=0;fontFamily=Times New Roman;fontSize=27;entryX=0.119;entryY=0.564;entryDx=0;entryDy=0;entryPerimeter=0;startArrow=block;startFill=1;endFill=0;" edge="1" parent="1">
          <mxGeometry width="50" height="50" relative="1" as="geometry">
            <mxPoint x="453.4599999999991" y="211.50000000000023" as="sourcePoint" />
            <mxPoint x="453.27000000000044" y="177.1199999999999" as="targetPoint" />
          </mxGeometry>
        </mxCell>
        <mxCell id="QAr_Sbfl9N1JEadzkFcU-350" value="" style="endArrow=none;html=1;rounded=0;fontFamily=Times New Roman;fontSize=27;entryX=0.119;entryY=0.564;entryDx=0;entryDy=0;entryPerimeter=0;startArrow=block;startFill=1;endFill=0;" edge="1" parent="1">
          <mxGeometry width="50" height="50" relative="1" as="geometry">
            <mxPoint x="504.46000000000004" y="211.50000000000023" as="sourcePoint" />
            <mxPoint x="504.27000000000044" y="177.1199999999999" as="targetPoint" />
          </mxGeometry>
        </mxCell>
        <mxCell id="QAr_Sbfl9N1JEadzkFcU-351" value="" style="endArrow=none;html=1;rounded=0;fontFamily=Times New Roman;fontSize=27;entryX=0.119;entryY=0.564;entryDx=0;entryDy=0;entryPerimeter=0;startArrow=block;startFill=1;endFill=0;" edge="1" parent="1">
          <mxGeometry width="50" height="50" relative="1" as="geometry">
            <mxPoint x="-6.790000000000418" y="308.4999999999998" as="sourcePoint" />
            <mxPoint x="-6.980000000000473" y="274.11999999999966" as="targetPoint" />
          </mxGeometry>
        </mxCell>
        <mxCell id="QAr_Sbfl9N1JEadzkFcU-352" value="" style="endArrow=none;html=1;rounded=0;fontFamily=Times New Roman;fontSize=27;entryX=0.119;entryY=0.564;entryDx=0;entryDy=0;entryPerimeter=0;startArrow=block;startFill=1;endFill=0;" edge="1" parent="1">
          <mxGeometry width="50" height="50" relative="1" as="geometry">
            <mxPoint x="44.710000000000036" y="308.4999999999998" as="sourcePoint" />
            <mxPoint x="44.52000000000044" y="274.11999999999966" as="targetPoint" />
          </mxGeometry>
        </mxCell>
        <mxCell id="QAr_Sbfl9N1JEadzkFcU-353" value="" style="endArrow=none;html=1;rounded=0;fontFamily=Times New Roman;fontSize=27;entryX=0.119;entryY=0.564;entryDx=0;entryDy=0;entryPerimeter=0;startArrow=block;startFill=1;endFill=0;" edge="1" parent="1">
          <mxGeometry width="50" height="50" relative="1" as="geometry">
            <mxPoint x="95.70999999999958" y="308.4999999999998" as="sourcePoint" />
            <mxPoint x="95.52000000000044" y="274.11999999999966" as="targetPoint" />
          </mxGeometry>
        </mxCell>
        <mxCell id="QAr_Sbfl9N1JEadzkFcU-354" value="" style="endArrow=none;html=1;rounded=0;fontFamily=Times New Roman;fontSize=27;entryX=0.119;entryY=0.564;entryDx=0;entryDy=0;entryPerimeter=0;startArrow=block;startFill=1;endFill=0;" edge="1" parent="1">
          <mxGeometry width="50" height="50" relative="1" as="geometry">
            <mxPoint x="146.7100000000005" y="308.4999999999998" as="sourcePoint" />
            <mxPoint x="146.52000000000044" y="274.11999999999966" as="targetPoint" />
          </mxGeometry>
        </mxCell>
        <mxCell id="QAr_Sbfl9N1JEadzkFcU-355" value="" style="endArrow=none;html=1;rounded=0;fontFamily=Times New Roman;fontSize=27;entryX=0.119;entryY=0.564;entryDx=0;entryDy=0;entryPerimeter=0;startArrow=block;startFill=1;endFill=0;" edge="1" parent="1">
          <mxGeometry width="50" height="50" relative="1" as="geometry">
            <mxPoint x="197.71000000000004" y="308.4999999999998" as="sourcePoint" />
            <mxPoint x="197.51999999999998" y="274.11999999999966" as="targetPoint" />
          </mxGeometry>
        </mxCell>
        <mxCell id="QAr_Sbfl9N1JEadzkFcU-356" value="" style="endArrow=none;html=1;rounded=0;fontFamily=Times New Roman;fontSize=27;entryX=0.119;entryY=0.564;entryDx=0;entryDy=0;entryPerimeter=0;startArrow=block;startFill=1;endFill=0;" edge="1" parent="1">
          <mxGeometry width="50" height="50" relative="1" as="geometry">
            <mxPoint x="248.71000000000004" y="308.4999999999998" as="sourcePoint" />
            <mxPoint x="248.5200000000009" y="274.11999999999966" as="targetPoint" />
          </mxGeometry>
        </mxCell>
        <mxCell id="QAr_Sbfl9N1JEadzkFcU-357" value="" style="endArrow=none;html=1;rounded=0;fontFamily=Times New Roman;fontSize=27;entryX=0.119;entryY=0.564;entryDx=0;entryDy=0;entryPerimeter=0;startArrow=block;startFill=1;endFill=0;" edge="1" parent="1">
          <mxGeometry width="50" height="50" relative="1" as="geometry">
            <mxPoint x="299.7099999999991" y="308.4999999999998" as="sourcePoint" />
            <mxPoint x="299.52000000000044" y="274.11999999999966" as="targetPoint" />
          </mxGeometry>
        </mxCell>
        <mxCell id="QAr_Sbfl9N1JEadzkFcU-358" value="" style="endArrow=none;html=1;rounded=0;fontFamily=Times New Roman;fontSize=27;entryX=0.119;entryY=0.564;entryDx=0;entryDy=0;entryPerimeter=0;startArrow=block;startFill=1;endFill=0;" edge="1" parent="1">
          <mxGeometry width="50" height="50" relative="1" as="geometry">
            <mxPoint x="350.71000000000004" y="308.4999999999998" as="sourcePoint" />
            <mxPoint x="350.52000000000044" y="274.11999999999966" as="targetPoint" />
          </mxGeometry>
        </mxCell>
        <mxCell id="QAr_Sbfl9N1JEadzkFcU-359" value="" style="endArrow=none;html=1;rounded=0;fontFamily=Times New Roman;fontSize=27;entryX=0.119;entryY=0.564;entryDx=0;entryDy=0;entryPerimeter=0;startArrow=block;startFill=1;endFill=0;" edge="1" parent="1">
          <mxGeometry width="50" height="50" relative="1" as="geometry">
            <mxPoint x="401.71000000000004" y="308.4999999999998" as="sourcePoint" />
            <mxPoint x="401.52000000000044" y="274.11999999999966" as="targetPoint" />
          </mxGeometry>
        </mxCell>
        <mxCell id="QAr_Sbfl9N1JEadzkFcU-360" value="" style="endArrow=none;html=1;rounded=0;fontFamily=Times New Roman;fontSize=27;entryX=0.119;entryY=0.564;entryDx=0;entryDy=0;entryPerimeter=0;startArrow=block;startFill=1;endFill=0;" edge="1" parent="1">
          <mxGeometry width="50" height="50" relative="1" as="geometry">
            <mxPoint x="452.71000000000095" y="308.4999999999998" as="sourcePoint" />
            <mxPoint x="452.52000000000044" y="274.11999999999966" as="targetPoint" />
          </mxGeometry>
        </mxCell>
        <mxCell id="QAr_Sbfl9N1JEadzkFcU-361" value="" style="endArrow=none;html=1;rounded=0;fontFamily=Times New Roman;fontSize=27;entryX=0.119;entryY=0.564;entryDx=0;entryDy=0;entryPerimeter=0;startArrow=block;startFill=1;endFill=0;" edge="1" parent="1">
          <mxGeometry width="50" height="50" relative="1" as="geometry">
            <mxPoint x="503.71000000000004" y="308.4999999999998" as="sourcePoint" />
            <mxPoint x="503.52000000000044" y="274.11999999999966" as="targetPoint" />
          </mxGeometry>
        </mxCell>
        <mxCell id="QAr_Sbfl9N1JEadzkFcU-362" value="" style="endArrow=none;html=1;rounded=0;fontFamily=Times New Roman;fontSize=27;entryX=0.119;entryY=0.564;entryDx=0;entryDy=0;entryPerimeter=0;startArrow=block;startFill=1;endFill=0;" edge="1" parent="1">
          <mxGeometry width="50" height="50" relative="1" as="geometry">
            <mxPoint x="1222.1900000000005" y="208.49999999999977" as="sourcePoint" />
            <mxPoint x="1222" y="174.11999999999966" as="targetPoint" />
          </mxGeometry>
        </mxCell>
        <mxCell id="QAr_Sbfl9N1JEadzkFcU-363" value="" style="endArrow=none;html=1;rounded=0;fontFamily=Times New Roman;fontSize=27;entryX=0.119;entryY=0.564;entryDx=0;entryDy=0;entryPerimeter=0;startArrow=block;startFill=1;endFill=0;" edge="1" parent="1">
          <mxGeometry width="50" height="50" relative="1" as="geometry">
            <mxPoint x="1273.6900000000005" y="208.49999999999977" as="sourcePoint" />
            <mxPoint x="1273.5" y="174.11999999999966" as="targetPoint" />
          </mxGeometry>
        </mxCell>
        <mxCell id="QAr_Sbfl9N1JEadzkFcU-364" value="" style="endArrow=none;html=1;rounded=0;fontFamily=Times New Roman;fontSize=27;entryX=0.119;entryY=0.564;entryDx=0;entryDy=0;entryPerimeter=0;startArrow=block;startFill=1;endFill=0;" edge="1" parent="1">
          <mxGeometry width="50" height="50" relative="1" as="geometry">
            <mxPoint x="1324.6900000000005" y="208.49999999999977" as="sourcePoint" />
            <mxPoint x="1324.5" y="174.11999999999966" as="targetPoint" />
          </mxGeometry>
        </mxCell>
        <mxCell id="QAr_Sbfl9N1JEadzkFcU-365" value="" style="endArrow=none;html=1;rounded=0;fontFamily=Times New Roman;fontSize=27;entryX=0.119;entryY=0.564;entryDx=0;entryDy=0;entryPerimeter=0;startArrow=block;startFill=1;endFill=0;" edge="1" parent="1">
          <mxGeometry width="50" height="50" relative="1" as="geometry">
            <mxPoint x="1375.6900000000005" y="208.49999999999977" as="sourcePoint" />
            <mxPoint x="1375.5" y="174.11999999999966" as="targetPoint" />
          </mxGeometry>
        </mxCell>
        <mxCell id="QAr_Sbfl9N1JEadzkFcU-366" value="" style="endArrow=none;html=1;rounded=0;fontFamily=Times New Roman;fontSize=27;entryX=0.119;entryY=0.564;entryDx=0;entryDy=0;entryPerimeter=0;startArrow=block;startFill=1;endFill=0;" edge="1" parent="1">
          <mxGeometry width="50" height="50" relative="1" as="geometry">
            <mxPoint x="1426.6900000000005" y="208.49999999999977" as="sourcePoint" />
            <mxPoint x="1426.5" y="174.11999999999966" as="targetPoint" />
          </mxGeometry>
        </mxCell>
        <mxCell id="QAr_Sbfl9N1JEadzkFcU-367" value="" style="endArrow=none;html=1;rounded=0;fontFamily=Times New Roman;fontSize=27;entryX=0.119;entryY=0.564;entryDx=0;entryDy=0;entryPerimeter=0;startArrow=block;startFill=1;endFill=0;" edge="1" parent="1">
          <mxGeometry width="50" height="50" relative="1" as="geometry">
            <mxPoint x="1477.6900000000005" y="208.49999999999977" as="sourcePoint" />
            <mxPoint x="1477.5" y="174.11999999999966" as="targetPoint" />
          </mxGeometry>
        </mxCell>
        <mxCell id="QAr_Sbfl9N1JEadzkFcU-368" value="" style="endArrow=none;html=1;rounded=0;fontFamily=Times New Roman;fontSize=27;entryX=0.119;entryY=0.564;entryDx=0;entryDy=0;entryPerimeter=0;startArrow=block;startFill=1;endFill=0;" edge="1" parent="1">
          <mxGeometry width="50" height="50" relative="1" as="geometry">
            <mxPoint x="1528.6900000000005" y="208.49999999999977" as="sourcePoint" />
            <mxPoint x="1528.500000000001" y="174.11999999999966" as="targetPoint" />
          </mxGeometry>
        </mxCell>
        <mxCell id="QAr_Sbfl9N1JEadzkFcU-369" value="" style="endArrow=none;html=1;rounded=0;fontFamily=Times New Roman;fontSize=27;entryX=0.119;entryY=0.564;entryDx=0;entryDy=0;entryPerimeter=0;startArrow=block;startFill=1;endFill=0;" edge="1" parent="1">
          <mxGeometry width="50" height="50" relative="1" as="geometry">
            <mxPoint x="1579.6900000000005" y="208.49999999999977" as="sourcePoint" />
            <mxPoint x="1579.5" y="174.11999999999966" as="targetPoint" />
          </mxGeometry>
        </mxCell>
        <mxCell id="QAr_Sbfl9N1JEadzkFcU-370" value="" style="endArrow=none;html=1;rounded=0;fontFamily=Times New Roman;fontSize=27;entryX=0.119;entryY=0.564;entryDx=0;entryDy=0;entryPerimeter=0;startArrow=block;startFill=1;endFill=0;" edge="1" parent="1">
          <mxGeometry width="50" height="50" relative="1" as="geometry">
            <mxPoint x="1630.6900000000005" y="208.49999999999977" as="sourcePoint" />
            <mxPoint x="1630.5" y="174.11999999999966" as="targetPoint" />
          </mxGeometry>
        </mxCell>
        <mxCell id="QAr_Sbfl9N1JEadzkFcU-371" value="" style="endArrow=none;html=1;rounded=0;fontFamily=Times New Roman;fontSize=27;entryX=0.119;entryY=0.564;entryDx=0;entryDy=0;entryPerimeter=0;startArrow=block;startFill=1;endFill=0;" edge="1" parent="1">
          <mxGeometry width="50" height="50" relative="1" as="geometry">
            <mxPoint x="1681.6900000000005" y="208.49999999999977" as="sourcePoint" />
            <mxPoint x="1681.5" y="174.11999999999966" as="targetPoint" />
          </mxGeometry>
        </mxCell>
        <mxCell id="QAr_Sbfl9N1JEadzkFcU-372" value="" style="endArrow=none;html=1;rounded=0;fontFamily=Times New Roman;fontSize=27;entryX=0.119;entryY=0.564;entryDx=0;entryDy=0;entryPerimeter=0;startArrow=block;startFill=1;endFill=0;" edge="1" parent="1">
          <mxGeometry width="50" height="50" relative="1" as="geometry">
            <mxPoint x="1732.6900000000005" y="208.49999999999977" as="sourcePoint" />
            <mxPoint x="1732.5" y="174.11999999999966" as="targetPoint" />
          </mxGeometry>
        </mxCell>
        <mxCell id="QAr_Sbfl9N1JEadzkFcU-373" value="" style="endArrow=none;html=1;rounded=0;fontFamily=Times New Roman;fontSize=27;entryX=0.119;entryY=0.564;entryDx=0;entryDy=0;entryPerimeter=0;startArrow=block;startFill=1;endFill=0;" edge="1" parent="1">
          <mxGeometry width="50" height="50" relative="1" as="geometry">
            <mxPoint x="1223.1900000000005" y="306.88000000000034" as="sourcePoint" />
            <mxPoint x="1223" y="272.5" as="targetPoint" />
          </mxGeometry>
        </mxCell>
        <mxCell id="QAr_Sbfl9N1JEadzkFcU-374" value="" style="endArrow=none;html=1;rounded=0;fontFamily=Times New Roman;fontSize=27;entryX=0.119;entryY=0.564;entryDx=0;entryDy=0;entryPerimeter=0;startArrow=block;startFill=1;endFill=0;" edge="1" parent="1">
          <mxGeometry width="50" height="50" relative="1" as="geometry">
            <mxPoint x="1274.6900000000005" y="306.88000000000034" as="sourcePoint" />
            <mxPoint x="1274.5" y="272.5" as="targetPoint" />
          </mxGeometry>
        </mxCell>
        <mxCell id="QAr_Sbfl9N1JEadzkFcU-375" value="" style="endArrow=none;html=1;rounded=0;fontFamily=Times New Roman;fontSize=27;entryX=0.119;entryY=0.564;entryDx=0;entryDy=0;entryPerimeter=0;startArrow=block;startFill=1;endFill=0;" edge="1" parent="1">
          <mxGeometry width="50" height="50" relative="1" as="geometry">
            <mxPoint x="1325.6900000000005" y="306.88000000000034" as="sourcePoint" />
            <mxPoint x="1325.5" y="272.5" as="targetPoint" />
          </mxGeometry>
        </mxCell>
        <mxCell id="QAr_Sbfl9N1JEadzkFcU-376" value="" style="endArrow=none;html=1;rounded=0;fontFamily=Times New Roman;fontSize=27;entryX=0.119;entryY=0.564;entryDx=0;entryDy=0;entryPerimeter=0;startArrow=block;startFill=1;endFill=0;" edge="1" parent="1">
          <mxGeometry width="50" height="50" relative="1" as="geometry">
            <mxPoint x="1376.6900000000005" y="306.88000000000034" as="sourcePoint" />
            <mxPoint x="1376.5" y="272.5" as="targetPoint" />
          </mxGeometry>
        </mxCell>
        <mxCell id="QAr_Sbfl9N1JEadzkFcU-377" value="" style="endArrow=none;html=1;rounded=0;fontFamily=Times New Roman;fontSize=27;entryX=0.119;entryY=0.564;entryDx=0;entryDy=0;entryPerimeter=0;startArrow=block;startFill=1;endFill=0;" edge="1" parent="1">
          <mxGeometry width="50" height="50" relative="1" as="geometry">
            <mxPoint x="1427.6900000000005" y="306.88000000000034" as="sourcePoint" />
            <mxPoint x="1427.5" y="272.5" as="targetPoint" />
          </mxGeometry>
        </mxCell>
        <mxCell id="QAr_Sbfl9N1JEadzkFcU-378" value="" style="endArrow=none;html=1;rounded=0;fontFamily=Times New Roman;fontSize=27;entryX=0.119;entryY=0.564;entryDx=0;entryDy=0;entryPerimeter=0;startArrow=block;startFill=1;endFill=0;" edge="1" parent="1">
          <mxGeometry width="50" height="50" relative="1" as="geometry">
            <mxPoint x="1478.6900000000005" y="306.88000000000034" as="sourcePoint" />
            <mxPoint x="1478.5" y="272.5" as="targetPoint" />
          </mxGeometry>
        </mxCell>
        <mxCell id="QAr_Sbfl9N1JEadzkFcU-379" value="" style="endArrow=none;html=1;rounded=0;fontFamily=Times New Roman;fontSize=27;entryX=0.119;entryY=0.564;entryDx=0;entryDy=0;entryPerimeter=0;startArrow=block;startFill=1;endFill=0;" edge="1" parent="1">
          <mxGeometry width="50" height="50" relative="1" as="geometry">
            <mxPoint x="1529.6900000000005" y="306.88000000000034" as="sourcePoint" />
            <mxPoint x="1529.500000000001" y="272.5" as="targetPoint" />
          </mxGeometry>
        </mxCell>
        <mxCell id="QAr_Sbfl9N1JEadzkFcU-380" value="" style="endArrow=none;html=1;rounded=0;fontFamily=Times New Roman;fontSize=27;entryX=0.119;entryY=0.564;entryDx=0;entryDy=0;entryPerimeter=0;startArrow=block;startFill=1;endFill=0;" edge="1" parent="1">
          <mxGeometry width="50" height="50" relative="1" as="geometry">
            <mxPoint x="1580.6900000000005" y="306.88000000000034" as="sourcePoint" />
            <mxPoint x="1580.5" y="272.5" as="targetPoint" />
          </mxGeometry>
        </mxCell>
        <mxCell id="QAr_Sbfl9N1JEadzkFcU-381" value="" style="endArrow=none;html=1;rounded=0;fontFamily=Times New Roman;fontSize=27;entryX=0.119;entryY=0.564;entryDx=0;entryDy=0;entryPerimeter=0;startArrow=block;startFill=1;endFill=0;" edge="1" parent="1">
          <mxGeometry width="50" height="50" relative="1" as="geometry">
            <mxPoint x="1631.6900000000005" y="306.88000000000034" as="sourcePoint" />
            <mxPoint x="1631.5" y="272.5" as="targetPoint" />
          </mxGeometry>
        </mxCell>
        <mxCell id="QAr_Sbfl9N1JEadzkFcU-382" value="" style="endArrow=none;html=1;rounded=0;fontFamily=Times New Roman;fontSize=27;entryX=0.119;entryY=0.564;entryDx=0;entryDy=0;entryPerimeter=0;startArrow=block;startFill=1;endFill=0;" edge="1" parent="1">
          <mxGeometry width="50" height="50" relative="1" as="geometry">
            <mxPoint x="1682.6900000000005" y="306.88000000000034" as="sourcePoint" />
            <mxPoint x="1682.5" y="272.5" as="targetPoint" />
          </mxGeometry>
        </mxCell>
        <mxCell id="QAr_Sbfl9N1JEadzkFcU-383" value="" style="endArrow=none;html=1;rounded=0;fontFamily=Times New Roman;fontSize=27;entryX=0.119;entryY=0.564;entryDx=0;entryDy=0;entryPerimeter=0;startArrow=block;startFill=1;endFill=0;" edge="1" parent="1">
          <mxGeometry width="50" height="50" relative="1" as="geometry">
            <mxPoint x="1733.6900000000005" y="306.88000000000034" as="sourcePoint" />
            <mxPoint x="1733.5" y="272.5" as="targetPoint" />
          </mxGeometry>
        </mxCell>
        <mxCell id="QAr_Sbfl9N1JEadzkFcU-384" value="" style="endArrow=none;html=1;rounded=0;fontFamily=Times New Roman;fontSize=27;entryX=0.119;entryY=0.564;entryDx=0;entryDy=0;entryPerimeter=0;startArrow=block;startFill=1;endFill=0;" edge="1" parent="1">
          <mxGeometry width="50" height="50" relative="1" as="geometry">
            <mxPoint x="614.3199999999997" y="308.8799999999999" as="sourcePoint" />
            <mxPoint x="614.1299999999992" y="274.4999999999998" as="targetPoint" />
          </mxGeometry>
        </mxCell>
        <mxCell id="QAr_Sbfl9N1JEadzkFcU-385" value="" style="endArrow=none;html=1;rounded=0;fontFamily=Times New Roman;fontSize=27;entryX=0.119;entryY=0.564;entryDx=0;entryDy=0;entryPerimeter=0;startArrow=block;startFill=1;endFill=0;" edge="1" parent="1">
          <mxGeometry width="50" height="50" relative="1" as="geometry">
            <mxPoint x="664.8200000000006" y="308.8799999999999" as="sourcePoint" />
            <mxPoint x="664.630000000001" y="274.4999999999998" as="targetPoint" />
          </mxGeometry>
        </mxCell>
        <mxCell id="QAr_Sbfl9N1JEadzkFcU-386" value="" style="endArrow=none;html=1;rounded=0;fontFamily=Times New Roman;fontSize=27;entryX=0.119;entryY=0.564;entryDx=0;entryDy=0;entryPerimeter=0;startArrow=block;startFill=1;endFill=0;" edge="1" parent="1">
          <mxGeometry width="50" height="50" relative="1" as="geometry">
            <mxPoint x="714.8200000000006" y="308.8799999999999" as="sourcePoint" />
            <mxPoint x="714.6300000000001" y="274.4999999999998" as="targetPoint" />
          </mxGeometry>
        </mxCell>
        <mxCell id="QAr_Sbfl9N1JEadzkFcU-387" value="" style="endArrow=none;html=1;rounded=0;fontFamily=Times New Roman;fontSize=27;entryX=0.119;entryY=0.564;entryDx=0;entryDy=0;entryPerimeter=0;startArrow=block;startFill=1;endFill=0;" edge="1" parent="1">
          <mxGeometry width="50" height="50" relative="1" as="geometry">
            <mxPoint x="765.8200000000006" y="308.8799999999999" as="sourcePoint" />
            <mxPoint x="765.6300000000001" y="274.4999999999998" as="targetPoint" />
          </mxGeometry>
        </mxCell>
        <mxCell id="QAr_Sbfl9N1JEadzkFcU-388" value="" style="endArrow=none;html=1;rounded=0;fontFamily=Times New Roman;fontSize=27;entryX=0.119;entryY=0.564;entryDx=0;entryDy=0;entryPerimeter=0;startArrow=block;startFill=1;endFill=0;" edge="1" parent="1">
          <mxGeometry width="50" height="50" relative="1" as="geometry">
            <mxPoint x="817.8200000000006" y="308.8799999999999" as="sourcePoint" />
            <mxPoint x="817.6300000000001" y="274.4999999999998" as="targetPoint" />
          </mxGeometry>
        </mxCell>
        <mxCell id="QAr_Sbfl9N1JEadzkFcU-389" value="" style="endArrow=none;html=1;rounded=0;fontFamily=Times New Roman;fontSize=27;entryX=0.119;entryY=0.564;entryDx=0;entryDy=0;entryPerimeter=0;startArrow=block;startFill=1;endFill=0;" edge="1" parent="1">
          <mxGeometry width="50" height="50" relative="1" as="geometry">
            <mxPoint x="868.8200000000006" y="308.8799999999999" as="sourcePoint" />
            <mxPoint x="868.6300000000001" y="274.4999999999998" as="targetPoint" />
          </mxGeometry>
        </mxCell>
        <mxCell id="QAr_Sbfl9N1JEadzkFcU-390" value="" style="endArrow=none;html=1;rounded=0;fontFamily=Times New Roman;fontSize=27;entryX=0.119;entryY=0.564;entryDx=0;entryDy=0;entryPerimeter=0;startArrow=block;startFill=1;endFill=0;" edge="1" parent="1">
          <mxGeometry width="50" height="50" relative="1" as="geometry">
            <mxPoint x="919.8200000000006" y="308.8799999999999" as="sourcePoint" />
            <mxPoint x="919.630000000001" y="274.4999999999998" as="targetPoint" />
          </mxGeometry>
        </mxCell>
        <mxCell id="QAr_Sbfl9N1JEadzkFcU-391" value="" style="endArrow=none;html=1;rounded=0;fontFamily=Times New Roman;fontSize=27;entryX=0.119;entryY=0.564;entryDx=0;entryDy=0;entryPerimeter=0;startArrow=block;startFill=1;endFill=0;" edge="1" parent="1">
          <mxGeometry width="50" height="50" relative="1" as="geometry">
            <mxPoint x="969.8200000000006" y="308.8799999999999" as="sourcePoint" />
            <mxPoint x="969.6300000000001" y="274.4999999999998" as="targetPoint" />
          </mxGeometry>
        </mxCell>
        <mxCell id="QAr_Sbfl9N1JEadzkFcU-392" value="" style="endArrow=none;html=1;rounded=0;fontFamily=Times New Roman;fontSize=27;entryX=0.119;entryY=0.564;entryDx=0;entryDy=0;entryPerimeter=0;startArrow=block;startFill=1;endFill=0;" edge="1" parent="1">
          <mxGeometry width="50" height="50" relative="1" as="geometry">
            <mxPoint x="1020.8200000000006" y="308.8799999999999" as="sourcePoint" />
            <mxPoint x="1020.6300000000001" y="274.4999999999998" as="targetPoint" />
          </mxGeometry>
        </mxCell>
        <mxCell id="QAr_Sbfl9N1JEadzkFcU-393" value="" style="endArrow=none;html=1;rounded=0;fontFamily=Times New Roman;fontSize=27;entryX=0.119;entryY=0.564;entryDx=0;entryDy=0;entryPerimeter=0;startArrow=block;startFill=1;endFill=0;" edge="1" parent="1">
          <mxGeometry width="50" height="50" relative="1" as="geometry">
            <mxPoint x="1071.8200000000006" y="308.8799999999999" as="sourcePoint" />
            <mxPoint x="1071.63" y="274.4999999999998" as="targetPoint" />
          </mxGeometry>
        </mxCell>
        <mxCell id="QAr_Sbfl9N1JEadzkFcU-394" value="" style="endArrow=none;html=1;rounded=0;fontFamily=Times New Roman;fontSize=27;entryX=0.119;entryY=0.564;entryDx=0;entryDy=0;entryPerimeter=0;startArrow=block;startFill=1;endFill=0;" edge="1" parent="1">
          <mxGeometry width="50" height="50" relative="1" as="geometry">
            <mxPoint x="1121.8200000000006" y="308.8799999999999" as="sourcePoint" />
            <mxPoint x="1121.63" y="274.4999999999998" as="targetPoint" />
          </mxGeometry>
        </mxCell>
        <mxCell id="QAr_Sbfl9N1JEadzkFcU-395" value="" style="endArrow=none;html=1;rounded=0;fontFamily=Times New Roman;fontSize=27;entryX=0.119;entryY=0.564;entryDx=0;entryDy=0;entryPerimeter=0;startArrow=block;startFill=1;endFill=0;" edge="1" parent="1">
          <mxGeometry width="50" height="50" relative="1" as="geometry">
            <mxPoint x="611.1900000000005" y="209.49999999999977" as="sourcePoint" />
            <mxPoint x="611" y="175.1199999999999" as="targetPoint" />
          </mxGeometry>
        </mxCell>
        <mxCell id="QAr_Sbfl9N1JEadzkFcU-396" value="" style="endArrow=none;html=1;rounded=0;fontFamily=Times New Roman;fontSize=27;entryX=0.119;entryY=0.564;entryDx=0;entryDy=0;entryPerimeter=0;startArrow=block;startFill=1;endFill=0;" edge="1" parent="1">
          <mxGeometry width="50" height="50" relative="1" as="geometry">
            <mxPoint x="662.6900000000005" y="209.49999999999977" as="sourcePoint" />
            <mxPoint x="662.5" y="175.1199999999999" as="targetPoint" />
          </mxGeometry>
        </mxCell>
        <mxCell id="QAr_Sbfl9N1JEadzkFcU-397" value="" style="endArrow=none;html=1;rounded=0;fontFamily=Times New Roman;fontSize=27;entryX=0.119;entryY=0.564;entryDx=0;entryDy=0;entryPerimeter=0;startArrow=block;startFill=1;endFill=0;" edge="1" parent="1">
          <mxGeometry width="50" height="50" relative="1" as="geometry">
            <mxPoint x="713.6900000000005" y="209.49999999999977" as="sourcePoint" />
            <mxPoint x="713.5" y="175.1199999999999" as="targetPoint" />
          </mxGeometry>
        </mxCell>
        <mxCell id="QAr_Sbfl9N1JEadzkFcU-398" value="" style="endArrow=none;html=1;rounded=0;fontFamily=Times New Roman;fontSize=27;entryX=0.119;entryY=0.564;entryDx=0;entryDy=0;entryPerimeter=0;startArrow=block;startFill=1;endFill=0;" edge="1" parent="1">
          <mxGeometry width="50" height="50" relative="1" as="geometry">
            <mxPoint x="764.6900000000005" y="209.49999999999977" as="sourcePoint" />
            <mxPoint x="764.5000000000009" y="175.1199999999999" as="targetPoint" />
          </mxGeometry>
        </mxCell>
        <mxCell id="QAr_Sbfl9N1JEadzkFcU-399" value="" style="endArrow=none;html=1;rounded=0;fontFamily=Times New Roman;fontSize=27;entryX=0.119;entryY=0.564;entryDx=0;entryDy=0;entryPerimeter=0;startArrow=block;startFill=1;endFill=0;" edge="1" parent="1">
          <mxGeometry width="50" height="50" relative="1" as="geometry">
            <mxPoint x="815.6900000000005" y="209.49999999999977" as="sourcePoint" />
            <mxPoint x="815.5" y="175.1199999999999" as="targetPoint" />
          </mxGeometry>
        </mxCell>
        <mxCell id="QAr_Sbfl9N1JEadzkFcU-400" value="" style="endArrow=none;html=1;rounded=0;fontFamily=Times New Roman;fontSize=27;entryX=0.119;entryY=0.564;entryDx=0;entryDy=0;entryPerimeter=0;startArrow=block;startFill=1;endFill=0;" edge="1" parent="1">
          <mxGeometry width="50" height="50" relative="1" as="geometry">
            <mxPoint x="866.6900000000005" y="209.49999999999977" as="sourcePoint" />
            <mxPoint x="866.5" y="175.1199999999999" as="targetPoint" />
          </mxGeometry>
        </mxCell>
        <mxCell id="QAr_Sbfl9N1JEadzkFcU-401" value="" style="endArrow=none;html=1;rounded=0;fontFamily=Times New Roman;fontSize=27;entryX=0.119;entryY=0.564;entryDx=0;entryDy=0;entryPerimeter=0;startArrow=block;startFill=1;endFill=0;" edge="1" parent="1">
          <mxGeometry width="50" height="50" relative="1" as="geometry">
            <mxPoint x="917.6900000000005" y="209.49999999999977" as="sourcePoint" />
            <mxPoint x="917.5000000000018" y="175.1199999999999" as="targetPoint" />
          </mxGeometry>
        </mxCell>
        <mxCell id="QAr_Sbfl9N1JEadzkFcU-402" value="" style="endArrow=none;html=1;rounded=0;fontFamily=Times New Roman;fontSize=27;entryX=0.119;entryY=0.564;entryDx=0;entryDy=0;entryPerimeter=0;startArrow=block;startFill=1;endFill=0;" edge="1" parent="1">
          <mxGeometry width="50" height="50" relative="1" as="geometry">
            <mxPoint x="968.6900000000005" y="209.49999999999977" as="sourcePoint" />
            <mxPoint x="968.5" y="175.1199999999999" as="targetPoint" />
          </mxGeometry>
        </mxCell>
        <mxCell id="QAr_Sbfl9N1JEadzkFcU-403" value="" style="endArrow=none;html=1;rounded=0;fontFamily=Times New Roman;fontSize=27;entryX=0.119;entryY=0.564;entryDx=0;entryDy=0;entryPerimeter=0;startArrow=block;startFill=1;endFill=0;" edge="1" parent="1">
          <mxGeometry width="50" height="50" relative="1" as="geometry">
            <mxPoint x="1019.6900000000005" y="209.49999999999977" as="sourcePoint" />
            <mxPoint x="1019.5" y="175.1199999999999" as="targetPoint" />
          </mxGeometry>
        </mxCell>
        <mxCell id="QAr_Sbfl9N1JEadzkFcU-404" value="" style="endArrow=none;html=1;rounded=0;fontFamily=Times New Roman;fontSize=27;entryX=0.119;entryY=0.564;entryDx=0;entryDy=0;entryPerimeter=0;startArrow=block;startFill=1;endFill=0;" edge="1" parent="1">
          <mxGeometry width="50" height="50" relative="1" as="geometry">
            <mxPoint x="1070.6900000000005" y="209.49999999999977" as="sourcePoint" />
            <mxPoint x="1070.5" y="175.1199999999999" as="targetPoint" />
          </mxGeometry>
        </mxCell>
        <mxCell id="QAr_Sbfl9N1JEadzkFcU-405" value="" style="endArrow=none;html=1;rounded=0;fontFamily=Times New Roman;fontSize=27;entryX=0.119;entryY=0.564;entryDx=0;entryDy=0;entryPerimeter=0;startArrow=block;startFill=1;endFill=0;" edge="1" parent="1">
          <mxGeometry width="50" height="50" relative="1" as="geometry">
            <mxPoint x="1121.6900000000005" y="209.49999999999977" as="sourcePoint" />
            <mxPoint x="1121.5" y="175.1199999999999" as="targetPoint" />
          </mxGeometry>
        </mxCell>
        <mxCell id="QAr_Sbfl9N1JEadzkFcU-406" value="" style="shape=flexArrow;endArrow=classic;html=1;rounded=0;fontSize=30;" edge="1" parent="1">
          <mxGeometry width="50" height="50" relative="1" as="geometry">
            <mxPoint x="869" y="370" as="sourcePoint" />
            <mxPoint x="869" y="414.0000000000002" as="targetPoint" />
          </mxGeometry>
        </mxCell>
        <mxCell id="QAr_Sbfl9N1JEadzkFcU-407" value="" style="shape=flexArrow;endArrow=classic;html=1;rounded=0;fontSize=30;" edge="1" parent="1">
          <mxGeometry width="50" height="50" relative="1" as="geometry">
            <mxPoint x="868.21" y="802" as="sourcePoint" />
            <mxPoint x="868.21" y="846" as="targetPoint" />
          </mxGeometry>
        </mxCell>
        <mxCell id="QAr_Sbfl9N1JEadzkFcU-408" value="&lt;font style=&quot;font-size: 35px;&quot;&gt;Char fusion embedding&lt;/font&gt;" style="text;html=1;resizable=0;autosize=1;align=center;verticalAlign=middle;points=[];fillColor=none;strokeColor=none;rounded=0;shadow=0;sketch=0;fillStyle=auto;fontFamily=Times New Roman;fontSize=27;" vertex="1" parent="1">
          <mxGeometry x="228" y="854.5" width="350" height="60" as="geometry" />
        </mxCell>
        <mxCell id="QAr_Sbfl9N1JEadzkFcU-409" value="&lt;p&gt;&lt;span style=&quot;font-family: &amp;quot;Times New Roman&amp;quot;;&quot;&gt;&lt;font style=&quot;font-size: 35px;&quot;&gt;Input sequence&lt;/font&gt;&lt;/span&gt;&lt;br&gt;&lt;/p&gt;" style="text;html=1;resizable=0;autosize=1;align=center;verticalAlign=middle;points=[];fillColor=none;strokeColor=none;rounded=0;shadow=0;dashed=1;sketch=0;fillStyle=auto;" vertex="1" parent="1">
          <mxGeometry x="753.959523809524" y="46" width="230" height="80" as="geometry" />
        </mxCell>
        <mxCell id="QAr_Sbfl9N1JEadzkFcU-410" value="&lt;p&gt;&lt;span style=&quot;font-family: &amp;quot;Times New Roman&amp;quot;;&quot;&gt;&lt;font style=&quot;font-size: 35px;&quot;&gt;Pinyin sequence&lt;/font&gt;&lt;/span&gt;&lt;br&gt;&lt;/p&gt;" style="text;html=1;resizable=0;autosize=1;align=center;verticalAlign=middle;points=[];fillColor=none;strokeColor=none;rounded=0;shadow=0;dashed=1;sketch=0;fillStyle=auto;" vertex="1" parent="1">
          <mxGeometry x="128.4995238095239" y="46" width="250" height="80" as="geometry" />
        </mxCell>
        <mxCell id="QAr_Sbfl9N1JEadzkFcU-411" value="&lt;p&gt;&lt;span style=&quot;font-family: &amp;quot;Times New Roman&amp;quot;;&quot;&gt;&lt;font style=&quot;font-size: 35px;&quot;&gt;Glyph sequence&lt;/font&gt;&lt;/span&gt;&lt;br&gt;&lt;/p&gt;" style="text;html=1;resizable=0;autosize=1;align=center;verticalAlign=middle;points=[];fillColor=none;strokeColor=none;rounded=0;shadow=0;dashed=1;sketch=0;fillStyle=auto;" vertex="1" parent="1">
          <mxGeometry x="1361.499523809524" y="46" width="250" height="80" as="geometry" />
        </mxCell>
      </root>
    </mxGraphModel>
  </diagram>
</mxfile>
